<?xml version="1.0" encoding="utf-8" standalone="no"?>
<!DOCTYPE svg PUBLIC "-//W3C//DTD SVG 1.1//EN"
  "http://www.w3.org/Graphics/SVG/1.1/DTD/svg11.dtd">
<svg xmlns:xlink="http://www.w3.org/1999/xlink" width="568.8pt" height="347.04pt" viewBox="0 0 568.8 347.04" xmlns="http://www.w3.org/2000/svg" version="1.1">
 <metadata>
  <rdf:RDF xmlns:dc="http://purl.org/dc/elements/1.1/" xmlns:cc="http://creativecommons.org/ns#" xmlns:rdf="http://www.w3.org/1999/02/22-rdf-syntax-ns#">
   <cc:Work>
    <dc:type rdf:resource="http://purl.org/dc/dcmitype/StillImage"/>
    <dc:date>2025-07-20T23:26:52.685426</dc:date>
    <dc:format>image/svg+xml</dc:format>
    <dc:creator>
     <cc:Agent>
      <dc:title>Matplotlib v3.10.3, https://matplotlib.org/</dc:title>
     </cc:Agent>
    </dc:creator>
   </cc:Work>
  </rdf:RDF>
 </metadata>
 <defs>
  <style type="text/css">*{stroke-linejoin: round; stroke-linecap: butt}</style>
 </defs>
 <g id="figure_1">
  <g id="patch_1">
   <path d="M 0 347.04 
L 568.8 347.04 
L 568.8 -0 
L 0 -0 
L 0 347.04 
z
" style="fill: none"/>
  </g>
  <g id="axes_1">
   <g id="patch_2">
    <path d="M 7.2 339.84 
L 561.6 339.84 
L 561.6 333.1872 
L 7.2 333.1872 
L 7.2 339.84 
z
" clip-path="url(#p14e88a1d9b)" style="fill: none"/>
   </g>
   <g id="patch_3">
    <path d="M 7.2 333.1872 
L 561.6 333.1872 
L 561.6 326.5344 
L 7.2 326.5344 
z
" clip-path="url(#p14e88a1d9b)" style="fill: #0d1a33; fill-opacity: 0.004082"/>
   </g>
   <g id="patch_4">
    <path d="M 7.2 326.5344 
L 561.6 326.5344 
L 561.6 319.8816 
L 7.2 319.8816 
z
" clip-path="url(#p14e88a1d9b)" style="fill: #0d1a33; fill-opacity: 0.008163"/>
   </g>
   <g id="patch_5">
    <path d="M 7.2 319.8816 
L 561.6 319.8816 
L 561.6 313.2288 
L 7.2 313.2288 
z
" clip-path="url(#p14e88a1d9b)" style="fill: #0d1a33; fill-opacity: 0.012245"/>
   </g>
   <g id="patch_6">
    <path d="M 7.2 313.2288 
L 561.6 313.2288 
L 561.6 306.576 
L 7.2 306.576 
z
" clip-path="url(#p14e88a1d9b)" style="fill: #0d1a33; fill-opacity: 0.016327"/>
   </g>
   <g id="patch_7">
    <path d="M 7.2 306.576 
L 561.6 306.576 
L 561.6 299.9232 
L 7.2 299.9232 
z
" clip-path="url(#p14e88a1d9b)" style="fill: #0d1a33; fill-opacity: 0.020408"/>
   </g>
   <g id="patch_8">
    <path d="M 7.2 299.9232 
L 561.6 299.9232 
L 561.6 293.2704 
L 7.2 293.2704 
z
" clip-path="url(#p14e88a1d9b)" style="fill: #0d1a33; fill-opacity: 0.02449"/>
   </g>
   <g id="patch_9">
    <path d="M 7.2 293.2704 
L 561.6 293.2704 
L 561.6 286.6176 
L 7.2 286.6176 
z
" clip-path="url(#p14e88a1d9b)" style="fill: #0d1a33; fill-opacity: 0.028571"/>
   </g>
   <g id="patch_10">
    <path d="M 7.2 286.6176 
L 561.6 286.6176 
L 561.6 279.9648 
L 7.2 279.9648 
z
" clip-path="url(#p14e88a1d9b)" style="fill: #0d1a33; fill-opacity: 0.032653"/>
   </g>
   <g id="patch_11">
    <path d="M 7.2 279.9648 
L 561.6 279.9648 
L 561.6 273.312 
L 7.2 273.312 
z
" clip-path="url(#p14e88a1d9b)" style="fill: #0d1a33; fill-opacity: 0.036735"/>
   </g>
   <g id="patch_12">
    <path d="M 7.2 273.312 
L 561.6 273.312 
L 561.6 266.6592 
L 7.2 266.6592 
z
" clip-path="url(#p14e88a1d9b)" style="fill: #0d1a33; fill-opacity: 0.040816"/>
   </g>
   <g id="patch_13">
    <path d="M 7.2 266.6592 
L 561.6 266.6592 
L 561.6 260.0064 
L 7.2 260.0064 
z
" clip-path="url(#p14e88a1d9b)" style="fill: #0d1a33; fill-opacity: 0.044898"/>
   </g>
   <g id="patch_14">
    <path d="M 7.2 260.0064 
L 561.6 260.0064 
L 561.6 253.3536 
L 7.2 253.3536 
z
" clip-path="url(#p14e88a1d9b)" style="fill: #0d1a33; fill-opacity: 0.04898"/>
   </g>
   <g id="patch_15">
    <path d="M 7.2 253.3536 
L 561.6 253.3536 
L 561.6 246.7008 
L 7.2 246.7008 
z
" clip-path="url(#p14e88a1d9b)" style="fill: #0d1a33; fill-opacity: 0.053061"/>
   </g>
   <g id="patch_16">
    <path d="M 7.2 246.7008 
L 561.6 246.7008 
L 561.6 240.048 
L 7.2 240.048 
z
" clip-path="url(#p14e88a1d9b)" style="fill: #0d1a33; fill-opacity: 0.057143"/>
   </g>
   <g id="patch_17">
    <path d="M 7.2 240.048 
L 561.6 240.048 
L 561.6 233.3952 
L 7.2 233.3952 
z
" clip-path="url(#p14e88a1d9b)" style="fill: #0d1a33; fill-opacity: 0.061224"/>
   </g>
   <g id="patch_18">
    <path d="M 7.2 233.3952 
L 561.6 233.3952 
L 561.6 226.7424 
L 7.2 226.7424 
z
" clip-path="url(#p14e88a1d9b)" style="fill: #0d1a33; fill-opacity: 0.065306"/>
   </g>
   <g id="patch_19">
    <path d="M 7.2 226.7424 
L 561.6 226.7424 
L 561.6 220.0896 
L 7.2 220.0896 
z
" clip-path="url(#p14e88a1d9b)" style="fill: #0d1a33; fill-opacity: 0.069388"/>
   </g>
   <g id="patch_20">
    <path d="M 7.2 220.0896 
L 561.6 220.0896 
L 561.6 213.4368 
L 7.2 213.4368 
z
" clip-path="url(#p14e88a1d9b)" style="fill: #0d1a33; fill-opacity: 0.073469"/>
   </g>
   <g id="patch_21">
    <path d="M 7.2 213.4368 
L 561.6 213.4368 
L 561.6 206.784 
L 7.2 206.784 
z
" clip-path="url(#p14e88a1d9b)" style="fill: #0d1a33; fill-opacity: 0.077551"/>
   </g>
   <g id="patch_22">
    <path d="M 7.2 206.784 
L 561.6 206.784 
L 561.6 200.1312 
L 7.2 200.1312 
z
" clip-path="url(#p14e88a1d9b)" style="fill: #0d1a33; fill-opacity: 0.081633"/>
   </g>
   <g id="patch_23">
    <path d="M 7.2 200.1312 
L 561.6 200.1312 
L 561.6 193.4784 
L 7.2 193.4784 
z
" clip-path="url(#p14e88a1d9b)" style="fill: #0d1a33; fill-opacity: 0.085714"/>
   </g>
   <g id="patch_24">
    <path d="M 7.2 193.4784 
L 561.6 193.4784 
L 561.6 186.8256 
L 7.2 186.8256 
z
" clip-path="url(#p14e88a1d9b)" style="fill: #0d1a33; fill-opacity: 0.089796"/>
   </g>
   <g id="patch_25">
    <path d="M 7.2 186.8256 
L 561.6 186.8256 
L 561.6 180.1728 
L 7.2 180.1728 
z
" clip-path="url(#p14e88a1d9b)" style="fill: #0d1a33; fill-opacity: 0.093878"/>
   </g>
   <g id="patch_26">
    <path d="M 7.2 180.1728 
L 561.6 180.1728 
L 561.6 173.52 
L 7.2 173.52 
z
" clip-path="url(#p14e88a1d9b)" style="fill: #0d1a33; fill-opacity: 0.097959"/>
   </g>
   <g id="patch_27">
    <path d="M 7.2 173.52 
L 561.6 173.52 
L 561.6 166.8672 
L 7.2 166.8672 
z
" clip-path="url(#p14e88a1d9b)" style="fill: #0d1a33; fill-opacity: 0.102041"/>
   </g>
   <g id="patch_28">
    <path d="M 7.2 166.8672 
L 561.6 166.8672 
L 561.6 160.2144 
L 7.2 160.2144 
z
" clip-path="url(#p14e88a1d9b)" style="fill: #0d1a33; fill-opacity: 0.106122"/>
   </g>
   <g id="patch_29">
    <path d="M 7.2 160.2144 
L 561.6 160.2144 
L 561.6 153.5616 
L 7.2 153.5616 
z
" clip-path="url(#p14e88a1d9b)" style="fill: #0d1a33; fill-opacity: 0.110204"/>
   </g>
   <g id="patch_30">
    <path d="M 7.2 153.5616 
L 561.6 153.5616 
L 561.6 146.9088 
L 7.2 146.9088 
z
" clip-path="url(#p14e88a1d9b)" style="fill: #0d1a33; fill-opacity: 0.114286"/>
   </g>
   <g id="patch_31">
    <path d="M 7.2 146.9088 
L 561.6 146.9088 
L 561.6 140.256 
L 7.2 140.256 
z
" clip-path="url(#p14e88a1d9b)" style="fill: #0d1a33; fill-opacity: 0.118367"/>
   </g>
   <g id="patch_32">
    <path d="M 7.2 140.256 
L 561.6 140.256 
L 561.6 133.6032 
L 7.2 133.6032 
z
" clip-path="url(#p14e88a1d9b)" style="fill: #0d1a33; fill-opacity: 0.122449"/>
   </g>
   <g id="patch_33">
    <path d="M 7.2 133.6032 
L 561.6 133.6032 
L 561.6 126.9504 
L 7.2 126.9504 
z
" clip-path="url(#p14e88a1d9b)" style="fill: #0d1a33; fill-opacity: 0.126531"/>
   </g>
   <g id="patch_34">
    <path d="M 7.2 126.9504 
L 561.6 126.9504 
L 561.6 120.2976 
L 7.2 120.2976 
z
" clip-path="url(#p14e88a1d9b)" style="fill: #0d1a33; fill-opacity: 0.130612"/>
   </g>
   <g id="patch_35">
    <path d="M 7.2 120.2976 
L 561.6 120.2976 
L 561.6 113.6448 
L 7.2 113.6448 
z
" clip-path="url(#p14e88a1d9b)" style="fill: #0d1a33; fill-opacity: 0.134694"/>
   </g>
   <g id="patch_36">
    <path d="M 7.2 113.6448 
L 561.6 113.6448 
L 561.6 106.992 
L 7.2 106.992 
z
" clip-path="url(#p14e88a1d9b)" style="fill: #0d1a33; fill-opacity: 0.138776"/>
   </g>
   <g id="patch_37">
    <path d="M 7.2 106.992 
L 561.6 106.992 
L 561.6 100.3392 
L 7.2 100.3392 
z
" clip-path="url(#p14e88a1d9b)" style="fill: #0d1a33; fill-opacity: 0.142857"/>
   </g>
   <g id="patch_38">
    <path d="M 7.2 100.3392 
L 561.6 100.3392 
L 561.6 93.6864 
L 7.2 93.6864 
z
" clip-path="url(#p14e88a1d9b)" style="fill: #0d1a33; fill-opacity: 0.146939"/>
   </g>
   <g id="patch_39">
    <path d="M 7.2 93.6864 
L 561.6 93.6864 
L 561.6 87.0336 
L 7.2 87.0336 
z
" clip-path="url(#p14e88a1d9b)" style="fill: #0d1a33; fill-opacity: 0.15102"/>
   </g>
   <g id="patch_40">
    <path d="M 7.2 87.0336 
L 561.6 87.0336 
L 561.6 80.3808 
L 7.2 80.3808 
z
" clip-path="url(#p14e88a1d9b)" style="fill: #0d1a33; fill-opacity: 0.155102"/>
   </g>
   <g id="patch_41">
    <path d="M 7.2 80.3808 
L 561.6 80.3808 
L 561.6 73.728 
L 7.2 73.728 
z
" clip-path="url(#p14e88a1d9b)" style="fill: #0d1a33; fill-opacity: 0.159184"/>
   </g>
   <g id="patch_42">
    <path d="M 7.2 73.728 
L 561.6 73.728 
L 561.6 67.0752 
L 7.2 67.0752 
z
" clip-path="url(#p14e88a1d9b)" style="fill: #0d1a33; fill-opacity: 0.163265"/>
   </g>
   <g id="patch_43">
    <path d="M 7.2 67.0752 
L 561.6 67.0752 
L 561.6 60.4224 
L 7.2 60.4224 
z
" clip-path="url(#p14e88a1d9b)" style="fill: #0d1a33; fill-opacity: 0.167347"/>
   </g>
   <g id="patch_44">
    <path d="M 7.2 60.4224 
L 561.6 60.4224 
L 561.6 53.7696 
L 7.2 53.7696 
z
" clip-path="url(#p14e88a1d9b)" style="fill: #0d1a33; fill-opacity: 0.171429"/>
   </g>
   <g id="patch_45">
    <path d="M 7.2 53.7696 
L 561.6 53.7696 
L 561.6 47.1168 
L 7.2 47.1168 
z
" clip-path="url(#p14e88a1d9b)" style="fill: #0d1a33; fill-opacity: 0.17551"/>
   </g>
   <g id="patch_46">
    <path d="M 7.2 47.1168 
L 561.6 47.1168 
L 561.6 40.464 
L 7.2 40.464 
z
" clip-path="url(#p14e88a1d9b)" style="fill: #0d1a33; fill-opacity: 0.179592"/>
   </g>
   <g id="patch_47">
    <path d="M 7.2 40.464 
L 561.6 40.464 
L 561.6 33.8112 
L 7.2 33.8112 
z
" clip-path="url(#p14e88a1d9b)" style="fill: #0d1a33; fill-opacity: 0.183673"/>
   </g>
   <g id="patch_48">
    <path d="M 7.2 33.8112 
L 561.6 33.8112 
L 561.6 27.1584 
L 7.2 27.1584 
z
" clip-path="url(#p14e88a1d9b)" style="fill: #0d1a33; fill-opacity: 0.187755"/>
   </g>
   <g id="patch_49">
    <path d="M 7.2 27.1584 
L 561.6 27.1584 
L 561.6 20.5056 
L 7.2 20.5056 
z
" clip-path="url(#p14e88a1d9b)" style="fill: #0d1a33; fill-opacity: 0.191837"/>
   </g>
   <g id="patch_50">
    <path d="M 7.2 20.5056 
L 561.6 20.5056 
L 561.6 13.8528 
L 7.2 13.8528 
z
" clip-path="url(#p14e88a1d9b)" style="fill: #0d1a33; fill-opacity: 0.195918"/>
   </g>
   <g id="patch_51">
    <path d="M 7.2 13.8528 
L 561.6 13.8528 
L 561.6 7.2 
L 7.2 7.2 
z
" clip-path="url(#p14e88a1d9b)" style="fill: #0d1a33; fill-opacity: 0.2"/>
   </g>
   <g id="patch_52">
    <path d="M 90.36 142.7916 
C 92.124343 142.7916 93.816661 142.090619 95.06424 140.84304 
C 96.311819 139.595461 97.0128 137.903143 97.0128 136.1388 
C 97.0128 134.374457 96.311819 132.682139 95.06424 131.43456 
C 93.816661 130.186981 92.124343 129.486 90.36 129.486 
C 88.595657 129.486 86.903339 130.186981 85.65576 131.43456 
C 84.408181 132.682139 83.7072 134.374457 83.7072 136.1388 
C 83.7072 137.903143 84.408181 139.595461 85.65576 140.84304 
C 86.903339 142.090619 88.595657 142.7916 90.36 142.7916 
z
" clip-path="url(#p14e88a1d9b)" style="fill: #2196f3; stroke: #1976d2; stroke-width: 1.5; stroke-linejoin: miter"/>
   </g>
   <g id="patch_53">
    <path d="M 90.36 170.5116 
C 92.124343 170.5116 93.816661 169.810619 95.06424 168.56304 
C 96.311819 167.315461 97.0128 165.623143 97.0128 163.8588 
C 97.0128 162.094457 96.311819 160.402139 95.06424 159.15456 
C 93.816661 157.906981 92.124343 157.206 90.36 157.206 
C 88.595657 157.206 86.903339 157.906981 85.65576 159.15456 
C 84.408181 160.402139 83.7072 162.094457 83.7072 163.8588 
C 83.7072 165.623143 84.408181 167.315461 85.65576 168.56304 
C 86.903339 169.810619 88.595657 170.5116 90.36 170.5116 
z
" clip-path="url(#p14e88a1d9b)" style="fill: #ff5722; stroke: #d84315; stroke-width: 1.5; stroke-linejoin: miter"/>
   </g>
   <g id="patch_54">
    <path d="M 130.163077 177.479675 
C 131.92742 177.479675 133.619738 176.778694 134.867317 175.531115 
C 136.114896 174.283536 136.815877 172.591218 136.815877 170.826875 
C 136.815877 169.062532 136.114896 167.370214 134.867317 166.122635 
C 133.619738 164.875056 131.92742 164.174075 130.163077 164.174075 
C 128.398734 164.174075 126.706416 164.875056 125.458837 166.122635 
C 124.211258 167.370214 123.510277 169.062532 123.510277 170.826875 
C 123.510277 172.591218 124.211258 174.283536 125.458837 175.531115 
C 126.706416 176.778694 128.398734 177.479675 130.163077 177.479675 
z
" clip-path="url(#p14e88a1d9b)" style="fill: #2196f3; stroke: #1976d2; stroke-width: 1.5; stroke-linejoin: miter"/>
   </g>
   <g id="patch_55">
    <path d="M 130.163077 205.199675 
C 131.92742 205.199675 133.619738 204.498694 134.867317 203.251115 
C 136.114896 202.003536 136.815877 200.311218 136.815877 198.546875 
C 136.815877 196.782532 136.114896 195.090214 134.867317 193.842635 
C 133.619738 192.595056 131.92742 191.894075 130.163077 191.894075 
C 128.398734 191.894075 126.706416 192.595056 125.458837 193.842635 
C 124.211258 195.090214 123.510277 196.782532 123.510277 198.546875 
C 123.510277 200.311218 124.211258 202.003536 125.458837 203.251115 
C 126.706416 204.498694 128.398734 205.199675 130.163077 205.199675 
z
" clip-path="url(#p14e88a1d9b)" style="fill: #ff5722; stroke: #d84315; stroke-width: 1.5; stroke-linejoin: miter"/>
   </g>
   <g id="patch_56">
    <path d="M 169.966154 199.408312 
C 171.730497 199.408312 173.422815 198.707331 174.670394 197.459752 
C 175.917973 196.212173 176.618954 194.519856 176.618954 192.755512 
C 176.618954 190.991169 175.917973 189.298851 174.670394 188.051272 
C 173.422815 186.803693 171.730497 186.102712 169.966154 186.102712 
C 168.201811 186.102712 166.509493 186.803693 165.261914 188.051272 
C 164.014335 189.298851 163.313354 190.991169 163.313354 192.755512 
C 163.313354 194.519856 164.014335 196.212173 165.261914 197.459752 
C 166.509493 198.707331 168.201811 199.408312 169.966154 199.408312 
z
" clip-path="url(#p14e88a1d9b)" style="fill: #2196f3; stroke: #1976d2; stroke-width: 1.5; stroke-linejoin: miter"/>
   </g>
   <g id="patch_57">
    <path d="M 169.966154 227.128312 
C 171.730497 227.128312 173.422815 226.427331 174.670394 225.179752 
C 175.917973 223.932173 176.618954 222.239856 176.618954 220.475512 
C 176.618954 218.711169 175.917973 217.018851 174.670394 215.771272 
C 173.422815 214.523693 171.730497 213.822712 169.966154 213.822712 
C 168.201811 213.822712 166.509493 214.523693 165.261914 215.771272 
C 164.014335 217.018851 163.313354 218.711169 163.313354 220.475512 
C 163.313354 222.239856 164.014335 223.932173 165.261914 225.179752 
C 166.509493 226.427331 168.201811 227.128312 169.966154 227.128312 
z
" clip-path="url(#p14e88a1d9b)" style="fill: #ff5722; stroke: #d84315; stroke-width: 1.5; stroke-linejoin: miter"/>
   </g>
   <g id="patch_58">
    <path d="M 209.769231 183.521525 
C 211.533574 183.521525 213.225892 182.820544 214.473471 181.572965 
C 215.72105 180.325386 216.422031 178.633068 216.422031 176.868725 
C 216.422031 175.104382 215.72105 173.412064 214.473471 172.164485 
C 213.225892 170.916906 211.533574 170.215925 209.769231 170.215925 
C 208.004888 170.215925 206.31257 170.916906 205.064991 172.164485 
C 203.817412 173.412064 203.116431 175.104382 203.116431 176.868725 
C 203.116431 178.633068 203.817412 180.325386 205.064991 181.572965 
C 206.31257 182.820544 208.004888 183.521525 209.769231 183.521525 
z
" clip-path="url(#p14e88a1d9b)" style="fill: #2196f3; stroke: #1976d2; stroke-width: 1.5; stroke-linejoin: miter"/>
   </g>
   <g id="patch_59">
    <path d="M 209.769231 211.241525 
C 211.533574 211.241525 213.225892 210.540544 214.473471 209.292965 
C 215.72105 208.045386 216.422031 206.353068 216.422031 204.588725 
C 216.422031 202.824382 215.72105 201.132064 214.473471 199.884485 
C 213.225892 198.636906 211.533574 197.935925 209.769231 197.935925 
C 208.004888 197.935925 206.31257 198.636906 205.064991 199.884485 
C 203.817412 201.132064 203.116431 202.824382 203.116431 204.588725 
C 203.116431 206.353068 203.817412 208.045386 205.064991 209.292965 
C 206.31257 210.540544 208.004888 211.241525 209.769231 211.241525 
z
" clip-path="url(#p14e88a1d9b)" style="fill: #ff5722; stroke: #d84315; stroke-width: 1.5; stroke-linejoin: miter"/>
   </g>
   <g id="patch_60">
    <path d="M 249.572308 147.971792 
C 251.336651 147.971792 253.028969 147.270812 254.276548 146.023232 
C 255.524127 144.775653 256.225108 143.083336 256.225108 141.318992 
C 256.225108 139.554649 255.524127 137.862332 254.276548 136.614752 
C 253.028969 135.367173 251.336651 134.666192 249.572308 134.666192 
C 247.807965 134.666192 246.115647 135.367173 244.868068 136.614752 
C 243.620489 137.862332 242.919508 139.554649 242.919508 141.318992 
C 242.919508 143.083336 243.620489 144.775653 244.868068 146.023232 
C 246.115647 147.270812 247.807965 147.971792 249.572308 147.971792 
z
" clip-path="url(#p14e88a1d9b)" style="fill: #2196f3; stroke: #1976d2; stroke-width: 1.5; stroke-linejoin: miter"/>
   </g>
   <g id="patch_61">
    <path d="M 249.572308 175.691792 
C 251.336651 175.691792 253.028969 174.990812 254.276548 173.743232 
C 255.524127 172.495653 256.225108 170.803336 256.225108 169.038992 
C 256.225108 167.274649 255.524127 165.582332 254.276548 164.334752 
C 253.028969 163.087173 251.336651 162.386192 249.572308 162.386192 
C 247.807965 162.386192 246.115647 163.087173 244.868068 164.334752 
C 243.620489 165.582332 242.919508 167.274649 242.919508 169.038992 
C 242.919508 170.803336 243.620489 172.495653 244.868068 173.743232 
C 246.115647 174.990812 247.807965 175.691792 249.572308 175.691792 
z
" clip-path="url(#p14e88a1d9b)" style="fill: #ff5722; stroke: #d84315; stroke-width: 1.5; stroke-linejoin: miter"/>
   </g>
   <g id="patch_62">
    <path d="M 289.375385 133.378768 
C 291.139728 133.378768 292.832046 132.677787 294.079625 131.430208 
C 295.327204 130.182629 296.028185 128.490311 296.028185 126.725968 
C 296.028185 124.961625 295.327204 123.269307 294.079625 122.021728 
C 292.832046 120.774149 291.139728 120.073168 289.375385 120.073168 
C 287.611041 120.073168 285.918724 120.774149 284.671145 122.021728 
C 283.423566 123.269307 282.722585 124.961625 282.722585 126.725968 
C 282.722585 128.490311 283.423566 130.182629 284.671145 131.430208 
C 285.918724 132.677787 287.611041 133.378768 289.375385 133.378768 
z
" clip-path="url(#p14e88a1d9b)" style="fill: #2196f3; stroke: #1976d2; stroke-width: 1.5; stroke-linejoin: miter"/>
   </g>
   <g id="patch_63">
    <path d="M 289.375385 161.098768 
C 291.139728 161.098768 292.832046 160.397787 294.079625 159.150208 
C 295.327204 157.902629 296.028185 156.210311 296.028185 154.445968 
C 296.028185 152.681625 295.327204 150.989307 294.079625 149.741728 
C 292.832046 148.494149 291.139728 147.793168 289.375385 147.793168 
C 287.611041 147.793168 285.918724 148.494149 284.671145 149.741728 
C 283.423566 150.989307 282.722585 152.681625 282.722585 154.445968 
C 282.722585 156.210311 283.423566 157.902629 284.671145 159.150208 
C 285.918724 160.397787 287.611041 161.098768 289.375385 161.098768 
z
" clip-path="url(#p14e88a1d9b)" style="fill: #ff5722; stroke: #d84315; stroke-width: 1.5; stroke-linejoin: miter"/>
   </g>
   <g id="patch_64">
    <path d="M 329.178462 156.416658 
C 330.942805 156.416658 332.635123 155.715677 333.882702 154.468098 
C 335.130281 153.220519 335.831262 151.528202 335.831262 149.763858 
C 335.831262 147.999515 335.130281 146.307197 333.882702 145.059618 
C 332.635123 143.812039 330.942805 143.111058 329.178462 143.111058 
C 327.414118 143.111058 325.721801 143.812039 324.474222 145.059618 
C 323.226643 146.307197 322.525662 147.999515 322.525662 149.763858 
C 322.525662 151.528202 323.226643 153.220519 324.474222 154.468098 
C 325.721801 155.715677 327.414118 156.416658 329.178462 156.416658 
z
" clip-path="url(#p14e88a1d9b)" style="fill: #2196f3; stroke: #1976d2; stroke-width: 1.5; stroke-linejoin: miter"/>
   </g>
   <g id="patch_65">
    <path d="M 329.178462 184.136658 
C 330.942805 184.136658 332.635123 183.435677 333.882702 182.188098 
C 335.130281 180.940519 335.831262 179.248202 335.831262 177.483858 
C 335.831262 175.719515 335.130281 174.027197 333.882702 172.779618 
C 332.635123 171.532039 330.942805 170.831058 329.178462 170.831058 
C 327.414118 170.831058 325.721801 171.532039 324.474222 172.779618 
C 323.226643 174.027197 322.525662 175.719515 322.525662 177.483858 
C 322.525662 179.248202 323.226643 180.940519 324.474222 182.188098 
C 325.721801 183.435677 327.414118 184.136658 329.178462 184.136658 
z
" clip-path="url(#p14e88a1d9b)" style="fill: #ff5722; stroke: #d84315; stroke-width: 1.5; stroke-linejoin: miter"/>
   </g>
   <g id="patch_66">
    <path d="M 368.981538 190.762027 
C 370.745882 190.762027 372.438199 190.061046 373.685778 188.813467 
C 374.933357 187.565888 375.634338 185.873571 375.634338 184.109227 
C 375.634338 182.344884 374.933357 180.652566 373.685778 179.404987 
C 372.438199 178.157408 370.745882 177.456427 368.981538 177.456427 
C 367.217195 177.456427 365.524877 178.157408 364.277298 179.404987 
C 363.029719 180.652566 362.328738 182.344884 362.328738 184.109227 
C 362.328738 185.873571 363.029719 187.565888 364.277298 188.813467 
C 365.524877 190.061046 367.217195 190.762027 368.981538 190.762027 
z
" clip-path="url(#p14e88a1d9b)" style="fill: #2196f3; stroke: #1976d2; stroke-width: 1.5; stroke-linejoin: miter"/>
   </g>
   <g id="patch_67">
    <path d="M 368.981538 218.482027 
C 370.745882 218.482027 372.438199 217.781046 373.685778 216.533467 
C 374.933357 215.285888 375.634338 213.593571 375.634338 211.829227 
C 375.634338 210.064884 374.933357 208.372566 373.685778 207.124987 
C 372.438199 205.877408 370.745882 205.176427 368.981538 205.176427 
C 367.217195 205.176427 365.524877 205.877408 364.277298 207.124987 
C 363.029719 208.372566 362.328738 210.064884 362.328738 211.829227 
C 362.328738 213.593571 363.029719 215.285888 364.277298 216.533467 
C 365.524877 217.781046 367.217195 218.482027 368.981538 218.482027 
z
" clip-path="url(#p14e88a1d9b)" style="fill: #ff5722; stroke: #d84315; stroke-width: 1.5; stroke-linejoin: miter"/>
   </g>
   <g id="patch_68">
    <path d="M 408.784615 197.171345 
C 410.548959 197.171345 412.241276 196.470364 413.488855 195.222785 
C 414.736434 193.975206 415.437415 192.282889 415.437415 190.518545 
C 415.437415 188.754202 414.736434 187.061885 413.488855 185.814305 
C 412.241276 184.566726 410.548959 183.865745 408.784615 183.865745 
C 407.020272 183.865745 405.327954 184.566726 404.080375 185.814305 
C 402.832796 187.061885 402.131815 188.754202 402.131815 190.518545 
C 402.131815 192.282889 402.832796 193.975206 404.080375 195.222785 
C 405.327954 196.470364 407.020272 197.171345 408.784615 197.171345 
z
" clip-path="url(#p14e88a1d9b)" style="fill: #2196f3; stroke: #1976d2; stroke-width: 1.5; stroke-linejoin: miter"/>
   </g>
   <g id="patch_69">
    <path d="M 408.784615 224.891345 
C 410.548959 224.891345 412.241276 224.190364 413.488855 222.942785 
C 414.736434 221.695206 415.437415 220.002889 415.437415 218.238545 
C 415.437415 216.474202 414.736434 214.781885 413.488855 213.534305 
C 412.241276 212.286726 410.548959 211.585745 408.784615 211.585745 
C 407.020272 211.585745 405.327954 212.286726 404.080375 213.534305 
C 402.832796 214.781885 402.131815 216.474202 402.131815 218.238545 
C 402.131815 220.002889 402.832796 221.695206 404.080375 222.942785 
C 405.327954 224.190364 407.020272 224.891345 408.784615 224.891345 
z
" clip-path="url(#p14e88a1d9b)" style="fill: #ff5722; stroke: #d84315; stroke-width: 1.5; stroke-linejoin: miter"/>
   </g>
   <g id="patch_70">
    <path d="M 448.587692 168.32123 
C 450.352035 168.32123 452.044353 167.620249 453.291932 166.37267 
C 454.539511 165.125091 455.240492 163.432774 455.240492 161.66843 
C 455.240492 159.904087 454.539511 158.211769 453.291932 156.96419 
C 452.044353 155.716611 450.352035 155.01563 448.587692 155.01563 
C 446.823349 155.01563 445.131031 155.716611 443.883452 156.96419 
C 442.635873 158.211769 441.934892 159.904087 441.934892 161.66843 
C 441.934892 163.432774 442.635873 165.125091 443.883452 166.37267 
C 445.131031 167.620249 446.823349 168.32123 448.587692 168.32123 
z
" clip-path="url(#p14e88a1d9b)" style="fill: #2196f3; stroke: #1976d2; stroke-width: 1.5; stroke-linejoin: miter"/>
   </g>
   <g id="patch_71">
    <path d="M 448.587692 196.04123 
C 450.352035 196.04123 452.044353 195.340249 453.291932 194.09267 
C 454.539511 192.845091 455.240492 191.152774 455.240492 189.38843 
C 455.240492 187.624087 454.539511 185.931769 453.291932 184.68419 
C 452.044353 183.436611 450.352035 182.73563 448.587692 182.73563 
C 446.823349 182.73563 445.131031 183.436611 443.883452 184.68419 
C 442.635873 185.931769 441.934892 187.624087 441.934892 189.38843 
C 441.934892 191.152774 442.635873 192.845091 443.883452 194.09267 
C 445.131031 195.340249 446.823349 196.04123 448.587692 196.04123 
z
" clip-path="url(#p14e88a1d9b)" style="fill: #ff5722; stroke: #d84315; stroke-width: 1.5; stroke-linejoin: miter"/>
   </g>
   <g id="patch_72">
    <path d="M 201.24 231.732 
C 204.915715 231.732 208.441377 230.271623 211.0405 227.6725 
C 213.639623 225.073377 215.1 221.547715 215.1 217.872 
C 215.1 214.196285 213.639623 210.670623 211.0405 208.0715 
C 208.441377 205.472377 204.915715 204.012 201.24 204.012 
C 197.564285 204.012 194.038623 205.472377 191.4395 208.0715 
C 188.840377 210.670623 187.38 214.196285 187.38 217.872 
C 187.38 221.547715 188.840377 225.073377 191.4395 227.6725 
C 194.038623 230.271623 197.564285 231.732 201.24 231.732 
L 201.24 231.732 
z
" clip-path="url(#p14e88a1d9b)" style="fill: none; opacity: 0.6; stroke: #9c27b0; stroke-width: 1.5; stroke-linejoin: miter"/>
   </g>
   <g id="patch_73">
    <path d="M 367.56 231.732 
C 371.235715 231.732 374.761377 230.271623 377.3605 227.6725 
C 379.959623 225.073377 381.42 221.547715 381.42 217.872 
C 381.42 214.196285 379.959623 210.670623 377.3605 208.0715 
C 374.761377 205.472377 371.235715 204.012 367.56 204.012 
C 363.884285 204.012 360.358623 205.472377 357.7595 208.0715 
C 355.160377 210.670623 353.7 214.196285 353.7 217.872 
C 353.7 221.547715 355.160377 225.073377 357.7595 227.6725 
C 360.358623 230.271623 363.884285 231.732 367.56 231.732 
L 367.56 231.732 
z
" clip-path="url(#p14e88a1d9b)" style="fill: none; opacity: 0.6; stroke: #9c27b0; stroke-width: 1.5; stroke-linejoin: miter"/>
   </g>
   <g id="line2d_1">
    <path d="M 90.36 149.9988 
L 100.310769 157.47147 
L 110.261538 166.211393 
L 120.212308 175.52843 
L 130.163077 184.686875 
L 140.113846 192.963541 
L 150.064615 199.704871 
L 160.015385 204.378545 
L 169.966154 206.615512 
L 179.916923 206.239133 
L 189.867692 203.279127 
L 199.818462 197.969227 
L 209.769231 190.728725 
L 219.72 182.129357 
L 229.670769 172.850161 
L 239.621538 163.623858 
L 249.572308 155.178992 
L 259.523077 148.182402 
L 269.473846 143.186564 
L 279.424615 140.585968 
L 289.375385 140.585968 
L 299.326154 143.186564 
L 309.276923 148.182402 
L 319.227692 155.178992 
L 329.178462 163.623858 
L 339.129231 172.850161 
L 349.08 182.129357 
L 359.030769 190.728725 
L 368.981538 197.969227 
L 378.932308 203.279127 
L 388.883077 206.239133 
L 398.833846 206.615512 
L 408.784615 204.378545 
L 418.735385 199.704871 
L 428.686154 192.963541 
L 438.636923 184.686875 
L 448.587692 175.52843 
L 458.538462 166.211393 
L 468.489231 157.47147 
L 478.44 149.9988 
" clip-path="url(#p14e88a1d9b)" style="fill: none; stroke: #4caf50; stroke-opacity: 0.8; stroke-width: 2.5; stroke-linecap: square"/>
   </g>
   <g id="line2d_2">
    <path d="M 145.8 184.608 
L 228.96 184.608 
" clip-path="url(#p14e88a1d9b)" style="fill: none; stroke: #ff9800; stroke-opacity: 0.7; stroke-width: 2; stroke-linecap: square"/>
   </g>
   <g id="line2d_3">
    <path d="M 284.4 184.608 
L 367.56 173.52 
" clip-path="url(#p14e88a1d9b)" style="fill: none; stroke: #ff9800; stroke-opacity: 0.7; stroke-width: 2; stroke-linecap: square"/>
   </g>
   <g id="line2d_4">
    <path d="M 423 184.608 
L 506.16 184.608 
" clip-path="url(#p14e88a1d9b)" style="fill: none; stroke: #ff9800; stroke-opacity: 0.7; stroke-width: 2; stroke-linecap: square"/>
   </g>
   <g id="text_1">
    <!-- $\Delta G$ -->
    <g style="fill: #ffc107" transform="translate(158.92 73.728) scale(0.2 -0.2)">
     <defs>
      <path id="DejaVuSans-394" d="M 2188 4044 
L 906 525 
L 3472 525 
L 2188 4044 
z
M 50 0 
L 1831 4666 
L 2547 4666 
L 4325 0 
L 50 0 
z
" transform="scale(0.015625)"/>
      <path id="DejaVuSans-Oblique-47" d="M 3494 697 
L 3738 1919 
L 2700 1919 
L 2797 2438 
L 4453 2438 
L 4050 384 
Q 3634 156 3143 32 
Q 2653 -91 2156 -91 
Q 1278 -91 783 396 
Q 288 884 288 1753 
Q 288 2475 589 3126 
Q 891 3778 1422 4213 
Q 1756 4484 2153 4617 
Q 2550 4750 3034 4750 
Q 3472 4750 3873 4639 
Q 4275 4528 4641 4306 
L 4513 3634 
Q 4231 3928 3853 4083 
Q 3475 4238 3047 4238 
Q 2550 4238 2172 4048 
Q 1794 3859 1497 3463 
Q 1244 3125 1098 2667 
Q 953 2209 953 1734 
Q 953 1081 1287 751 
Q 1622 422 2284 422 
Q 2616 422 2925 492 
Q 3234 563 3494 697 
z
" transform="scale(0.015625)"/>
     </defs>
     <use xlink:href="#DejaVuSans-394" transform="translate(0 0.78125)"/>
     <use xlink:href="#DejaVuSans-Oblique-47" transform="translate(68.408203 0.78125)"/>
    </g>
   </g>
   <g id="text_2">
    <!-- MM/GBSA -->
    <g style="fill: #ffffff" transform="translate(357.251406 73.728) scale(0.14 -0.14)">
     <defs>
      <path id="DejaVuSans-Bold-4d" d="M 588 4666 
L 2119 4666 
L 3181 2169 
L 4250 4666 
L 5778 4666 
L 5778 0 
L 4641 0 
L 4641 3413 
L 3566 897 
L 2803 897 
L 1728 3413 
L 1728 0 
L 588 0 
L 588 4666 
z
" transform="scale(0.015625)"/>
      <path id="DejaVuSans-Bold-2f" d="M 1644 4666 
L 2338 4666 
L 691 -594 
L 0 -594 
L 1644 4666 
z
" transform="scale(0.015625)"/>
      <path id="DejaVuSans-Bold-47" d="M 4781 347 
Q 4331 128 3847 18 
Q 3363 -91 2847 -91 
Q 1681 -91 1000 561 
Q 319 1213 319 2328 
Q 319 3456 1012 4103 
Q 1706 4750 2913 4750 
Q 3378 4750 3804 4662 
Q 4231 4575 4609 4403 
L 4609 3438 
Q 4219 3659 3833 3768 
Q 3447 3878 3059 3878 
Q 2341 3878 1952 3476 
Q 1563 3075 1563 2328 
Q 1563 1588 1938 1184 
Q 2313 781 3003 781 
Q 3191 781 3352 804 
Q 3513 828 3641 878 
L 3641 1784 
L 2906 1784 
L 2906 2591 
L 4781 2591 
L 4781 347 
z
" transform="scale(0.015625)"/>
      <path id="DejaVuSans-Bold-42" d="M 2456 2859 
Q 2741 2859 2887 2984 
Q 3034 3109 3034 3353 
Q 3034 3594 2887 3720 
Q 2741 3847 2456 3847 
L 1791 3847 
L 1791 2859 
L 2456 2859 
z
M 2497 819 
Q 2859 819 3042 972 
Q 3225 1125 3225 1434 
Q 3225 1738 3044 1889 
Q 2863 2041 2497 2041 
L 1791 2041 
L 1791 819 
L 2497 819 
z
M 3616 2497 
Q 4003 2384 4215 2081 
Q 4428 1778 4428 1338 
Q 4428 663 3972 331 
Q 3516 0 2584 0 
L 588 0 
L 588 4666 
L 2394 4666 
Q 3366 4666 3802 4372 
Q 4238 4078 4238 3431 
Q 4238 3091 4078 2852 
Q 3919 2613 3616 2497 
z
" transform="scale(0.015625)"/>
      <path id="DejaVuSans-Bold-53" d="M 3834 4519 
L 3834 3531 
Q 3450 3703 3084 3790 
Q 2719 3878 2394 3878 
Q 1963 3878 1756 3759 
Q 1550 3641 1550 3391 
Q 1550 3203 1689 3098 
Q 1828 2994 2194 2919 
L 2706 2816 
Q 3484 2659 3812 2340 
Q 4141 2022 4141 1434 
Q 4141 663 3683 286 
Q 3225 -91 2284 -91 
Q 1841 -91 1394 -6 
Q 947 78 500 244 
L 500 1259 
Q 947 1022 1364 901 
Q 1781 781 2169 781 
Q 2563 781 2772 912 
Q 2981 1044 2981 1288 
Q 2981 1506 2839 1625 
Q 2697 1744 2272 1838 
L 1806 1941 
Q 1106 2091 782 2419 
Q 459 2747 459 3303 
Q 459 4000 909 4375 
Q 1359 4750 2203 4750 
Q 2588 4750 2994 4692 
Q 3400 4634 3834 4519 
z
" transform="scale(0.015625)"/>
      <path id="DejaVuSans-Bold-41" d="M 3419 850 
L 1538 850 
L 1241 0 
L 31 0 
L 1759 4666 
L 3194 4666 
L 4922 0 
L 3713 0 
L 3419 850 
z
M 1838 1716 
L 3116 1716 
L 2478 3572 
L 1838 1716 
z
" transform="scale(0.015625)"/>
     </defs>
     <use xlink:href="#DejaVuSans-Bold-4d"/>
     <use xlink:href="#DejaVuSans-Bold-4d" transform="translate(99.511719 0)"/>
     <use xlink:href="#DejaVuSans-Bold-2f" transform="translate(199.023438 0)"/>
     <use xlink:href="#DejaVuSans-Bold-47" transform="translate(235.546875 0)"/>
     <use xlink:href="#DejaVuSans-Bold-42" transform="translate(317.626953 0)"/>
     <use xlink:href="#DejaVuSans-Bold-53" transform="translate(393.847656 0)"/>
     <use xlink:href="#DejaVuSans-Bold-41" transform="translate(465.869141 0)"/>
    </g>
   </g>
   <g id="text_3">
    <!-- OpenGBSA -->
    <g style="fill: #ffffff" transform="translate(212.0025 240.048) scale(0.24 -0.24)">
     <defs>
      <path id="DejaVuSans-Bold-4f" d="M 2719 3878 
Q 2169 3878 1866 3472 
Q 1563 3066 1563 2328 
Q 1563 1594 1866 1187 
Q 2169 781 2719 781 
Q 3272 781 3575 1187 
Q 3878 1594 3878 2328 
Q 3878 3066 3575 3472 
Q 3272 3878 2719 3878 
z
M 2719 4750 
Q 3844 4750 4481 4106 
Q 5119 3463 5119 2328 
Q 5119 1197 4481 553 
Q 3844 -91 2719 -91 
Q 1597 -91 958 553 
Q 319 1197 319 2328 
Q 319 3463 958 4106 
Q 1597 4750 2719 4750 
z
" transform="scale(0.015625)"/>
      <path id="DejaVuSans-Bold-70" d="M 1656 506 
L 1656 -1331 
L 538 -1331 
L 538 3500 
L 1656 3500 
L 1656 2988 
Q 1888 3294 2169 3439 
Q 2450 3584 2816 3584 
Q 3463 3584 3878 3070 
Q 4294 2556 4294 1747 
Q 4294 938 3878 423 
Q 3463 -91 2816 -91 
Q 2450 -91 2169 54 
Q 1888 200 1656 506 
z
M 2400 2772 
Q 2041 2772 1848 2508 
Q 1656 2244 1656 1747 
Q 1656 1250 1848 986 
Q 2041 722 2400 722 
Q 2759 722 2948 984 
Q 3138 1247 3138 1747 
Q 3138 2247 2948 2509 
Q 2759 2772 2400 2772 
z
" transform="scale(0.015625)"/>
      <path id="DejaVuSans-Bold-65" d="M 4031 1759 
L 4031 1441 
L 1416 1441 
Q 1456 1047 1700 850 
Q 1944 653 2381 653 
Q 2734 653 3104 758 
Q 3475 863 3866 1075 
L 3866 213 
Q 3469 63 3072 -14 
Q 2675 -91 2278 -91 
Q 1328 -91 801 392 
Q 275 875 275 1747 
Q 275 2603 792 3093 
Q 1309 3584 2216 3584 
Q 3041 3584 3536 3087 
Q 4031 2591 4031 1759 
z
M 2881 2131 
Q 2881 2450 2695 2645 
Q 2509 2841 2209 2841 
Q 1884 2841 1681 2658 
Q 1478 2475 1428 2131 
L 2881 2131 
z
" transform="scale(0.015625)"/>
      <path id="DejaVuSans-Bold-6e" d="M 4056 2131 
L 4056 0 
L 2931 0 
L 2931 347 
L 2931 1631 
Q 2931 2084 2911 2256 
Q 2891 2428 2841 2509 
Q 2775 2619 2662 2680 
Q 2550 2741 2406 2741 
Q 2056 2741 1856 2470 
Q 1656 2200 1656 1722 
L 1656 0 
L 538 0 
L 538 3500 
L 1656 3500 
L 1656 2988 
Q 1909 3294 2193 3439 
Q 2478 3584 2822 3584 
Q 3428 3584 3742 3212 
Q 4056 2841 4056 2131 
z
" transform="scale(0.015625)"/>
     </defs>
     <use xlink:href="#DejaVuSans-Bold-4f"/>
     <use xlink:href="#DejaVuSans-Bold-70" transform="translate(85.009766 0)"/>
     <use xlink:href="#DejaVuSans-Bold-65" transform="translate(156.591797 0)"/>
     <use xlink:href="#DejaVuSans-Bold-6e" transform="translate(224.414062 0)"/>
     <use xlink:href="#DejaVuSans-Bold-47" transform="translate(295.605469 0)"/>
     <use xlink:href="#DejaVuSans-Bold-42" transform="translate(377.685547 0)"/>
     <use xlink:href="#DejaVuSans-Bold-53" transform="translate(453.90625 0)"/>
     <use xlink:href="#DejaVuSans-Bold-41" transform="translate(525.927734 0)"/>
    </g>
   </g>
   <g id="text_4">
    <!-- Molecular Mechanics / Generalized Born Surface Area -->
    <g style="fill: #bdbdbd" transform="translate(163.875234 273.312) scale(0.09 -0.09)">
     <defs>
      <path id="DejaVuSans-4d" d="M 628 4666 
L 1569 4666 
L 2759 1491 
L 3956 4666 
L 4897 4666 
L 4897 0 
L 4281 0 
L 4281 4097 
L 3078 897 
L 2444 897 
L 1241 4097 
L 1241 0 
L 628 0 
L 628 4666 
z
" transform="scale(0.015625)"/>
      <path id="DejaVuSans-6f" d="M 1959 3097 
Q 1497 3097 1228 2736 
Q 959 2375 959 1747 
Q 959 1119 1226 758 
Q 1494 397 1959 397 
Q 2419 397 2687 759 
Q 2956 1122 2956 1747 
Q 2956 2369 2687 2733 
Q 2419 3097 1959 3097 
z
M 1959 3584 
Q 2709 3584 3137 3096 
Q 3566 2609 3566 1747 
Q 3566 888 3137 398 
Q 2709 -91 1959 -91 
Q 1206 -91 779 398 
Q 353 888 353 1747 
Q 353 2609 779 3096 
Q 1206 3584 1959 3584 
z
" transform="scale(0.015625)"/>
      <path id="DejaVuSans-6c" d="M 603 4863 
L 1178 4863 
L 1178 0 
L 603 0 
L 603 4863 
z
" transform="scale(0.015625)"/>
      <path id="DejaVuSans-65" d="M 3597 1894 
L 3597 1613 
L 953 1613 
Q 991 1019 1311 708 
Q 1631 397 2203 397 
Q 2534 397 2845 478 
Q 3156 559 3463 722 
L 3463 178 
Q 3153 47 2828 -22 
Q 2503 -91 2169 -91 
Q 1331 -91 842 396 
Q 353 884 353 1716 
Q 353 2575 817 3079 
Q 1281 3584 2069 3584 
Q 2775 3584 3186 3129 
Q 3597 2675 3597 1894 
z
M 3022 2063 
Q 3016 2534 2758 2815 
Q 2500 3097 2075 3097 
Q 1594 3097 1305 2825 
Q 1016 2553 972 2059 
L 3022 2063 
z
" transform="scale(0.015625)"/>
      <path id="DejaVuSans-63" d="M 3122 3366 
L 3122 2828 
Q 2878 2963 2633 3030 
Q 2388 3097 2138 3097 
Q 1578 3097 1268 2742 
Q 959 2388 959 1747 
Q 959 1106 1268 751 
Q 1578 397 2138 397 
Q 2388 397 2633 464 
Q 2878 531 3122 666 
L 3122 134 
Q 2881 22 2623 -34 
Q 2366 -91 2075 -91 
Q 1284 -91 818 406 
Q 353 903 353 1747 
Q 353 2603 823 3093 
Q 1294 3584 2113 3584 
Q 2378 3584 2631 3529 
Q 2884 3475 3122 3366 
z
" transform="scale(0.015625)"/>
      <path id="DejaVuSans-75" d="M 544 1381 
L 544 3500 
L 1119 3500 
L 1119 1403 
Q 1119 906 1312 657 
Q 1506 409 1894 409 
Q 2359 409 2629 706 
Q 2900 1003 2900 1516 
L 2900 3500 
L 3475 3500 
L 3475 0 
L 2900 0 
L 2900 538 
Q 2691 219 2414 64 
Q 2138 -91 1772 -91 
Q 1169 -91 856 284 
Q 544 659 544 1381 
z
M 1991 3584 
L 1991 3584 
z
" transform="scale(0.015625)"/>
      <path id="DejaVuSans-61" d="M 2194 1759 
Q 1497 1759 1228 1600 
Q 959 1441 959 1056 
Q 959 750 1161 570 
Q 1363 391 1709 391 
Q 2188 391 2477 730 
Q 2766 1069 2766 1631 
L 2766 1759 
L 2194 1759 
z
M 3341 1997 
L 3341 0 
L 2766 0 
L 2766 531 
Q 2569 213 2275 61 
Q 1981 -91 1556 -91 
Q 1019 -91 701 211 
Q 384 513 384 1019 
Q 384 1609 779 1909 
Q 1175 2209 1959 2209 
L 2766 2209 
L 2766 2266 
Q 2766 2663 2505 2880 
Q 2244 3097 1772 3097 
Q 1472 3097 1187 3025 
Q 903 2953 641 2809 
L 641 3341 
Q 956 3463 1253 3523 
Q 1550 3584 1831 3584 
Q 2591 3584 2966 3190 
Q 3341 2797 3341 1997 
z
" transform="scale(0.015625)"/>
      <path id="DejaVuSans-72" d="M 2631 2963 
Q 2534 3019 2420 3045 
Q 2306 3072 2169 3072 
Q 1681 3072 1420 2755 
Q 1159 2438 1159 1844 
L 1159 0 
L 581 0 
L 581 3500 
L 1159 3500 
L 1159 2956 
Q 1341 3275 1631 3429 
Q 1922 3584 2338 3584 
Q 2397 3584 2469 3576 
Q 2541 3569 2628 3553 
L 2631 2963 
z
" transform="scale(0.015625)"/>
      <path id="DejaVuSans-20" transform="scale(0.015625)"/>
      <path id="DejaVuSans-68" d="M 3513 2113 
L 3513 0 
L 2938 0 
L 2938 2094 
Q 2938 2591 2744 2837 
Q 2550 3084 2163 3084 
Q 1697 3084 1428 2787 
Q 1159 2491 1159 1978 
L 1159 0 
L 581 0 
L 581 4863 
L 1159 4863 
L 1159 2956 
Q 1366 3272 1645 3428 
Q 1925 3584 2291 3584 
Q 2894 3584 3203 3211 
Q 3513 2838 3513 2113 
z
" transform="scale(0.015625)"/>
      <path id="DejaVuSans-6e" d="M 3513 2113 
L 3513 0 
L 2938 0 
L 2938 2094 
Q 2938 2591 2744 2837 
Q 2550 3084 2163 3084 
Q 1697 3084 1428 2787 
Q 1159 2491 1159 1978 
L 1159 0 
L 581 0 
L 581 3500 
L 1159 3500 
L 1159 2956 
Q 1366 3272 1645 3428 
Q 1925 3584 2291 3584 
Q 2894 3584 3203 3211 
Q 3513 2838 3513 2113 
z
" transform="scale(0.015625)"/>
      <path id="DejaVuSans-69" d="M 603 3500 
L 1178 3500 
L 1178 0 
L 603 0 
L 603 3500 
z
M 603 4863 
L 1178 4863 
L 1178 4134 
L 603 4134 
L 603 4863 
z
" transform="scale(0.015625)"/>
      <path id="DejaVuSans-73" d="M 2834 3397 
L 2834 2853 
Q 2591 2978 2328 3040 
Q 2066 3103 1784 3103 
Q 1356 3103 1142 2972 
Q 928 2841 928 2578 
Q 928 2378 1081 2264 
Q 1234 2150 1697 2047 
L 1894 2003 
Q 2506 1872 2764 1633 
Q 3022 1394 3022 966 
Q 3022 478 2636 193 
Q 2250 -91 1575 -91 
Q 1294 -91 989 -36 
Q 684 19 347 128 
L 347 722 
Q 666 556 975 473 
Q 1284 391 1588 391 
Q 1994 391 2212 530 
Q 2431 669 2431 922 
Q 2431 1156 2273 1281 
Q 2116 1406 1581 1522 
L 1381 1569 
Q 847 1681 609 1914 
Q 372 2147 372 2553 
Q 372 3047 722 3315 
Q 1072 3584 1716 3584 
Q 2034 3584 2315 3537 
Q 2597 3491 2834 3397 
z
" transform="scale(0.015625)"/>
      <path id="DejaVuSans-2f" d="M 1625 4666 
L 2156 4666 
L 531 -594 
L 0 -594 
L 1625 4666 
z
" transform="scale(0.015625)"/>
      <path id="DejaVuSans-47" d="M 3809 666 
L 3809 1919 
L 2778 1919 
L 2778 2438 
L 4434 2438 
L 4434 434 
Q 4069 175 3628 42 
Q 3188 -91 2688 -91 
Q 1594 -91 976 548 
Q 359 1188 359 2328 
Q 359 3472 976 4111 
Q 1594 4750 2688 4750 
Q 3144 4750 3555 4637 
Q 3966 4525 4313 4306 
L 4313 3634 
Q 3963 3931 3569 4081 
Q 3175 4231 2741 4231 
Q 1884 4231 1454 3753 
Q 1025 3275 1025 2328 
Q 1025 1384 1454 906 
Q 1884 428 2741 428 
Q 3075 428 3337 486 
Q 3600 544 3809 666 
z
" transform="scale(0.015625)"/>
      <path id="DejaVuSans-7a" d="M 353 3500 
L 3084 3500 
L 3084 2975 
L 922 459 
L 3084 459 
L 3084 0 
L 275 0 
L 275 525 
L 2438 3041 
L 353 3041 
L 353 3500 
z
" transform="scale(0.015625)"/>
      <path id="DejaVuSans-64" d="M 2906 2969 
L 2906 4863 
L 3481 4863 
L 3481 0 
L 2906 0 
L 2906 525 
Q 2725 213 2448 61 
Q 2172 -91 1784 -91 
Q 1150 -91 751 415 
Q 353 922 353 1747 
Q 353 2572 751 3078 
Q 1150 3584 1784 3584 
Q 2172 3584 2448 3432 
Q 2725 3281 2906 2969 
z
M 947 1747 
Q 947 1113 1208 752 
Q 1469 391 1925 391 
Q 2381 391 2643 752 
Q 2906 1113 2906 1747 
Q 2906 2381 2643 2742 
Q 2381 3103 1925 3103 
Q 1469 3103 1208 2742 
Q 947 2381 947 1747 
z
" transform="scale(0.015625)"/>
      <path id="DejaVuSans-42" d="M 1259 2228 
L 1259 519 
L 2272 519 
Q 2781 519 3026 730 
Q 3272 941 3272 1375 
Q 3272 1813 3026 2020 
Q 2781 2228 2272 2228 
L 1259 2228 
z
M 1259 4147 
L 1259 2741 
L 2194 2741 
Q 2656 2741 2882 2914 
Q 3109 3088 3109 3444 
Q 3109 3797 2882 3972 
Q 2656 4147 2194 4147 
L 1259 4147 
z
M 628 4666 
L 2241 4666 
Q 2963 4666 3353 4366 
Q 3744 4066 3744 3513 
Q 3744 3084 3544 2831 
Q 3344 2578 2956 2516 
Q 3422 2416 3680 2098 
Q 3938 1781 3938 1306 
Q 3938 681 3513 340 
Q 3088 0 2303 0 
L 628 0 
L 628 4666 
z
" transform="scale(0.015625)"/>
      <path id="DejaVuSans-53" d="M 3425 4513 
L 3425 3897 
Q 3066 4069 2747 4153 
Q 2428 4238 2131 4238 
Q 1616 4238 1336 4038 
Q 1056 3838 1056 3469 
Q 1056 3159 1242 3001 
Q 1428 2844 1947 2747 
L 2328 2669 
Q 3034 2534 3370 2195 
Q 3706 1856 3706 1288 
Q 3706 609 3251 259 
Q 2797 -91 1919 -91 
Q 1588 -91 1214 -16 
Q 841 59 441 206 
L 441 856 
Q 825 641 1194 531 
Q 1563 422 1919 422 
Q 2459 422 2753 634 
Q 3047 847 3047 1241 
Q 3047 1584 2836 1778 
Q 2625 1972 2144 2069 
L 1759 2144 
Q 1053 2284 737 2584 
Q 422 2884 422 3419 
Q 422 4038 858 4394 
Q 1294 4750 2059 4750 
Q 2388 4750 2728 4690 
Q 3069 4631 3425 4513 
z
" transform="scale(0.015625)"/>
      <path id="DejaVuSans-66" d="M 2375 4863 
L 2375 4384 
L 1825 4384 
Q 1516 4384 1395 4259 
Q 1275 4134 1275 3809 
L 1275 3500 
L 2222 3500 
L 2222 3053 
L 1275 3053 
L 1275 0 
L 697 0 
L 697 3053 
L 147 3053 
L 147 3500 
L 697 3500 
L 697 3744 
Q 697 4328 969 4595 
Q 1241 4863 1831 4863 
L 2375 4863 
z
" transform="scale(0.015625)"/>
      <path id="DejaVuSans-41" d="M 2188 4044 
L 1331 1722 
L 3047 1722 
L 2188 4044 
z
M 1831 4666 
L 2547 4666 
L 4325 0 
L 3669 0 
L 3244 1197 
L 1141 1197 
L 716 0 
L 50 0 
L 1831 4666 
z
" transform="scale(0.015625)"/>
     </defs>
     <use xlink:href="#DejaVuSans-4d"/>
     <use xlink:href="#DejaVuSans-6f" transform="translate(86.279297 0)"/>
     <use xlink:href="#DejaVuSans-6c" transform="translate(147.460938 0)"/>
     <use xlink:href="#DejaVuSans-65" transform="translate(175.244141 0)"/>
     <use xlink:href="#DejaVuSans-63" transform="translate(236.767578 0)"/>
     <use xlink:href="#DejaVuSans-75" transform="translate(291.748047 0)"/>
     <use xlink:href="#DejaVuSans-6c" transform="translate(355.126953 0)"/>
     <use xlink:href="#DejaVuSans-61" transform="translate(382.910156 0)"/>
     <use xlink:href="#DejaVuSans-72" transform="translate(444.189453 0)"/>
     <use xlink:href="#DejaVuSans-20" transform="translate(485.302734 0)"/>
     <use xlink:href="#DejaVuSans-4d" transform="translate(517.089844 0)"/>
     <use xlink:href="#DejaVuSans-65" transform="translate(603.369141 0)"/>
     <use xlink:href="#DejaVuSans-63" transform="translate(664.892578 0)"/>
     <use xlink:href="#DejaVuSans-68" transform="translate(719.873047 0)"/>
     <use xlink:href="#DejaVuSans-61" transform="translate(783.251953 0)"/>
     <use xlink:href="#DejaVuSans-6e" transform="translate(844.53125 0)"/>
     <use xlink:href="#DejaVuSans-69" transform="translate(907.910156 0)"/>
     <use xlink:href="#DejaVuSans-63" transform="translate(935.693359 0)"/>
     <use xlink:href="#DejaVuSans-73" transform="translate(990.673828 0)"/>
     <use xlink:href="#DejaVuSans-20" transform="translate(1042.773438 0)"/>
     <use xlink:href="#DejaVuSans-2f" transform="translate(1074.560547 0)"/>
     <use xlink:href="#DejaVuSans-20" transform="translate(1108.251953 0)"/>
     <use xlink:href="#DejaVuSans-47" transform="translate(1140.039062 0)"/>
     <use xlink:href="#DejaVuSans-65" transform="translate(1217.529297 0)"/>
     <use xlink:href="#DejaVuSans-6e" transform="translate(1279.052734 0)"/>
     <use xlink:href="#DejaVuSans-65" transform="translate(1342.431641 0)"/>
     <use xlink:href="#DejaVuSans-72" transform="translate(1403.955078 0)"/>
     <use xlink:href="#DejaVuSans-61" transform="translate(1445.068359 0)"/>
     <use xlink:href="#DejaVuSans-6c" transform="translate(1506.347656 0)"/>
     <use xlink:href="#DejaVuSans-69" transform="translate(1534.130859 0)"/>
     <use xlink:href="#DejaVuSans-7a" transform="translate(1561.914062 0)"/>
     <use xlink:href="#DejaVuSans-65" transform="translate(1614.404297 0)"/>
     <use xlink:href="#DejaVuSans-64" transform="translate(1675.927734 0)"/>
     <use xlink:href="#DejaVuSans-20" transform="translate(1739.404297 0)"/>
     <use xlink:href="#DejaVuSans-42" transform="translate(1771.191406 0)"/>
     <use xlink:href="#DejaVuSans-6f" transform="translate(1839.794922 0)"/>
     <use xlink:href="#DejaVuSans-72" transform="translate(1900.976562 0)"/>
     <use xlink:href="#DejaVuSans-6e" transform="translate(1940.339844 0)"/>
     <use xlink:href="#DejaVuSans-20" transform="translate(2003.71875 0)"/>
     <use xlink:href="#DejaVuSans-53" transform="translate(2035.505859 0)"/>
     <use xlink:href="#DejaVuSans-75" transform="translate(2098.982422 0)"/>
     <use xlink:href="#DejaVuSans-72" transform="translate(2162.361328 0)"/>
     <use xlink:href="#DejaVuSans-66" transform="translate(2203.474609 0)"/>
     <use xlink:href="#DejaVuSans-61" transform="translate(2238.679688 0)"/>
     <use xlink:href="#DejaVuSans-63" transform="translate(2299.958984 0)"/>
     <use xlink:href="#DejaVuSans-65" transform="translate(2354.939453 0)"/>
     <use xlink:href="#DejaVuSans-20" transform="translate(2416.462891 0)"/>
     <use xlink:href="#DejaVuSans-41" transform="translate(2448.25 0)"/>
     <use xlink:href="#DejaVuSans-72" transform="translate(2516.658203 0)"/>
     <use xlink:href="#DejaVuSans-65" transform="translate(2555.521484 0)"/>
     <use xlink:href="#DejaVuSans-61" transform="translate(2617.044922 0)"/>
    </g>
   </g>
  </g>
 </g>
 <defs>
  <clipPath id="p14e88a1d9b">
   <rect x="7.2" y="7.2" width="554.4" height="332.64"/>
  </clipPath>
 </defs>
</svg>
