<?xml version="1.0" encoding="utf-8" standalone="no"?>
<!DOCTYPE svg PUBLIC "-//W3C//DTD SVG 1.1//EN"
  "http://www.w3.org/Graphics/SVG/1.1/DTD/svg11.dtd">
<svg xmlns:xlink="http://www.w3.org/1999/xlink" width="457.92pt" height="347.04pt" viewBox="0 0 457.92 347.04" xmlns="http://www.w3.org/2000/svg" version="1.1">
 <metadata>
  <rdf:RDF xmlns:dc="http://purl.org/dc/elements/1.1/" xmlns:cc="http://creativecommons.org/ns#" xmlns:rdf="http://www.w3.org/1999/02/22-rdf-syntax-ns#">
   <cc:Work>
    <dc:type rdf:resource="http://purl.org/dc/dcmitype/StillImage"/>
    <dc:date>2025-07-20T22:24:33.556303</dc:date>
    <dc:format>image/svg+xml</dc:format>
    <dc:creator>
     <cc:Agent>
      <dc:title>Matplotlib v3.9.4, https://matplotlib.org/</dc:title>
     </cc:Agent>
    </dc:creator>
   </cc:Work>
  </rdf:RDF>
 </metadata>
 <defs>
  <style type="text/css">*{stroke-linejoin: round; stroke-linecap: butt}</style>
 </defs>
 <g id="figure_1">
  <g id="patch_1">
   <path d="M 0 347.04 
L 457.92 347.04 
L 457.92 -0 
L 0 -0 
L 0 347.04 
z
" style="fill: none"/>
  </g>
  <g id="axes_1">
   <g id="patch_2">
    <path d="M 7.2 339.84 
L 450.72 339.84 
L 450.72 336.5136 
L 7.2 336.5136 
L 7.2 339.84 
z
" clip-path="url(#p8656afc5fd)" style="fill: none"/>
   </g>
   <g id="patch_3">
    <path d="M 7.2 336.5136 
L 450.72 336.5136 
L 450.72 333.1872 
L 7.2 333.1872 
z
" clip-path="url(#p8656afc5fd)" style="fill: #1a3366; fill-opacity: 0.00303"/>
   </g>
   <g id="patch_4">
    <path d="M 7.2 333.1872 
L 450.72 333.1872 
L 450.72 329.8608 
L 7.2 329.8608 
z
" clip-path="url(#p8656afc5fd)" style="fill: #1a3366; fill-opacity: 0.006061"/>
   </g>
   <g id="patch_5">
    <path d="M 7.2 329.8608 
L 450.72 329.8608 
L 450.72 326.5344 
L 7.2 326.5344 
z
" clip-path="url(#p8656afc5fd)" style="fill: #1a3366; fill-opacity: 0.009091"/>
   </g>
   <g id="patch_6">
    <path d="M 7.2 326.5344 
L 450.72 326.5344 
L 450.72 323.208 
L 7.2 323.208 
z
" clip-path="url(#p8656afc5fd)" style="fill: #1a3366; fill-opacity: 0.012121"/>
   </g>
   <g id="patch_7">
    <path d="M 7.2 323.208 
L 450.72 323.208 
L 450.72 319.8816 
L 7.2 319.8816 
z
" clip-path="url(#p8656afc5fd)" style="fill: #1a3366; fill-opacity: 0.015152"/>
   </g>
   <g id="patch_8">
    <path d="M 7.2 319.8816 
L 450.72 319.8816 
L 450.72 316.5552 
L 7.2 316.5552 
z
" clip-path="url(#p8656afc5fd)" style="fill: #1a3366; fill-opacity: 0.018182"/>
   </g>
   <g id="patch_9">
    <path d="M 7.2 316.5552 
L 450.72 316.5552 
L 450.72 313.2288 
L 7.2 313.2288 
z
" clip-path="url(#p8656afc5fd)" style="fill: #1a3366; fill-opacity: 0.021212"/>
   </g>
   <g id="patch_10">
    <path d="M 7.2 313.2288 
L 450.72 313.2288 
L 450.72 309.9024 
L 7.2 309.9024 
z
" clip-path="url(#p8656afc5fd)" style="fill: #1a3366; fill-opacity: 0.024242"/>
   </g>
   <g id="patch_11">
    <path d="M 7.2 309.9024 
L 450.72 309.9024 
L 450.72 306.576 
L 7.2 306.576 
z
" clip-path="url(#p8656afc5fd)" style="fill: #1a3366; fill-opacity: 0.027273"/>
   </g>
   <g id="patch_12">
    <path d="M 7.2 306.576 
L 450.72 306.576 
L 450.72 303.2496 
L 7.2 303.2496 
z
" clip-path="url(#p8656afc5fd)" style="fill: #1a3366; fill-opacity: 0.030303"/>
   </g>
   <g id="patch_13">
    <path d="M 7.2 303.2496 
L 450.72 303.2496 
L 450.72 299.9232 
L 7.2 299.9232 
z
" clip-path="url(#p8656afc5fd)" style="fill: #1a3366; fill-opacity: 0.033333"/>
   </g>
   <g id="patch_14">
    <path d="M 7.2 299.9232 
L 450.72 299.9232 
L 450.72 296.5968 
L 7.2 296.5968 
z
" clip-path="url(#p8656afc5fd)" style="fill: #1a3366; fill-opacity: 0.036364"/>
   </g>
   <g id="patch_15">
    <path d="M 7.2 296.5968 
L 450.72 296.5968 
L 450.72 293.2704 
L 7.2 293.2704 
z
" clip-path="url(#p8656afc5fd)" style="fill: #1a3366; fill-opacity: 0.039394"/>
   </g>
   <g id="patch_16">
    <path d="M 7.2 293.2704 
L 450.72 293.2704 
L 450.72 289.944 
L 7.2 289.944 
z
" clip-path="url(#p8656afc5fd)" style="fill: #1a3366; fill-opacity: 0.042424"/>
   </g>
   <g id="patch_17">
    <path d="M 7.2 289.944 
L 450.72 289.944 
L 450.72 286.6176 
L 7.2 286.6176 
z
" clip-path="url(#p8656afc5fd)" style="fill: #1a3366; fill-opacity: 0.045455"/>
   </g>
   <g id="patch_18">
    <path d="M 7.2 286.6176 
L 450.72 286.6176 
L 450.72 283.2912 
L 7.2 283.2912 
z
" clip-path="url(#p8656afc5fd)" style="fill: #1a3366; fill-opacity: 0.048485"/>
   </g>
   <g id="patch_19">
    <path d="M 7.2 283.2912 
L 450.72 283.2912 
L 450.72 279.9648 
L 7.2 279.9648 
z
" clip-path="url(#p8656afc5fd)" style="fill: #1a3366; fill-opacity: 0.051515"/>
   </g>
   <g id="patch_20">
    <path d="M 7.2 279.9648 
L 450.72 279.9648 
L 450.72 276.6384 
L 7.2 276.6384 
z
" clip-path="url(#p8656afc5fd)" style="fill: #1a3366; fill-opacity: 0.054545"/>
   </g>
   <g id="patch_21">
    <path d="M 7.2 276.6384 
L 450.72 276.6384 
L 450.72 273.312 
L 7.2 273.312 
z
" clip-path="url(#p8656afc5fd)" style="fill: #1a3366; fill-opacity: 0.057576"/>
   </g>
   <g id="patch_22">
    <path d="M 7.2 273.312 
L 450.72 273.312 
L 450.72 269.9856 
L 7.2 269.9856 
z
" clip-path="url(#p8656afc5fd)" style="fill: #1a3366; fill-opacity: 0.060606"/>
   </g>
   <g id="patch_23">
    <path d="M 7.2 269.9856 
L 450.72 269.9856 
L 450.72 266.6592 
L 7.2 266.6592 
z
" clip-path="url(#p8656afc5fd)" style="fill: #1a3366; fill-opacity: 0.063636"/>
   </g>
   <g id="patch_24">
    <path d="M 7.2 266.6592 
L 450.72 266.6592 
L 450.72 263.3328 
L 7.2 263.3328 
z
" clip-path="url(#p8656afc5fd)" style="fill: #1a3366; fill-opacity: 0.066667"/>
   </g>
   <g id="patch_25">
    <path d="M 7.2 263.3328 
L 450.72 263.3328 
L 450.72 260.0064 
L 7.2 260.0064 
z
" clip-path="url(#p8656afc5fd)" style="fill: #1a3366; fill-opacity: 0.069697"/>
   </g>
   <g id="patch_26">
    <path d="M 7.2 260.0064 
L 450.72 260.0064 
L 450.72 256.68 
L 7.2 256.68 
z
" clip-path="url(#p8656afc5fd)" style="fill: #1a3366; fill-opacity: 0.072727"/>
   </g>
   <g id="patch_27">
    <path d="M 7.2 256.68 
L 450.72 256.68 
L 450.72 253.3536 
L 7.2 253.3536 
z
" clip-path="url(#p8656afc5fd)" style="fill: #1a3366; fill-opacity: 0.075758"/>
   </g>
   <g id="patch_28">
    <path d="M 7.2 253.3536 
L 450.72 253.3536 
L 450.72 250.0272 
L 7.2 250.0272 
z
" clip-path="url(#p8656afc5fd)" style="fill: #1a3366; fill-opacity: 0.078788"/>
   </g>
   <g id="patch_29">
    <path d="M 7.2 250.0272 
L 450.72 250.0272 
L 450.72 246.7008 
L 7.2 246.7008 
z
" clip-path="url(#p8656afc5fd)" style="fill: #1a3366; fill-opacity: 0.081818"/>
   </g>
   <g id="patch_30">
    <path d="M 7.2 246.7008 
L 450.72 246.7008 
L 450.72 243.3744 
L 7.2 243.3744 
z
" clip-path="url(#p8656afc5fd)" style="fill: #1a3366; fill-opacity: 0.084848"/>
   </g>
   <g id="patch_31">
    <path d="M 7.2 243.3744 
L 450.72 243.3744 
L 450.72 240.048 
L 7.2 240.048 
z
" clip-path="url(#p8656afc5fd)" style="fill: #1a3366; fill-opacity: 0.087879"/>
   </g>
   <g id="patch_32">
    <path d="M 7.2 240.048 
L 450.72 240.048 
L 450.72 236.7216 
L 7.2 236.7216 
z
" clip-path="url(#p8656afc5fd)" style="fill: #1a3366; fill-opacity: 0.090909"/>
   </g>
   <g id="patch_33">
    <path d="M 7.2 236.7216 
L 450.72 236.7216 
L 450.72 233.3952 
L 7.2 233.3952 
z
" clip-path="url(#p8656afc5fd)" style="fill: #1a3366; fill-opacity: 0.093939"/>
   </g>
   <g id="patch_34">
    <path d="M 7.2 233.3952 
L 450.72 233.3952 
L 450.72 230.0688 
L 7.2 230.0688 
z
" clip-path="url(#p8656afc5fd)" style="fill: #1a3366; fill-opacity: 0.09697"/>
   </g>
   <g id="patch_35">
    <path d="M 7.2 230.0688 
L 450.72 230.0688 
L 450.72 226.7424 
L 7.2 226.7424 
z
" clip-path="url(#p8656afc5fd)" style="fill: #1a3366; fill-opacity: 0.1"/>
   </g>
   <g id="patch_36">
    <path d="M 7.2 226.7424 
L 450.72 226.7424 
L 450.72 223.416 
L 7.2 223.416 
z
" clip-path="url(#p8656afc5fd)" style="fill: #1a3366; fill-opacity: 0.10303"/>
   </g>
   <g id="patch_37">
    <path d="M 7.2 223.416 
L 450.72 223.416 
L 450.72 220.0896 
L 7.2 220.0896 
z
" clip-path="url(#p8656afc5fd)" style="fill: #1a3366; fill-opacity: 0.106061"/>
   </g>
   <g id="patch_38">
    <path d="M 7.2 220.0896 
L 450.72 220.0896 
L 450.72 216.7632 
L 7.2 216.7632 
z
" clip-path="url(#p8656afc5fd)" style="fill: #1a3366; fill-opacity: 0.109091"/>
   </g>
   <g id="patch_39">
    <path d="M 7.2 216.7632 
L 450.72 216.7632 
L 450.72 213.4368 
L 7.2 213.4368 
z
" clip-path="url(#p8656afc5fd)" style="fill: #1a3366; fill-opacity: 0.112121"/>
   </g>
   <g id="patch_40">
    <path d="M 7.2 213.4368 
L 450.72 213.4368 
L 450.72 210.1104 
L 7.2 210.1104 
z
" clip-path="url(#p8656afc5fd)" style="fill: #1a3366; fill-opacity: 0.115152"/>
   </g>
   <g id="patch_41">
    <path d="M 7.2 210.1104 
L 450.72 210.1104 
L 450.72 206.784 
L 7.2 206.784 
z
" clip-path="url(#p8656afc5fd)" style="fill: #1a3366; fill-opacity: 0.118182"/>
   </g>
   <g id="patch_42">
    <path d="M 7.2 206.784 
L 450.72 206.784 
L 450.72 203.4576 
L 7.2 203.4576 
z
" clip-path="url(#p8656afc5fd)" style="fill: #1a3366; fill-opacity: 0.121212"/>
   </g>
   <g id="patch_43">
    <path d="M 7.2 203.4576 
L 450.72 203.4576 
L 450.72 200.1312 
L 7.2 200.1312 
z
" clip-path="url(#p8656afc5fd)" style="fill: #1a3366; fill-opacity: 0.124242"/>
   </g>
   <g id="patch_44">
    <path d="M 7.2 200.1312 
L 450.72 200.1312 
L 450.72 196.8048 
L 7.2 196.8048 
z
" clip-path="url(#p8656afc5fd)" style="fill: #1a3366; fill-opacity: 0.127273"/>
   </g>
   <g id="patch_45">
    <path d="M 7.2 196.8048 
L 450.72 196.8048 
L 450.72 193.4784 
L 7.2 193.4784 
z
" clip-path="url(#p8656afc5fd)" style="fill: #1a3366; fill-opacity: 0.130303"/>
   </g>
   <g id="patch_46">
    <path d="M 7.2 193.4784 
L 450.72 193.4784 
L 450.72 190.152 
L 7.2 190.152 
z
" clip-path="url(#p8656afc5fd)" style="fill: #1a3366; fill-opacity: 0.133333"/>
   </g>
   <g id="patch_47">
    <path d="M 7.2 190.152 
L 450.72 190.152 
L 450.72 186.8256 
L 7.2 186.8256 
z
" clip-path="url(#p8656afc5fd)" style="fill: #1a3366; fill-opacity: 0.136364"/>
   </g>
   <g id="patch_48">
    <path d="M 7.2 186.8256 
L 450.72 186.8256 
L 450.72 183.4992 
L 7.2 183.4992 
z
" clip-path="url(#p8656afc5fd)" style="fill: #1a3366; fill-opacity: 0.139394"/>
   </g>
   <g id="patch_49">
    <path d="M 7.2 183.4992 
L 450.72 183.4992 
L 450.72 180.1728 
L 7.2 180.1728 
z
" clip-path="url(#p8656afc5fd)" style="fill: #1a3366; fill-opacity: 0.142424"/>
   </g>
   <g id="patch_50">
    <path d="M 7.2 180.1728 
L 450.72 180.1728 
L 450.72 176.8464 
L 7.2 176.8464 
z
" clip-path="url(#p8656afc5fd)" style="fill: #1a3366; fill-opacity: 0.145455"/>
   </g>
   <g id="patch_51">
    <path d="M 7.2 176.8464 
L 450.72 176.8464 
L 450.72 173.52 
L 7.2 173.52 
z
" clip-path="url(#p8656afc5fd)" style="fill: #1a3366; fill-opacity: 0.148485"/>
   </g>
   <g id="patch_52">
    <path d="M 7.2 173.52 
L 450.72 173.52 
L 450.72 170.1936 
L 7.2 170.1936 
z
" clip-path="url(#p8656afc5fd)" style="fill: #1a3366; fill-opacity: 0.151515"/>
   </g>
   <g id="patch_53">
    <path d="M 7.2 170.1936 
L 450.72 170.1936 
L 450.72 166.8672 
L 7.2 166.8672 
z
" clip-path="url(#p8656afc5fd)" style="fill: #1a3366; fill-opacity: 0.154545"/>
   </g>
   <g id="patch_54">
    <path d="M 7.2 166.8672 
L 450.72 166.8672 
L 450.72 163.5408 
L 7.2 163.5408 
z
" clip-path="url(#p8656afc5fd)" style="fill: #1a3366; fill-opacity: 0.157576"/>
   </g>
   <g id="patch_55">
    <path d="M 7.2 163.5408 
L 450.72 163.5408 
L 450.72 160.2144 
L 7.2 160.2144 
z
" clip-path="url(#p8656afc5fd)" style="fill: #1a3366; fill-opacity: 0.160606"/>
   </g>
   <g id="patch_56">
    <path d="M 7.2 160.2144 
L 450.72 160.2144 
L 450.72 156.888 
L 7.2 156.888 
z
" clip-path="url(#p8656afc5fd)" style="fill: #1a3366; fill-opacity: 0.163636"/>
   </g>
   <g id="patch_57">
    <path d="M 7.2 156.888 
L 450.72 156.888 
L 450.72 153.5616 
L 7.2 153.5616 
z
" clip-path="url(#p8656afc5fd)" style="fill: #1a3366; fill-opacity: 0.166667"/>
   </g>
   <g id="patch_58">
    <path d="M 7.2 153.5616 
L 450.72 153.5616 
L 450.72 150.2352 
L 7.2 150.2352 
z
" clip-path="url(#p8656afc5fd)" style="fill: #1a3366; fill-opacity: 0.169697"/>
   </g>
   <g id="patch_59">
    <path d="M 7.2 150.2352 
L 450.72 150.2352 
L 450.72 146.9088 
L 7.2 146.9088 
z
" clip-path="url(#p8656afc5fd)" style="fill: #1a3366; fill-opacity: 0.172727"/>
   </g>
   <g id="patch_60">
    <path d="M 7.2 146.9088 
L 450.72 146.9088 
L 450.72 143.5824 
L 7.2 143.5824 
z
" clip-path="url(#p8656afc5fd)" style="fill: #1a3366; fill-opacity: 0.175758"/>
   </g>
   <g id="patch_61">
    <path d="M 7.2 143.5824 
L 450.72 143.5824 
L 450.72 140.256 
L 7.2 140.256 
z
" clip-path="url(#p8656afc5fd)" style="fill: #1a3366; fill-opacity: 0.178788"/>
   </g>
   <g id="patch_62">
    <path d="M 7.2 140.256 
L 450.72 140.256 
L 450.72 136.9296 
L 7.2 136.9296 
z
" clip-path="url(#p8656afc5fd)" style="fill: #1a3366; fill-opacity: 0.181818"/>
   </g>
   <g id="patch_63">
    <path d="M 7.2 136.9296 
L 450.72 136.9296 
L 450.72 133.6032 
L 7.2 133.6032 
z
" clip-path="url(#p8656afc5fd)" style="fill: #1a3366; fill-opacity: 0.184848"/>
   </g>
   <g id="patch_64">
    <path d="M 7.2 133.6032 
L 450.72 133.6032 
L 450.72 130.2768 
L 7.2 130.2768 
z
" clip-path="url(#p8656afc5fd)" style="fill: #1a3366; fill-opacity: 0.187879"/>
   </g>
   <g id="patch_65">
    <path d="M 7.2 130.2768 
L 450.72 130.2768 
L 450.72 126.9504 
L 7.2 126.9504 
z
" clip-path="url(#p8656afc5fd)" style="fill: #1a3366; fill-opacity: 0.190909"/>
   </g>
   <g id="patch_66">
    <path d="M 7.2 126.9504 
L 450.72 126.9504 
L 450.72 123.624 
L 7.2 123.624 
z
" clip-path="url(#p8656afc5fd)" style="fill: #1a3366; fill-opacity: 0.193939"/>
   </g>
   <g id="patch_67">
    <path d="M 7.2 123.624 
L 450.72 123.624 
L 450.72 120.2976 
L 7.2 120.2976 
z
" clip-path="url(#p8656afc5fd)" style="fill: #1a3366; fill-opacity: 0.19697"/>
   </g>
   <g id="patch_68">
    <path d="M 7.2 120.2976 
L 450.72 120.2976 
L 450.72 116.9712 
L 7.2 116.9712 
z
" clip-path="url(#p8656afc5fd)" style="fill: #1a3366; fill-opacity: 0.2"/>
   </g>
   <g id="patch_69">
    <path d="M 7.2 116.9712 
L 450.72 116.9712 
L 450.72 113.6448 
L 7.2 113.6448 
z
" clip-path="url(#p8656afc5fd)" style="fill: #1a3366; fill-opacity: 0.20303"/>
   </g>
   <g id="patch_70">
    <path d="M 7.2 113.6448 
L 450.72 113.6448 
L 450.72 110.3184 
L 7.2 110.3184 
z
" clip-path="url(#p8656afc5fd)" style="fill: #1a3366; fill-opacity: 0.206061"/>
   </g>
   <g id="patch_71">
    <path d="M 7.2 110.3184 
L 450.72 110.3184 
L 450.72 106.992 
L 7.2 106.992 
z
" clip-path="url(#p8656afc5fd)" style="fill: #1a3366; fill-opacity: 0.209091"/>
   </g>
   <g id="patch_72">
    <path d="M 7.2 106.992 
L 450.72 106.992 
L 450.72 103.6656 
L 7.2 103.6656 
z
" clip-path="url(#p8656afc5fd)" style="fill: #1a3366; fill-opacity: 0.212121"/>
   </g>
   <g id="patch_73">
    <path d="M 7.2 103.6656 
L 450.72 103.6656 
L 450.72 100.3392 
L 7.2 100.3392 
z
" clip-path="url(#p8656afc5fd)" style="fill: #1a3366; fill-opacity: 0.215152"/>
   </g>
   <g id="patch_74">
    <path d="M 7.2 100.3392 
L 450.72 100.3392 
L 450.72 97.0128 
L 7.2 97.0128 
z
" clip-path="url(#p8656afc5fd)" style="fill: #1a3366; fill-opacity: 0.218182"/>
   </g>
   <g id="patch_75">
    <path d="M 7.2 97.0128 
L 450.72 97.0128 
L 450.72 93.6864 
L 7.2 93.6864 
z
" clip-path="url(#p8656afc5fd)" style="fill: #1a3366; fill-opacity: 0.221212"/>
   </g>
   <g id="patch_76">
    <path d="M 7.2 93.6864 
L 450.72 93.6864 
L 450.72 90.36 
L 7.2 90.36 
z
" clip-path="url(#p8656afc5fd)" style="fill: #1a3366; fill-opacity: 0.224242"/>
   </g>
   <g id="patch_77">
    <path d="M 7.2 90.36 
L 450.72 90.36 
L 450.72 87.0336 
L 7.2 87.0336 
z
" clip-path="url(#p8656afc5fd)" style="fill: #1a3366; fill-opacity: 0.227273"/>
   </g>
   <g id="patch_78">
    <path d="M 7.2 87.0336 
L 450.72 87.0336 
L 450.72 83.7072 
L 7.2 83.7072 
z
" clip-path="url(#p8656afc5fd)" style="fill: #1a3366; fill-opacity: 0.230303"/>
   </g>
   <g id="patch_79">
    <path d="M 7.2 83.7072 
L 450.72 83.7072 
L 450.72 80.3808 
L 7.2 80.3808 
z
" clip-path="url(#p8656afc5fd)" style="fill: #1a3366; fill-opacity: 0.233333"/>
   </g>
   <g id="patch_80">
    <path d="M 7.2 80.3808 
L 450.72 80.3808 
L 450.72 77.0544 
L 7.2 77.0544 
z
" clip-path="url(#p8656afc5fd)" style="fill: #1a3366; fill-opacity: 0.236364"/>
   </g>
   <g id="patch_81">
    <path d="M 7.2 77.0544 
L 450.72 77.0544 
L 450.72 73.728 
L 7.2 73.728 
z
" clip-path="url(#p8656afc5fd)" style="fill: #1a3366; fill-opacity: 0.239394"/>
   </g>
   <g id="patch_82">
    <path d="M 7.2 73.728 
L 450.72 73.728 
L 450.72 70.4016 
L 7.2 70.4016 
z
" clip-path="url(#p8656afc5fd)" style="fill: #1a3366; fill-opacity: 0.242424"/>
   </g>
   <g id="patch_83">
    <path d="M 7.2 70.4016 
L 450.72 70.4016 
L 450.72 67.0752 
L 7.2 67.0752 
z
" clip-path="url(#p8656afc5fd)" style="fill: #1a3366; fill-opacity: 0.245455"/>
   </g>
   <g id="patch_84">
    <path d="M 7.2 67.0752 
L 450.72 67.0752 
L 450.72 63.7488 
L 7.2 63.7488 
z
" clip-path="url(#p8656afc5fd)" style="fill: #1a3366; fill-opacity: 0.248485"/>
   </g>
   <g id="patch_85">
    <path d="M 7.2 63.7488 
L 450.72 63.7488 
L 450.72 60.4224 
L 7.2 60.4224 
z
" clip-path="url(#p8656afc5fd)" style="fill: #1a3366; fill-opacity: 0.251515"/>
   </g>
   <g id="patch_86">
    <path d="M 7.2 60.4224 
L 450.72 60.4224 
L 450.72 57.096 
L 7.2 57.096 
z
" clip-path="url(#p8656afc5fd)" style="fill: #1a3366; fill-opacity: 0.254545"/>
   </g>
   <g id="patch_87">
    <path d="M 7.2 57.096 
L 450.72 57.096 
L 450.72 53.7696 
L 7.2 53.7696 
z
" clip-path="url(#p8656afc5fd)" style="fill: #1a3366; fill-opacity: 0.257576"/>
   </g>
   <g id="patch_88">
    <path d="M 7.2 53.7696 
L 450.72 53.7696 
L 450.72 50.4432 
L 7.2 50.4432 
z
" clip-path="url(#p8656afc5fd)" style="fill: #1a3366; fill-opacity: 0.260606"/>
   </g>
   <g id="patch_89">
    <path d="M 7.2 50.4432 
L 450.72 50.4432 
L 450.72 47.1168 
L 7.2 47.1168 
z
" clip-path="url(#p8656afc5fd)" style="fill: #1a3366; fill-opacity: 0.263636"/>
   </g>
   <g id="patch_90">
    <path d="M 7.2 47.1168 
L 450.72 47.1168 
L 450.72 43.7904 
L 7.2 43.7904 
z
" clip-path="url(#p8656afc5fd)" style="fill: #1a3366; fill-opacity: 0.266667"/>
   </g>
   <g id="patch_91">
    <path d="M 7.2 43.7904 
L 450.72 43.7904 
L 450.72 40.464 
L 7.2 40.464 
z
" clip-path="url(#p8656afc5fd)" style="fill: #1a3366; fill-opacity: 0.269697"/>
   </g>
   <g id="patch_92">
    <path d="M 7.2 40.464 
L 450.72 40.464 
L 450.72 37.1376 
L 7.2 37.1376 
z
" clip-path="url(#p8656afc5fd)" style="fill: #1a3366; fill-opacity: 0.272727"/>
   </g>
   <g id="patch_93">
    <path d="M 7.2 37.1376 
L 450.72 37.1376 
L 450.72 33.8112 
L 7.2 33.8112 
z
" clip-path="url(#p8656afc5fd)" style="fill: #1a3366; fill-opacity: 0.275758"/>
   </g>
   <g id="patch_94">
    <path d="M 7.2 33.8112 
L 450.72 33.8112 
L 450.72 30.4848 
L 7.2 30.4848 
z
" clip-path="url(#p8656afc5fd)" style="fill: #1a3366; fill-opacity: 0.278788"/>
   </g>
   <g id="patch_95">
    <path d="M 7.2 30.4848 
L 450.72 30.4848 
L 450.72 27.1584 
L 7.2 27.1584 
z
" clip-path="url(#p8656afc5fd)" style="fill: #1a3366; fill-opacity: 0.281818"/>
   </g>
   <g id="patch_96">
    <path d="M 7.2 27.1584 
L 450.72 27.1584 
L 450.72 23.832 
L 7.2 23.832 
z
" clip-path="url(#p8656afc5fd)" style="fill: #1a3366; fill-opacity: 0.284848"/>
   </g>
   <g id="patch_97">
    <path d="M 7.2 23.832 
L 450.72 23.832 
L 450.72 20.5056 
L 7.2 20.5056 
z
" clip-path="url(#p8656afc5fd)" style="fill: #1a3366; fill-opacity: 0.287879"/>
   </g>
   <g id="patch_98">
    <path d="M 7.2 20.5056 
L 450.72 20.5056 
L 450.72 17.1792 
L 7.2 17.1792 
z
" clip-path="url(#p8656afc5fd)" style="fill: #1a3366; fill-opacity: 0.290909"/>
   </g>
   <g id="patch_99">
    <path d="M 7.2 17.1792 
L 450.72 17.1792 
L 450.72 13.8528 
L 7.2 13.8528 
z
" clip-path="url(#p8656afc5fd)" style="fill: #1a3366; fill-opacity: 0.293939"/>
   </g>
   <g id="patch_100">
    <path d="M 7.2 13.8528 
L 450.72 13.8528 
L 450.72 10.5264 
L 7.2 10.5264 
z
" clip-path="url(#p8656afc5fd)" style="fill: #1a3366; fill-opacity: 0.29697"/>
   </g>
   <g id="patch_101">
    <path d="M 7.2 10.5264 
L 450.72 10.5264 
L 450.72 7.2 
L 7.2 7.2 
z
" clip-path="url(#p8656afc5fd)" style="fill: #1a3366; fill-opacity: 0.3"/>
   </g>
   <g id="patch_102">
    <path d="M 62.64 126.794041 
C 64.845429 126.794041 66.960826 125.917815 68.5203 124.358341 
C 70.079774 122.798867 70.956 120.68347 70.956 118.478041 
C 70.956 116.272612 70.079774 114.157215 68.5203 112.597741 
C 66.960826 111.038268 64.845429 110.162041 62.64 110.162041 
C 60.434571 110.162041 58.319174 111.038268 56.7597 112.597741 
C 55.200226 114.157215 54.324 116.272612 54.324 118.478041 
C 54.324 120.68347 55.200226 122.798867 56.7597 124.358341 
C 58.319174 125.917815 60.434571 126.794041 62.64 126.794041 
z
" clip-path="url(#p8656afc5fd)" style="fill: #2196f3; stroke: #1976d2; stroke-width: 2; stroke-linejoin: miter"/>
   </g>
   <g id="patch_103">
    <path d="M 62.64 160.058041 
C 64.845429 160.058041 66.960826 159.181815 68.5203 157.622341 
C 70.079774 156.062867 70.956 153.94747 70.956 151.742041 
C 70.956 149.536612 70.079774 147.421215 68.5203 145.861741 
C 66.960826 144.302268 64.845429 143.426041 62.64 143.426041 
C 60.434571 143.426041 58.319174 144.302268 56.7597 145.861741 
C 55.200226 147.421215 54.324 149.536612 54.324 151.742041 
C 54.324 153.94747 55.200226 156.062867 56.7597 157.622341 
C 58.319174 159.181815 60.434571 160.058041 62.64 160.058041 
z
" clip-path="url(#p8656afc5fd)" style="fill: #ff5722; stroke: #d84315; stroke-width: 2; stroke-linejoin: miter"/>
   </g>
   <g id="patch_104">
    <path d="M 83.005714 153.039687 
C 85.211143 153.039687 87.32654 152.163461 88.886014 150.603987 
C 90.445488 149.044514 91.321714 146.929116 91.321714 144.723687 
C 91.321714 142.518258 90.445488 140.402861 88.886014 138.843387 
C 87.32654 137.283914 85.211143 136.407687 83.005714 136.407687 
C 80.800285 136.407687 78.684888 137.283914 77.125414 138.843387 
C 75.565941 140.402861 74.689714 142.518258 74.689714 144.723687 
C 74.689714 146.929116 75.565941 149.044514 77.125414 150.603987 
C 78.684888 152.163461 80.800285 153.039687 83.005714 153.039687 
z
" clip-path="url(#p8656afc5fd)" style="fill: #2196f3; stroke: #1976d2; stroke-width: 2; stroke-linejoin: miter"/>
   </g>
   <g id="patch_105">
    <path d="M 83.005714 186.303687 
C 85.211143 186.303687 87.32654 185.427461 88.886014 183.867987 
C 90.445488 182.308514 91.321714 180.193116 91.321714 177.987687 
C 91.321714 175.782258 90.445488 173.666861 88.886014 172.107387 
C 87.32654 170.547914 85.211143 169.671687 83.005714 169.671687 
C 80.800285 169.671687 78.684888 170.547914 77.125414 172.107387 
C 75.565941 173.666861 74.689714 175.782258 74.689714 177.987687 
C 74.689714 180.193116 75.565941 182.308514 77.125414 183.867987 
C 78.684888 185.427461 80.800285 186.303687 83.005714 186.303687 
z
" clip-path="url(#p8656afc5fd)" style="fill: #ff5722; stroke: #d84315; stroke-width: 2; stroke-linejoin: miter"/>
   </g>
   <g id="patch_106">
    <path d="M 103.371429 186.137507 
C 105.576858 186.137507 107.692255 185.26128 109.251729 183.701807 
C 110.811202 182.142333 111.687429 180.026936 111.687429 177.821507 
C 111.687429 175.616078 110.811202 173.50068 109.251729 171.941207 
C 107.692255 170.381733 105.576858 169.505507 103.371429 169.505507 
C 101.166 169.505507 99.050602 170.381733 97.491129 171.941207 
C 95.931655 173.50068 95.055429 175.616078 95.055429 177.821507 
C 95.055429 180.026936 95.931655 182.142333 97.491129 183.701807 
C 99.050602 185.26128 101.166 186.137507 103.371429 186.137507 
z
" clip-path="url(#p8656afc5fd)" style="fill: #2196f3; stroke: #1976d2; stroke-width: 2; stroke-linejoin: miter"/>
   </g>
   <g id="patch_107">
    <path d="M 103.371429 219.401507 
C 105.576858 219.401507 107.692255 218.52528 109.251729 216.965807 
C 110.811202 215.406333 111.687429 213.290936 111.687429 211.085507 
C 111.687429 208.880078 110.811202 206.76468 109.251729 205.205207 
C 107.692255 203.645733 105.576858 202.769507 103.371429 202.769507 
C 101.166 202.769507 99.050602 203.645733 97.491129 205.205207 
C 95.931655 206.76468 95.055429 208.880078 95.055429 211.085507 
C 95.055429 213.290936 95.931655 215.406333 97.491129 216.965807 
C 99.050602 218.52528 101.166 219.401507 103.371429 219.401507 
z
" clip-path="url(#p8656afc5fd)" style="fill: #ff5722; stroke: #d84315; stroke-width: 2; stroke-linejoin: miter"/>
   </g>
   <g id="patch_108">
    <path d="M 123.737143 207.443454 
C 125.942572 207.443454 128.057969 206.567228 129.617443 205.007754 
C 131.176917 203.448281 132.053143 201.332883 132.053143 199.127454 
C 132.053143 196.922025 131.176917 194.806628 129.617443 193.247154 
C 128.057969 191.687681 125.942572 190.811454 123.737143 190.811454 
C 121.531714 190.811454 119.416317 191.687681 117.856843 193.247154 
C 116.297369 194.806628 115.421143 196.922025 115.421143 199.127454 
C 115.421143 201.332883 116.297369 203.448281 117.856843 205.007754 
C 119.416317 206.567228 121.531714 207.443454 123.737143 207.443454 
z
" clip-path="url(#p8656afc5fd)" style="fill: #2196f3; stroke: #1976d2; stroke-width: 2; stroke-linejoin: miter"/>
   </g>
   <g id="patch_109">
    <path d="M 123.737143 240.707454 
C 125.942572 240.707454 128.057969 239.831228 129.617443 238.271754 
C 131.176917 236.712281 132.053143 234.596883 132.053143 232.391454 
C 132.053143 230.186025 131.176917 228.070628 129.617443 226.511154 
C 128.057969 224.951681 125.942572 224.075454 123.737143 224.075454 
C 121.531714 224.075454 119.416317 224.951681 117.856843 226.511154 
C 116.297369 228.070628 115.421143 230.186025 115.421143 232.391454 
C 115.421143 234.596883 116.297369 236.712281 117.856843 238.271754 
C 119.416317 239.831228 121.531714 240.707454 123.737143 240.707454 
z
" clip-path="url(#p8656afc5fd)" style="fill: #ff5722; stroke: #d84315; stroke-width: 2; stroke-linejoin: miter"/>
   </g>
   <g id="patch_110">
    <path d="M 144.102857 204.955863 
C 146.308286 204.955863 148.423683 204.079636 149.983157 202.520163 
C 151.542631 200.960689 152.418857 198.845292 152.418857 196.639863 
C 152.418857 194.434434 151.542631 192.319036 149.983157 190.759563 
C 148.423683 189.200089 146.308286 188.323863 144.102857 188.323863 
C 141.897428 188.323863 139.782031 189.200089 138.222557 190.759563 
C 136.663083 192.319036 135.786857 194.434434 135.786857 196.639863 
C 135.786857 198.845292 136.663083 200.960689 138.222557 202.520163 
C 139.782031 204.079636 141.897428 204.955863 144.102857 204.955863 
z
" clip-path="url(#p8656afc5fd)" style="fill: #2196f3; stroke: #1976d2; stroke-width: 2; stroke-linejoin: miter"/>
   </g>
   <g id="patch_111">
    <path d="M 144.102857 238.219863 
C 146.308286 238.219863 148.423683 237.343636 149.983157 235.784163 
C 151.542631 234.224689 152.418857 232.109292 152.418857 229.903863 
C 152.418857 227.698434 151.542631 225.583036 149.983157 224.023563 
C 148.423683 222.464089 146.308286 221.587863 144.102857 221.587863 
C 141.897428 221.587863 139.782031 222.464089 138.222557 224.023563 
C 136.663083 225.583036 135.786857 227.698434 135.786857 229.903863 
C 135.786857 232.109292 136.663083 234.224689 138.222557 235.784163 
C 139.782031 237.343636 141.897428 238.219863 144.102857 238.219863 
z
" clip-path="url(#p8656afc5fd)" style="fill: #ff5722; stroke: #d84315; stroke-width: 2; stroke-linejoin: miter"/>
   </g>
   <g id="patch_112">
    <path d="M 164.468571 180.075995 
C 166.674 180.075995 168.789398 179.199769 170.348871 177.640295 
C 171.908345 176.080821 172.784571 173.965424 172.784571 171.759995 
C 172.784571 169.554566 171.908345 167.439169 170.348871 165.879695 
C 168.789398 164.320221 166.674 163.443995 164.468571 163.443995 
C 162.263142 163.443995 160.147745 164.320221 158.588271 165.879695 
C 157.028798 167.439169 156.152571 169.554566 156.152571 171.759995 
C 156.152571 173.965424 157.028798 176.080821 158.588271 177.640295 
C 160.147745 179.199769 162.263142 180.075995 164.468571 180.075995 
z
" clip-path="url(#p8656afc5fd)" style="fill: #2196f3; stroke: #1976d2; stroke-width: 2; stroke-linejoin: miter"/>
   </g>
   <g id="patch_113">
    <path d="M 164.468571 213.339995 
C 166.674 213.339995 168.789398 212.463769 170.348871 210.904295 
C 171.908345 209.344821 172.784571 207.229424 172.784571 205.023995 
C 172.784571 202.818566 171.908345 200.703169 170.348871 199.143695 
C 168.789398 197.584221 166.674 196.707995 164.468571 196.707995 
C 162.263142 196.707995 160.147745 197.584221 158.588271 199.143695 
C 157.028798 200.703169 156.152571 202.818566 156.152571 205.023995 
C 156.152571 207.229424 157.028798 209.344821 158.588271 210.904295 
C 160.147745 212.463769 162.263142 213.339995 164.468571 213.339995 
z
" clip-path="url(#p8656afc5fd)" style="fill: #ff5722; stroke: #d84315; stroke-width: 2; stroke-linejoin: miter"/>
   </g>
   <g id="patch_114">
    <path d="M 184.834286 146.818713 
C 187.039715 146.818713 189.155112 145.942487 190.714586 144.383013 
C 192.274059 142.823539 193.150286 140.708142 193.150286 138.502713 
C 193.150286 136.297284 192.274059 134.181887 190.714586 132.622413 
C 189.155112 131.062939 187.039715 130.186713 184.834286 130.186713 
C 182.628857 130.186713 180.51346 131.062939 178.953986 132.622413 
C 177.394512 134.181887 176.518286 136.297284 176.518286 138.502713 
C 176.518286 140.708142 177.394512 142.823539 178.953986 144.383013 
C 180.51346 145.942487 182.628857 146.818713 184.834286 146.818713 
z
" clip-path="url(#p8656afc5fd)" style="fill: #2196f3; stroke: #1976d2; stroke-width: 2; stroke-linejoin: miter"/>
   </g>
   <g id="patch_115">
    <path d="M 184.834286 180.082713 
C 187.039715 180.082713 189.155112 179.206487 190.714586 177.647013 
C 192.274059 176.087539 193.150286 173.972142 193.150286 171.766713 
C 193.150286 169.561284 192.274059 167.445887 190.714586 165.886413 
C 189.155112 164.326939 187.039715 163.450713 184.834286 163.450713 
C 182.628857 163.450713 180.51346 164.326939 178.953986 165.886413 
C 177.394512 167.445887 176.518286 169.561284 176.518286 171.766713 
C 176.518286 173.972142 177.394512 176.087539 178.953986 177.647013 
C 180.51346 179.206487 182.628857 180.082713 184.834286 180.082713 
z
" clip-path="url(#p8656afc5fd)" style="fill: #ff5722; stroke: #d84315; stroke-width: 2; stroke-linejoin: miter"/>
   </g>
   <g id="patch_116">
    <path d="M 205.2 123.917888 
C 207.405429 123.917888 209.520826 123.041661 211.0803 121.482187 
C 212.639774 119.922714 213.516 117.807316 213.516 115.601888 
C 213.516 113.396459 212.639774 111.281061 211.0803 109.721588 
C 209.520826 108.162114 207.405429 107.285888 205.2 107.285888 
C 202.994571 107.285888 200.879174 108.162114 199.3197 109.721588 
C 197.760226 111.281061 196.884 113.396459 196.884 115.601888 
C 196.884 117.807316 197.760226 119.922714 199.3197 121.482187 
C 200.879174 123.041661 202.994571 123.917888 205.2 123.917888 
z
" clip-path="url(#p8656afc5fd)" style="fill: #2196f3; stroke: #1976d2; stroke-width: 2; stroke-linejoin: miter"/>
   </g>
   <g id="patch_117">
    <path d="M 205.2 157.181888 
C 207.405429 157.181888 209.520826 156.305661 211.0803 154.746187 
C 212.639774 153.186714 213.516 151.071316 213.516 148.865888 
C 213.516 146.660459 212.639774 144.545061 211.0803 142.985588 
C 209.520826 141.426114 207.405429 140.549888 205.2 140.549888 
C 202.994571 140.549888 200.879174 141.426114 199.3197 142.985588 
C 197.760226 144.545061 196.884 146.660459 196.884 148.865888 
C 196.884 151.071316 197.760226 153.186714 199.3197 154.746187 
C 200.879174 156.305661 202.994571 157.181888 205.2 157.181888 
z
" clip-path="url(#p8656afc5fd)" style="fill: #ff5722; stroke: #d84315; stroke-width: 2; stroke-linejoin: miter"/>
   </g>
   <g id="patch_118">
    <path d="M 225.565714 124.273583 
C 227.771143 124.273583 229.88654 123.397356 231.446014 121.837883 
C 233.005488 120.278409 233.881714 118.163012 233.881714 115.957583 
C 233.881714 113.752154 233.005488 111.636756 231.446014 110.077283 
C 229.88654 108.517809 227.771143 107.641583 225.565714 107.641583 
C 223.360285 107.641583 221.244888 108.517809 219.685414 110.077283 
C 218.125941 111.636756 217.249714 113.752154 217.249714 115.957583 
C 217.249714 118.163012 218.125941 120.278409 219.685414 121.837883 
C 221.244888 123.397356 223.360285 124.273583 225.565714 124.273583 
z
" clip-path="url(#p8656afc5fd)" style="fill: #2196f3; stroke: #1976d2; stroke-width: 2; stroke-linejoin: miter"/>
   </g>
   <g id="patch_119">
    <path d="M 225.565714 157.537583 
C 227.771143 157.537583 229.88654 156.661356 231.446014 155.101883 
C 233.005488 153.542409 233.881714 151.427012 233.881714 149.221583 
C 233.881714 147.016154 233.005488 144.900756 231.446014 143.341283 
C 229.88654 141.781809 227.771143 140.905583 225.565714 140.905583 
C 223.360285 140.905583 221.244888 141.781809 219.685414 143.341283 
C 218.125941 144.900756 217.249714 147.016154 217.249714 149.221583 
C 217.249714 151.427012 218.125941 153.542409 219.685414 155.101883 
C 221.244888 156.661356 223.360285 157.537583 225.565714 157.537583 
z
" clip-path="url(#p8656afc5fd)" style="fill: #ff5722; stroke: #d84315; stroke-width: 2; stroke-linejoin: miter"/>
   </g>
   <g id="patch_120">
    <path d="M 245.931429 147.685435 
C 248.136858 147.685435 250.252255 146.809209 251.811729 145.249735 
C 253.371202 143.690261 254.247429 141.574864 254.247429 139.369435 
C 254.247429 137.164006 253.371202 135.048609 251.811729 133.489135 
C 250.252255 131.929661 248.136858 131.053435 245.931429 131.053435 
C 243.726 131.053435 241.610602 131.929661 240.051129 133.489135 
C 238.491655 135.048609 237.615429 137.164006 237.615429 139.369435 
C 237.615429 141.574864 238.491655 143.690261 240.051129 145.249735 
C 241.610602 146.809209 243.726 147.685435 245.931429 147.685435 
z
" clip-path="url(#p8656afc5fd)" style="fill: #2196f3; stroke: #1976d2; stroke-width: 2; stroke-linejoin: miter"/>
   </g>
   <g id="patch_121">
    <path d="M 245.931429 180.949435 
C 248.136858 180.949435 250.252255 180.073209 251.811729 178.513735 
C 253.371202 176.954261 254.247429 174.838864 254.247429 172.633435 
C 254.247429 170.428006 253.371202 168.312609 251.811729 166.753135 
C 250.252255 165.193661 248.136858 164.317435 245.931429 164.317435 
C 243.726 164.317435 241.610602 165.193661 240.051129 166.753135 
C 238.491655 168.312609 237.615429 170.428006 237.615429 172.633435 
C 237.615429 174.838864 238.491655 176.954261 240.051129 178.513735 
C 241.610602 180.073209 243.726 180.949435 245.931429 180.949435 
z
" clip-path="url(#p8656afc5fd)" style="fill: #ff5722; stroke: #d84315; stroke-width: 2; stroke-linejoin: miter"/>
   </g>
   <g id="patch_122">
    <path d="M 266.297143 180.965518 
C 268.502572 180.965518 270.617969 180.089292 272.177443 178.529818 
C 273.736917 176.970344 274.613143 174.854947 274.613143 172.649518 
C 274.613143 170.444089 273.736917 168.328692 272.177443 166.769218 
C 270.617969 165.209744 268.502572 164.333518 266.297143 164.333518 
C 264.091714 164.333518 261.976317 165.209744 260.416843 166.769218 
C 258.857369 168.328692 257.981143 170.444089 257.981143 172.649518 
C 257.981143 174.854947 258.857369 176.970344 260.416843 178.529818 
C 261.976317 180.089292 264.091714 180.965518 266.297143 180.965518 
z
" clip-path="url(#p8656afc5fd)" style="fill: #2196f3; stroke: #1976d2; stroke-width: 2; stroke-linejoin: miter"/>
   </g>
   <g id="patch_123">
    <path d="M 266.297143 214.229518 
C 268.502572 214.229518 270.617969 213.353292 272.177443 211.793818 
C 273.736917 210.234344 274.613143 208.118947 274.613143 205.913518 
C 274.613143 203.708089 273.736917 201.592692 272.177443 200.033218 
C 270.617969 198.473744 268.502572 197.597518 266.297143 197.597518 
C 264.091714 197.597518 261.976317 198.473744 260.416843 200.033218 
C 258.857369 201.592692 257.981143 203.708089 257.981143 205.913518 
C 257.981143 208.118947 258.857369 210.234344 260.416843 211.793818 
C 261.976317 213.353292 264.091714 214.229518 266.297143 214.229518 
z
" clip-path="url(#p8656afc5fd)" style="fill: #ff5722; stroke: #d84315; stroke-width: 2; stroke-linejoin: miter"/>
   </g>
   <g id="patch_124">
    <path d="M 286.662857 205.367117 
C 288.868286 205.367117 290.983683 204.490891 292.543157 202.931417 
C 294.102631 201.371943 294.978857 199.256546 294.978857 197.051117 
C 294.978857 194.845688 294.102631 192.730291 292.543157 191.170817 
C 290.983683 189.611343 288.868286 188.735117 286.662857 188.735117 
C 284.457428 188.735117 282.342031 189.611343 280.782557 191.170817 
C 279.223083 192.730291 278.346857 194.845688 278.346857 197.051117 
C 278.346857 199.256546 279.223083 201.371943 280.782557 202.931417 
C 282.342031 204.490891 284.457428 205.367117 286.662857 205.367117 
z
" clip-path="url(#p8656afc5fd)" style="fill: #2196f3; stroke: #1976d2; stroke-width: 2; stroke-linejoin: miter"/>
   </g>
   <g id="patch_125">
    <path d="M 286.662857 238.631117 
C 288.868286 238.631117 290.983683 237.754891 292.543157 236.195417 
C 294.102631 234.635943 294.978857 232.520546 294.978857 230.315117 
C 294.978857 228.109688 294.102631 225.994291 292.543157 224.434817 
C 290.983683 222.875343 288.868286 221.999117 286.662857 221.999117 
C 284.457428 221.999117 282.342031 222.875343 280.782557 224.434817 
C 279.223083 225.994291 278.346857 228.109688 278.346857 230.315117 
C 278.346857 232.520546 279.223083 234.635943 280.782557 236.195417 
C 282.342031 237.754891 284.457428 238.631117 286.662857 238.631117 
z
" clip-path="url(#p8656afc5fd)" style="fill: #ff5722; stroke: #d84315; stroke-width: 2; stroke-linejoin: miter"/>
   </g>
   <g id="patch_126">
    <path d="M 307.028571 207.14478 
C 309.234 207.14478 311.349398 206.268554 312.908871 204.70908 
C 314.468345 203.149607 315.344571 201.034209 315.344571 198.82878 
C 315.344571 196.623351 314.468345 194.507954 312.908871 192.94848 
C 311.349398 191.389007 309.234 190.51278 307.028571 190.51278 
C 304.823142 190.51278 302.707745 191.389007 301.148271 192.94848 
C 299.588798 194.507954 298.712571 196.623351 298.712571 198.82878 
C 298.712571 201.034209 299.588798 203.149607 301.148271 204.70908 
C 302.707745 206.268554 304.823142 207.14478 307.028571 207.14478 
z
" clip-path="url(#p8656afc5fd)" style="fill: #2196f3; stroke: #1976d2; stroke-width: 2; stroke-linejoin: miter"/>
   </g>
   <g id="patch_127">
    <path d="M 307.028571 240.40878 
C 309.234 240.40878 311.349398 239.532554 312.908871 237.97308 
C 314.468345 236.413607 315.344571 234.298209 315.344571 232.09278 
C 315.344571 229.887351 314.468345 227.771954 312.908871 226.21248 
C 311.349398 224.653007 309.234 223.77678 307.028571 223.77678 
C 304.823142 223.77678 302.707745 224.653007 301.148271 226.21248 
C 299.588798 227.771954 298.712571 229.887351 298.712571 232.09278 
C 298.712571 234.298209 299.588798 236.413607 301.148271 237.97308 
C 302.707745 239.532554 304.823142 240.40878 307.028571 240.40878 
z
" clip-path="url(#p8656afc5fd)" style="fill: #ff5722; stroke: #d84315; stroke-width: 2; stroke-linejoin: miter"/>
   </g>
   <g id="patch_128">
    <path d="M 327.394286 185.297148 
C 329.599715 185.297148 331.715112 184.420921 333.274586 182.861448 
C 334.834059 181.301974 335.710286 179.186577 335.710286 176.981148 
C 335.710286 174.775719 334.834059 172.660321 333.274586 171.100848 
C 331.715112 169.541374 329.599715 168.665148 327.394286 168.665148 
C 325.188857 168.665148 323.07346 169.541374 321.513986 171.100848 
C 319.954512 172.660321 319.078286 174.775719 319.078286 176.981148 
C 319.078286 179.186577 319.954512 181.301974 321.513986 182.861448 
C 323.07346 184.420921 325.188857 185.297148 327.394286 185.297148 
z
" clip-path="url(#p8656afc5fd)" style="fill: #2196f3; stroke: #1976d2; stroke-width: 2; stroke-linejoin: miter"/>
   </g>
   <g id="patch_129">
    <path d="M 327.394286 218.561148 
C 329.599715 218.561148 331.715112 217.684921 333.274586 216.125448 
C 334.834059 214.565974 335.710286 212.450577 335.710286 210.245148 
C 335.710286 208.039719 334.834059 205.924321 333.274586 204.364848 
C 331.715112 202.805374 329.599715 201.929148 327.394286 201.929148 
C 325.188857 201.929148 323.07346 202.805374 321.513986 204.364848 
C 319.954512 205.924321 319.078286 208.039719 319.078286 210.245148 
C 319.078286 212.450577 319.954512 214.565974 321.513986 216.125448 
C 323.07346 217.684921 325.188857 218.561148 327.394286 218.561148 
z
" clip-path="url(#p8656afc5fd)" style="fill: #ff5722; stroke: #d84315; stroke-width: 2; stroke-linejoin: miter"/>
   </g>
   <g id="patch_130">
    <path d="M 347.76 152.131019 
C 349.965429 152.131019 352.080826 151.254792 353.6403 149.695318 
C 355.199774 148.135845 356.076 146.020447 356.076 143.815019 
C 356.076 141.60959 355.199774 139.494192 353.6403 137.934719 
C 352.080826 136.375245 349.965429 135.499019 347.76 135.499019 
C 345.554571 135.499019 343.439174 136.375245 341.8797 137.934719 
C 340.320226 139.494192 339.444 141.60959 339.444 143.815019 
C 339.444 146.020447 340.320226 148.135845 341.8797 149.695318 
C 343.439174 151.254792 345.554571 152.131019 347.76 152.131019 
z
" clip-path="url(#p8656afc5fd)" style="fill: #2196f3; stroke: #1976d2; stroke-width: 2; stroke-linejoin: miter"/>
   </g>
   <g id="patch_131">
    <path d="M 347.76 185.395019 
C 349.965429 185.395019 352.080826 184.518792 353.6403 182.959318 
C 355.199774 181.399845 356.076 179.284447 356.076 177.079019 
C 356.076 174.87359 355.199774 172.758192 353.6403 171.198719 
C 352.080826 169.639245 349.965429 168.763019 347.76 168.763019 
C 345.554571 168.763019 343.439174 169.639245 341.8797 171.198719 
C 340.320226 172.758192 339.444 174.87359 339.444 177.079019 
C 339.444 179.284447 340.320226 181.399845 341.8797 182.959318 
C 343.439174 184.518792 345.554571 185.395019 347.76 185.395019 
z
" clip-path="url(#p8656afc5fd)" style="fill: #ff5722; stroke: #d84315; stroke-width: 2; stroke-linejoin: miter"/>
   </g>
   <g id="patch_132">
    <path d="M 368.125714 126.328917 
C 370.331143 126.328917 372.44654 125.452691 374.006014 123.893217 
C 375.565488 122.333743 376.441714 120.218346 376.441714 118.012917 
C 376.441714 115.807488 375.565488 113.692091 374.006014 112.132617 
C 372.44654 110.573143 370.331143 109.696917 368.125714 109.696917 
C 365.920285 109.696917 363.804888 110.573143 362.245414 112.132617 
C 360.685941 113.692091 359.809714 115.807488 359.809714 118.012917 
C 359.809714 120.218346 360.685941 122.333743 362.245414 123.893217 
C 363.804888 125.452691 365.920285 126.328917 368.125714 126.328917 
z
" clip-path="url(#p8656afc5fd)" style="fill: #2196f3; stroke: #1976d2; stroke-width: 2; stroke-linejoin: miter"/>
   </g>
   <g id="patch_133">
    <path d="M 368.125714 159.592917 
C 370.331143 159.592917 372.44654 158.716691 374.006014 157.157217 
C 375.565488 155.597743 376.441714 153.482346 376.441714 151.276917 
C 376.441714 149.071488 375.565488 146.956091 374.006014 145.396617 
C 372.44654 143.837143 370.331143 142.960917 368.125714 142.960917 
C 365.920285 142.960917 363.804888 143.837143 362.245414 145.396617 
C 360.685941 146.956091 359.809714 149.071488 359.809714 151.276917 
C 359.809714 153.482346 360.685941 155.597743 362.245414 157.157217 
C 363.804888 158.716691 365.920285 159.592917 368.125714 159.592917 
z
" clip-path="url(#p8656afc5fd)" style="fill: #ff5722; stroke: #d84315; stroke-width: 2; stroke-linejoin: miter"/>
   </g>
   <g id="patch_134">
    <path d="M 388.491429 122.4252 
C 390.696858 122.4252 392.812255 121.548974 394.371729 119.9895 
C 395.931202 118.430026 396.807429 116.314629 396.807429 114.1092 
C 396.807429 111.903771 395.931202 109.788374 394.371729 108.2289 
C 392.812255 106.669426 390.696858 105.7932 388.491429 105.7932 
C 386.286 105.7932 384.170602 106.669426 382.611129 108.2289 
C 381.051655 109.788374 380.175429 111.903771 380.175429 114.1092 
C 380.175429 116.314629 381.051655 118.430026 382.611129 119.9895 
C 384.170602 121.548974 386.286 122.4252 388.491429 122.4252 
z
" clip-path="url(#p8656afc5fd)" style="fill: #2196f3; stroke: #1976d2; stroke-width: 2; stroke-linejoin: miter"/>
   </g>
   <g id="patch_135">
    <path d="M 388.491429 155.6892 
C 390.696858 155.6892 392.812255 154.812974 394.371729 153.2535 
C 395.931202 151.694026 396.807429 149.578629 396.807429 147.3732 
C 396.807429 145.167771 395.931202 143.052374 394.371729 141.4929 
C 392.812255 139.933426 390.696858 139.0572 388.491429 139.0572 
C 386.286 139.0572 384.170602 139.933426 382.611129 141.4929 
C 381.051655 143.052374 380.175429 145.167771 380.175429 147.3732 
C 380.175429 149.578629 381.051655 151.694026 382.611129 153.2535 
C 384.170602 154.812974 386.286 155.6892 388.491429 155.6892 
z
" clip-path="url(#p8656afc5fd)" style="fill: #ff5722; stroke: #d84315; stroke-width: 2; stroke-linejoin: miter"/>
   </g>
   <g id="line2d_1">
    <path d="M 62.64 135.110041 
L 69.428571 141.991288 
L 76.217143 150.934837 
L 83.005714 161.355687 
L 89.794286 172.572209 
L 96.582857 183.850725 
L 103.371429 194.453507 
L 110.16 203.687021 
L 116.948571 210.947303 
L 123.737143 215.759454 
L 130.525714 217.808711 
L 137.314286 216.961032 
L 144.102857 213.271863 
L 150.891429 206.982513 
L 157.68 198.504371 
L 164.468571 188.391995 
L 171.257143 177.306837 
L 178.045714 165.973982 
L 184.834286 155.134713 
L 191.622857 145.498031 
L 198.411429 137.694274 
L 205.2 132.233888 
L 211.988571 129.474037 
L 218.777143 129.595245 
L 225.565714 132.589583 
L 232.354286 138.26119 
L 239.142857 146.239087 
L 245.931429 156.001435 
L 252.72 166.909677 
L 259.508571 178.250303 
L 266.297143 189.281518 
L 273.085714 199.281768 
L 279.874286 207.596933 
L 286.662857 213.683117 
L 293.451429 217.142221 
L 300.24 217.747983 
L 307.028571 215.46078 
L 313.817143 210.43022 
L 320.605714 202.985352 
L 327.394286 193.613148 
L 334.182857 182.926645 
L 340.971429 171.62485 
L 347.76 160.447019 
L 354.548571 150.124294 
L 361.337143 141.331889 
L 368.125714 134.644917 
L 374.914286 130.500775 
L 381.702857 129.170532 
L 388.491429 130.7412 
L 395.28 135.110041 
" clip-path="url(#p8656afc5fd)" style="fill: none; stroke: #4caf50; stroke-opacity: 0.8; stroke-width: 3; stroke-linecap: square"/>
   </g>
   <g id="line2d_2">
    <path d="M 90.36 201.24 
L 145.8 201.24 
" clip-path="url(#p8656afc5fd)" style="fill: none; stroke: #ff9800; stroke-opacity: 0.7; stroke-width: 2; stroke-linecap: square"/>
   </g>
   <g id="line2d_3">
    <path d="M 201.24 201.24 
L 256.68 184.608 
" clip-path="url(#p8656afc5fd)" style="fill: none; stroke: #ff9800; stroke-opacity: 0.7; stroke-width: 2; stroke-linecap: square"/>
   </g>
   <g id="line2d_4">
    <path d="M 312.12 201.24 
L 367.56 201.24 
" clip-path="url(#p8656afc5fd)" style="fill: none; stroke: #ff9800; stroke-opacity: 0.7; stroke-width: 2; stroke-linecap: square"/>
   </g>
   <g id="text_1">
    <!-- $\Delta G$ -->
    <g style="fill: #ffc107" transform="translate(100.56 90.36) scale(0.24 -0.24)">
     <defs>
      <path id="DejaVuSans-394" d="M 2188 4044 
L 906 525 
L 3472 525 
L 2188 4044 
z
M 50 0 
L 1831 4666 
L 2547 4666 
L 4325 0 
L 50 0 
z
" transform="scale(0.015625)"/>
      <path id="DejaVuSans-Oblique-47" d="M 3494 697 
L 3738 1919 
L 2700 1919 
L 2797 2438 
L 4453 2438 
L 4050 384 
Q 3634 156 3143 32 
Q 2653 -91 2156 -91 
Q 1278 -91 783 396 
Q 288 884 288 1753 
Q 288 2475 589 3126 
Q 891 3778 1422 4213 
Q 1756 4484 2153 4617 
Q 2550 4750 3034 4750 
Q 3472 4750 3873 4639 
Q 4275 4528 4641 4306 
L 4513 3634 
Q 4231 3928 3853 4083 
Q 3475 4238 3047 4238 
Q 2550 4238 2172 4048 
Q 1794 3859 1497 3463 
Q 1244 3125 1098 2667 
Q 953 2209 953 1734 
Q 953 1081 1287 751 
Q 1622 422 2284 422 
Q 2616 422 2925 492 
Q 3234 563 3494 697 
z
" transform="scale(0.015625)"/>
     </defs>
     <use xlink:href="#DejaVuSans-394" transform="translate(0 0.78125)"/>
     <use xlink:href="#DejaVuSans-Oblique-47" transform="translate(68.408203 0.78125)"/>
    </g>
   </g>
   <g id="text_2">
    <!-- MM/GBSA -->
    <g style="fill: #ffffff" transform="translate(296.37875 90.36) scale(0.16 -0.16)">
     <defs>
      <path id="DejaVuSans-Bold-4d" d="M 588 4666 
L 2119 4666 
L 3181 2169 
L 4250 4666 
L 5778 4666 
L 5778 0 
L 4641 0 
L 4641 3413 
L 3566 897 
L 2803 897 
L 1728 3413 
L 1728 0 
L 588 0 
L 588 4666 
z
" transform="scale(0.015625)"/>
      <path id="DejaVuSans-Bold-2f" d="M 1644 4666 
L 2338 4666 
L 691 -594 
L 0 -594 
L 1644 4666 
z
" transform="scale(0.015625)"/>
      <path id="DejaVuSans-Bold-47" d="M 4781 347 
Q 4331 128 3847 18 
Q 3363 -91 2847 -91 
Q 1681 -91 1000 561 
Q 319 1213 319 2328 
Q 319 3456 1012 4103 
Q 1706 4750 2913 4750 
Q 3378 4750 3804 4662 
Q 4231 4575 4609 4403 
L 4609 3438 
Q 4219 3659 3833 3768 
Q 3447 3878 3059 3878 
Q 2341 3878 1952 3476 
Q 1563 3075 1563 2328 
Q 1563 1588 1938 1184 
Q 2313 781 3003 781 
Q 3191 781 3352 804 
Q 3513 828 3641 878 
L 3641 1784 
L 2906 1784 
L 2906 2591 
L 4781 2591 
L 4781 347 
z
" transform="scale(0.015625)"/>
      <path id="DejaVuSans-Bold-42" d="M 2456 2859 
Q 2741 2859 2887 2984 
Q 3034 3109 3034 3353 
Q 3034 3594 2887 3720 
Q 2741 3847 2456 3847 
L 1791 3847 
L 1791 2859 
L 2456 2859 
z
M 2497 819 
Q 2859 819 3042 972 
Q 3225 1125 3225 1434 
Q 3225 1738 3044 1889 
Q 2863 2041 2497 2041 
L 1791 2041 
L 1791 819 
L 2497 819 
z
M 3616 2497 
Q 4003 2384 4215 2081 
Q 4428 1778 4428 1338 
Q 4428 663 3972 331 
Q 3516 0 2584 0 
L 588 0 
L 588 4666 
L 2394 4666 
Q 3366 4666 3802 4372 
Q 4238 4078 4238 3431 
Q 4238 3091 4078 2852 
Q 3919 2613 3616 2497 
z
" transform="scale(0.015625)"/>
      <path id="DejaVuSans-Bold-53" d="M 3834 4519 
L 3834 3531 
Q 3450 3703 3084 3790 
Q 2719 3878 2394 3878 
Q 1963 3878 1756 3759 
Q 1550 3641 1550 3391 
Q 1550 3203 1689 3098 
Q 1828 2994 2194 2919 
L 2706 2816 
Q 3484 2659 3812 2340 
Q 4141 2022 4141 1434 
Q 4141 663 3683 286 
Q 3225 -91 2284 -91 
Q 1841 -91 1394 -6 
Q 947 78 500 244 
L 500 1259 
Q 947 1022 1364 901 
Q 1781 781 2169 781 
Q 2563 781 2772 912 
Q 2981 1044 2981 1288 
Q 2981 1506 2839 1625 
Q 2697 1744 2272 1838 
L 1806 1941 
Q 1106 2091 782 2419 
Q 459 2747 459 3303 
Q 459 4000 909 4375 
Q 1359 4750 2203 4750 
Q 2588 4750 2994 4692 
Q 3400 4634 3834 4519 
z
" transform="scale(0.015625)"/>
      <path id="DejaVuSans-Bold-41" d="M 3419 850 
L 1538 850 
L 1241 0 
L 31 0 
L 1759 4666 
L 3194 4666 
L 4922 0 
L 3713 0 
L 3419 850 
z
M 1838 1716 
L 3116 1716 
L 2478 3572 
L 1838 1716 
z
" transform="scale(0.015625)"/>
     </defs>
     <use xlink:href="#DejaVuSans-Bold-4d"/>
     <use xlink:href="#DejaVuSans-Bold-4d" x="99.511719"/>
     <use xlink:href="#DejaVuSans-Bold-2f" x="199.023438"/>
     <use xlink:href="#DejaVuSans-Bold-47" x="235.546875"/>
     <use xlink:href="#DejaVuSans-Bold-42" x="317.626953"/>
     <use xlink:href="#DejaVuSans-Bold-53" x="393.847656"/>
     <use xlink:href="#DejaVuSans-Bold-41" x="465.869141"/>
    </g>
   </g>
   <g id="text_3">
    <!-- OpenGBSA -->
    <g style="fill: #ffffff" transform="translate(144.49625 273.312) scale(0.28 -0.28)">
     <defs>
      <path id="DejaVuSans-Bold-4f" d="M 2719 3878 
Q 2169 3878 1866 3472 
Q 1563 3066 1563 2328 
Q 1563 1594 1866 1187 
Q 2169 781 2719 781 
Q 3272 781 3575 1187 
Q 3878 1594 3878 2328 
Q 3878 3066 3575 3472 
Q 3272 3878 2719 3878 
z
M 2719 4750 
Q 3844 4750 4481 4106 
Q 5119 3463 5119 2328 
Q 5119 1197 4481 553 
Q 3844 -91 2719 -91 
Q 1597 -91 958 553 
Q 319 1197 319 2328 
Q 319 3463 958 4106 
Q 1597 4750 2719 4750 
z
" transform="scale(0.015625)"/>
      <path id="DejaVuSans-Bold-70" d="M 1656 506 
L 1656 -1331 
L 538 -1331 
L 538 3500 
L 1656 3500 
L 1656 2988 
Q 1888 3294 2169 3439 
Q 2450 3584 2816 3584 
Q 3463 3584 3878 3070 
Q 4294 2556 4294 1747 
Q 4294 938 3878 423 
Q 3463 -91 2816 -91 
Q 2450 -91 2169 54 
Q 1888 200 1656 506 
z
M 2400 2772 
Q 2041 2772 1848 2508 
Q 1656 2244 1656 1747 
Q 1656 1250 1848 986 
Q 2041 722 2400 722 
Q 2759 722 2948 984 
Q 3138 1247 3138 1747 
Q 3138 2247 2948 2509 
Q 2759 2772 2400 2772 
z
" transform="scale(0.015625)"/>
      <path id="DejaVuSans-Bold-65" d="M 4031 1759 
L 4031 1441 
L 1416 1441 
Q 1456 1047 1700 850 
Q 1944 653 2381 653 
Q 2734 653 3104 758 
Q 3475 863 3866 1075 
L 3866 213 
Q 3469 63 3072 -14 
Q 2675 -91 2278 -91 
Q 1328 -91 801 392 
Q 275 875 275 1747 
Q 275 2603 792 3093 
Q 1309 3584 2216 3584 
Q 3041 3584 3536 3087 
Q 4031 2591 4031 1759 
z
M 2881 2131 
Q 2881 2450 2695 2645 
Q 2509 2841 2209 2841 
Q 1884 2841 1681 2658 
Q 1478 2475 1428 2131 
L 2881 2131 
z
" transform="scale(0.015625)"/>
      <path id="DejaVuSans-Bold-6e" d="M 4056 2131 
L 4056 0 
L 2931 0 
L 2931 347 
L 2931 1631 
Q 2931 2084 2911 2256 
Q 2891 2428 2841 2509 
Q 2775 2619 2662 2680 
Q 2550 2741 2406 2741 
Q 2056 2741 1856 2470 
Q 1656 2200 1656 1722 
L 1656 0 
L 538 0 
L 538 3500 
L 1656 3500 
L 1656 2988 
Q 1909 3294 2193 3439 
Q 2478 3584 2822 3584 
Q 3428 3584 3742 3212 
Q 4056 2841 4056 2131 
z
" transform="scale(0.015625)"/>
     </defs>
     <use xlink:href="#DejaVuSans-Bold-4f"/>
     <use xlink:href="#DejaVuSans-Bold-70" x="85.009766"/>
     <use xlink:href="#DejaVuSans-Bold-65" x="156.591797"/>
     <use xlink:href="#DejaVuSans-Bold-6e" x="224.414062"/>
     <use xlink:href="#DejaVuSans-Bold-47" x="295.605469"/>
     <use xlink:href="#DejaVuSans-Bold-42" x="377.685547"/>
     <use xlink:href="#DejaVuSans-Bold-53" x="453.90625"/>
     <use xlink:href="#DejaVuSans-Bold-41" x="525.927734"/>
    </g>
   </g>
   <g id="text_4">
    <!-- Molecular Mechanics / Generalized Born Surface Area -->
    <g style="fill: #bdbdbd" transform="translate(95.043594 306.576) scale(0.1 -0.1)">
     <defs>
      <path id="DejaVuSans-4d" d="M 628 4666 
L 1569 4666 
L 2759 1491 
L 3956 4666 
L 4897 4666 
L 4897 0 
L 4281 0 
L 4281 4097 
L 3078 897 
L 2444 897 
L 1241 4097 
L 1241 0 
L 628 0 
L 628 4666 
z
" transform="scale(0.015625)"/>
      <path id="DejaVuSans-6f" d="M 1959 3097 
Q 1497 3097 1228 2736 
Q 959 2375 959 1747 
Q 959 1119 1226 758 
Q 1494 397 1959 397 
Q 2419 397 2687 759 
Q 2956 1122 2956 1747 
Q 2956 2369 2687 2733 
Q 2419 3097 1959 3097 
z
M 1959 3584 
Q 2709 3584 3137 3096 
Q 3566 2609 3566 1747 
Q 3566 888 3137 398 
Q 2709 -91 1959 -91 
Q 1206 -91 779 398 
Q 353 888 353 1747 
Q 353 2609 779 3096 
Q 1206 3584 1959 3584 
z
" transform="scale(0.015625)"/>
      <path id="DejaVuSans-6c" d="M 603 4863 
L 1178 4863 
L 1178 0 
L 603 0 
L 603 4863 
z
" transform="scale(0.015625)"/>
      <path id="DejaVuSans-65" d="M 3597 1894 
L 3597 1613 
L 953 1613 
Q 991 1019 1311 708 
Q 1631 397 2203 397 
Q 2534 397 2845 478 
Q 3156 559 3463 722 
L 3463 178 
Q 3153 47 2828 -22 
Q 2503 -91 2169 -91 
Q 1331 -91 842 396 
Q 353 884 353 1716 
Q 353 2575 817 3079 
Q 1281 3584 2069 3584 
Q 2775 3584 3186 3129 
Q 3597 2675 3597 1894 
z
M 3022 2063 
Q 3016 2534 2758 2815 
Q 2500 3097 2075 3097 
Q 1594 3097 1305 2825 
Q 1016 2553 972 2059 
L 3022 2063 
z
" transform="scale(0.015625)"/>
      <path id="DejaVuSans-63" d="M 3122 3366 
L 3122 2828 
Q 2878 2963 2633 3030 
Q 2388 3097 2138 3097 
Q 1578 3097 1268 2742 
Q 959 2388 959 1747 
Q 959 1106 1268 751 
Q 1578 397 2138 397 
Q 2388 397 2633 464 
Q 2878 531 3122 666 
L 3122 134 
Q 2881 22 2623 -34 
Q 2366 -91 2075 -91 
Q 1284 -91 818 406 
Q 353 903 353 1747 
Q 353 2603 823 3093 
Q 1294 3584 2113 3584 
Q 2378 3584 2631 3529 
Q 2884 3475 3122 3366 
z
" transform="scale(0.015625)"/>
      <path id="DejaVuSans-75" d="M 544 1381 
L 544 3500 
L 1119 3500 
L 1119 1403 
Q 1119 906 1312 657 
Q 1506 409 1894 409 
Q 2359 409 2629 706 
Q 2900 1003 2900 1516 
L 2900 3500 
L 3475 3500 
L 3475 0 
L 2900 0 
L 2900 538 
Q 2691 219 2414 64 
Q 2138 -91 1772 -91 
Q 1169 -91 856 284 
Q 544 659 544 1381 
z
M 1991 3584 
L 1991 3584 
z
" transform="scale(0.015625)"/>
      <path id="DejaVuSans-61" d="M 2194 1759 
Q 1497 1759 1228 1600 
Q 959 1441 959 1056 
Q 959 750 1161 570 
Q 1363 391 1709 391 
Q 2188 391 2477 730 
Q 2766 1069 2766 1631 
L 2766 1759 
L 2194 1759 
z
M 3341 1997 
L 3341 0 
L 2766 0 
L 2766 531 
Q 2569 213 2275 61 
Q 1981 -91 1556 -91 
Q 1019 -91 701 211 
Q 384 513 384 1019 
Q 384 1609 779 1909 
Q 1175 2209 1959 2209 
L 2766 2209 
L 2766 2266 
Q 2766 2663 2505 2880 
Q 2244 3097 1772 3097 
Q 1472 3097 1187 3025 
Q 903 2953 641 2809 
L 641 3341 
Q 956 3463 1253 3523 
Q 1550 3584 1831 3584 
Q 2591 3584 2966 3190 
Q 3341 2797 3341 1997 
z
" transform="scale(0.015625)"/>
      <path id="DejaVuSans-72" d="M 2631 2963 
Q 2534 3019 2420 3045 
Q 2306 3072 2169 3072 
Q 1681 3072 1420 2755 
Q 1159 2438 1159 1844 
L 1159 0 
L 581 0 
L 581 3500 
L 1159 3500 
L 1159 2956 
Q 1341 3275 1631 3429 
Q 1922 3584 2338 3584 
Q 2397 3584 2469 3576 
Q 2541 3569 2628 3553 
L 2631 2963 
z
" transform="scale(0.015625)"/>
      <path id="DejaVuSans-20" transform="scale(0.015625)"/>
      <path id="DejaVuSans-68" d="M 3513 2113 
L 3513 0 
L 2938 0 
L 2938 2094 
Q 2938 2591 2744 2837 
Q 2550 3084 2163 3084 
Q 1697 3084 1428 2787 
Q 1159 2491 1159 1978 
L 1159 0 
L 581 0 
L 581 4863 
L 1159 4863 
L 1159 2956 
Q 1366 3272 1645 3428 
Q 1925 3584 2291 3584 
Q 2894 3584 3203 3211 
Q 3513 2838 3513 2113 
z
" transform="scale(0.015625)"/>
      <path id="DejaVuSans-6e" d="M 3513 2113 
L 3513 0 
L 2938 0 
L 2938 2094 
Q 2938 2591 2744 2837 
Q 2550 3084 2163 3084 
Q 1697 3084 1428 2787 
Q 1159 2491 1159 1978 
L 1159 0 
L 581 0 
L 581 3500 
L 1159 3500 
L 1159 2956 
Q 1366 3272 1645 3428 
Q 1925 3584 2291 3584 
Q 2894 3584 3203 3211 
Q 3513 2838 3513 2113 
z
" transform="scale(0.015625)"/>
      <path id="DejaVuSans-69" d="M 603 3500 
L 1178 3500 
L 1178 0 
L 603 0 
L 603 3500 
z
M 603 4863 
L 1178 4863 
L 1178 4134 
L 603 4134 
L 603 4863 
z
" transform="scale(0.015625)"/>
      <path id="DejaVuSans-73" d="M 2834 3397 
L 2834 2853 
Q 2591 2978 2328 3040 
Q 2066 3103 1784 3103 
Q 1356 3103 1142 2972 
Q 928 2841 928 2578 
Q 928 2378 1081 2264 
Q 1234 2150 1697 2047 
L 1894 2003 
Q 2506 1872 2764 1633 
Q 3022 1394 3022 966 
Q 3022 478 2636 193 
Q 2250 -91 1575 -91 
Q 1294 -91 989 -36 
Q 684 19 347 128 
L 347 722 
Q 666 556 975 473 
Q 1284 391 1588 391 
Q 1994 391 2212 530 
Q 2431 669 2431 922 
Q 2431 1156 2273 1281 
Q 2116 1406 1581 1522 
L 1381 1569 
Q 847 1681 609 1914 
Q 372 2147 372 2553 
Q 372 3047 722 3315 
Q 1072 3584 1716 3584 
Q 2034 3584 2315 3537 
Q 2597 3491 2834 3397 
z
" transform="scale(0.015625)"/>
      <path id="DejaVuSans-2f" d="M 1625 4666 
L 2156 4666 
L 531 -594 
L 0 -594 
L 1625 4666 
z
" transform="scale(0.015625)"/>
      <path id="DejaVuSans-47" d="M 3809 666 
L 3809 1919 
L 2778 1919 
L 2778 2438 
L 4434 2438 
L 4434 434 
Q 4069 175 3628 42 
Q 3188 -91 2688 -91 
Q 1594 -91 976 548 
Q 359 1188 359 2328 
Q 359 3472 976 4111 
Q 1594 4750 2688 4750 
Q 3144 4750 3555 4637 
Q 3966 4525 4313 4306 
L 4313 3634 
Q 3963 3931 3569 4081 
Q 3175 4231 2741 4231 
Q 1884 4231 1454 3753 
Q 1025 3275 1025 2328 
Q 1025 1384 1454 906 
Q 1884 428 2741 428 
Q 3075 428 3337 486 
Q 3600 544 3809 666 
z
" transform="scale(0.015625)"/>
      <path id="DejaVuSans-7a" d="M 353 3500 
L 3084 3500 
L 3084 2975 
L 922 459 
L 3084 459 
L 3084 0 
L 275 0 
L 275 525 
L 2438 3041 
L 353 3041 
L 353 3500 
z
" transform="scale(0.015625)"/>
      <path id="DejaVuSans-64" d="M 2906 2969 
L 2906 4863 
L 3481 4863 
L 3481 0 
L 2906 0 
L 2906 525 
Q 2725 213 2448 61 
Q 2172 -91 1784 -91 
Q 1150 -91 751 415 
Q 353 922 353 1747 
Q 353 2572 751 3078 
Q 1150 3584 1784 3584 
Q 2172 3584 2448 3432 
Q 2725 3281 2906 2969 
z
M 947 1747 
Q 947 1113 1208 752 
Q 1469 391 1925 391 
Q 2381 391 2643 752 
Q 2906 1113 2906 1747 
Q 2906 2381 2643 2742 
Q 2381 3103 1925 3103 
Q 1469 3103 1208 2742 
Q 947 2381 947 1747 
z
" transform="scale(0.015625)"/>
      <path id="DejaVuSans-42" d="M 1259 2228 
L 1259 519 
L 2272 519 
Q 2781 519 3026 730 
Q 3272 941 3272 1375 
Q 3272 1813 3026 2020 
Q 2781 2228 2272 2228 
L 1259 2228 
z
M 1259 4147 
L 1259 2741 
L 2194 2741 
Q 2656 2741 2882 2914 
Q 3109 3088 3109 3444 
Q 3109 3797 2882 3972 
Q 2656 4147 2194 4147 
L 1259 4147 
z
M 628 4666 
L 2241 4666 
Q 2963 4666 3353 4366 
Q 3744 4066 3744 3513 
Q 3744 3084 3544 2831 
Q 3344 2578 2956 2516 
Q 3422 2416 3680 2098 
Q 3938 1781 3938 1306 
Q 3938 681 3513 340 
Q 3088 0 2303 0 
L 628 0 
L 628 4666 
z
" transform="scale(0.015625)"/>
      <path id="DejaVuSans-53" d="M 3425 4513 
L 3425 3897 
Q 3066 4069 2747 4153 
Q 2428 4238 2131 4238 
Q 1616 4238 1336 4038 
Q 1056 3838 1056 3469 
Q 1056 3159 1242 3001 
Q 1428 2844 1947 2747 
L 2328 2669 
Q 3034 2534 3370 2195 
Q 3706 1856 3706 1288 
Q 3706 609 3251 259 
Q 2797 -91 1919 -91 
Q 1588 -91 1214 -16 
Q 841 59 441 206 
L 441 856 
Q 825 641 1194 531 
Q 1563 422 1919 422 
Q 2459 422 2753 634 
Q 3047 847 3047 1241 
Q 3047 1584 2836 1778 
Q 2625 1972 2144 2069 
L 1759 2144 
Q 1053 2284 737 2584 
Q 422 2884 422 3419 
Q 422 4038 858 4394 
Q 1294 4750 2059 4750 
Q 2388 4750 2728 4690 
Q 3069 4631 3425 4513 
z
" transform="scale(0.015625)"/>
      <path id="DejaVuSans-66" d="M 2375 4863 
L 2375 4384 
L 1825 4384 
Q 1516 4384 1395 4259 
Q 1275 4134 1275 3809 
L 1275 3500 
L 2222 3500 
L 2222 3053 
L 1275 3053 
L 1275 0 
L 697 0 
L 697 3053 
L 147 3053 
L 147 3500 
L 697 3500 
L 697 3744 
Q 697 4328 969 4595 
Q 1241 4863 1831 4863 
L 2375 4863 
z
" transform="scale(0.015625)"/>
      <path id="DejaVuSans-41" d="M 2188 4044 
L 1331 1722 
L 3047 1722 
L 2188 4044 
z
M 1831 4666 
L 2547 4666 
L 4325 0 
L 3669 0 
L 3244 1197 
L 1141 1197 
L 716 0 
L 50 0 
L 1831 4666 
z
" transform="scale(0.015625)"/>
     </defs>
     <use xlink:href="#DejaVuSans-4d"/>
     <use xlink:href="#DejaVuSans-6f" x="86.279297"/>
     <use xlink:href="#DejaVuSans-6c" x="147.460938"/>
     <use xlink:href="#DejaVuSans-65" x="175.244141"/>
     <use xlink:href="#DejaVuSans-63" x="236.767578"/>
     <use xlink:href="#DejaVuSans-75" x="291.748047"/>
     <use xlink:href="#DejaVuSans-6c" x="355.126953"/>
     <use xlink:href="#DejaVuSans-61" x="382.910156"/>
     <use xlink:href="#DejaVuSans-72" x="444.189453"/>
     <use xlink:href="#DejaVuSans-20" x="485.302734"/>
     <use xlink:href="#DejaVuSans-4d" x="517.089844"/>
     <use xlink:href="#DejaVuSans-65" x="603.369141"/>
     <use xlink:href="#DejaVuSans-63" x="664.892578"/>
     <use xlink:href="#DejaVuSans-68" x="719.873047"/>
     <use xlink:href="#DejaVuSans-61" x="783.251953"/>
     <use xlink:href="#DejaVuSans-6e" x="844.53125"/>
     <use xlink:href="#DejaVuSans-69" x="907.910156"/>
     <use xlink:href="#DejaVuSans-63" x="935.693359"/>
     <use xlink:href="#DejaVuSans-73" x="990.673828"/>
     <use xlink:href="#DejaVuSans-20" x="1042.773438"/>
     <use xlink:href="#DejaVuSans-2f" x="1074.560547"/>
     <use xlink:href="#DejaVuSans-20" x="1108.251953"/>
     <use xlink:href="#DejaVuSans-47" x="1140.039062"/>
     <use xlink:href="#DejaVuSans-65" x="1217.529297"/>
     <use xlink:href="#DejaVuSans-6e" x="1279.052734"/>
     <use xlink:href="#DejaVuSans-65" x="1342.431641"/>
     <use xlink:href="#DejaVuSans-72" x="1403.955078"/>
     <use xlink:href="#DejaVuSans-61" x="1445.068359"/>
     <use xlink:href="#DejaVuSans-6c" x="1506.347656"/>
     <use xlink:href="#DejaVuSans-69" x="1534.130859"/>
     <use xlink:href="#DejaVuSans-7a" x="1561.914062"/>
     <use xlink:href="#DejaVuSans-65" x="1614.404297"/>
     <use xlink:href="#DejaVuSans-64" x="1675.927734"/>
     <use xlink:href="#DejaVuSans-20" x="1739.404297"/>
     <use xlink:href="#DejaVuSans-42" x="1771.191406"/>
     <use xlink:href="#DejaVuSans-6f" x="1839.794922"/>
     <use xlink:href="#DejaVuSans-72" x="1900.976562"/>
     <use xlink:href="#DejaVuSans-6e" x="1940.339844"/>
     <use xlink:href="#DejaVuSans-20" x="2003.71875"/>
     <use xlink:href="#DejaVuSans-53" x="2035.505859"/>
     <use xlink:href="#DejaVuSans-75" x="2098.982422"/>
     <use xlink:href="#DejaVuSans-72" x="2162.361328"/>
     <use xlink:href="#DejaVuSans-66" x="2203.474609"/>
     <use xlink:href="#DejaVuSans-61" x="2238.679688"/>
     <use xlink:href="#DejaVuSans-63" x="2299.958984"/>
     <use xlink:href="#DejaVuSans-65" x="2354.939453"/>
     <use xlink:href="#DejaVuSans-20" x="2416.462891"/>
     <use xlink:href="#DejaVuSans-41" x="2448.25"/>
     <use xlink:href="#DejaVuSans-72" x="2516.658203"/>
     <use xlink:href="#DejaVuSans-65" x="2555.521484"/>
     <use xlink:href="#DejaVuSans-61" x="2617.044922"/>
    </g>
   </g>
  </g>
 </g>
 <defs>
  <clipPath id="p8656afc5fd">
   <rect x="7.2" y="7.2" width="443.52" height="332.64"/>
  </clipPath>
 </defs>
</svg>
