<?xml version="1.0" encoding="utf-8" standalone="no"?>
<!DOCTYPE svg PUBLIC "-//W3C//DTD SVG 1.1//EN"
  "http://www.w3.org/Graphics/SVG/1.1/DTD/svg11.dtd">
<svg xmlns:xlink="http://www.w3.org/1999/xlink" width="679.68pt" height="347.04pt" viewBox="0 0 679.68 347.04" xmlns="http://www.w3.org/2000/svg" version="1.1">
 <metadata>
  <rdf:RDF xmlns:dc="http://purl.org/dc/elements/1.1/" xmlns:cc="http://creativecommons.org/ns#" xmlns:rdf="http://www.w3.org/1999/02/22-rdf-syntax-ns#">
   <cc:Work>
    <dc:type rdf:resource="http://purl.org/dc/dcmitype/StillImage"/>
    <dc:date>2025-07-20T23:38:28.584296</dc:date>
    <dc:format>image/svg+xml</dc:format>
    <dc:creator>
     <cc:Agent>
      <dc:title>Matplotlib v3.10.3, https://matplotlib.org/</dc:title>
     </cc:Agent>
    </dc:creator>
   </cc:Work>
  </rdf:RDF>
 </metadata>
 <defs>
  <style type="text/css">*{stroke-linejoin: round; stroke-linecap: butt}</style>
 </defs>
 <g id="figure_1">
  <g id="patch_1">
   <path d="M 0 347.04 
L 679.68 347.04 
L 679.68 -0 
L 0 -0 
L 0 347.04 
z
" style="fill: none"/>
  </g>
  <g id="axes_1">
   <g id="patch_2">
    <path d="M 7.2 339.84 
L 672.48 339.84 
L 672.48 333.1872 
L 7.2 333.1872 
L 7.2 339.84 
z
" clip-path="url(#pf501b141b7)" style="fill: none"/>
   </g>
   <g id="patch_3">
    <path d="M 7.2 333.1872 
L 672.48 333.1872 
L 672.48 326.5344 
L 7.2 326.5344 
z
" clip-path="url(#pf501b141b7)" style="fill: #0d1a33; fill-opacity: 0.003061"/>
   </g>
   <g id="patch_4">
    <path d="M 7.2 326.5344 
L 672.48 326.5344 
L 672.48 319.8816 
L 7.2 319.8816 
z
" clip-path="url(#pf501b141b7)" style="fill: #0d1a33; fill-opacity: 0.006122"/>
   </g>
   <g id="patch_5">
    <path d="M 7.2 319.8816 
L 672.48 319.8816 
L 672.48 313.2288 
L 7.2 313.2288 
z
" clip-path="url(#pf501b141b7)" style="fill: #0d1a33; fill-opacity: 0.009184"/>
   </g>
   <g id="patch_6">
    <path d="M 7.2 313.2288 
L 672.48 313.2288 
L 672.48 306.576 
L 7.2 306.576 
z
" clip-path="url(#pf501b141b7)" style="fill: #0d1a33; fill-opacity: 0.012245"/>
   </g>
   <g id="patch_7">
    <path d="M 7.2 306.576 
L 672.48 306.576 
L 672.48 299.9232 
L 7.2 299.9232 
z
" clip-path="url(#pf501b141b7)" style="fill: #0d1a33; fill-opacity: 0.015306"/>
   </g>
   <g id="patch_8">
    <path d="M 7.2 299.9232 
L 672.48 299.9232 
L 672.48 293.2704 
L 7.2 293.2704 
z
" clip-path="url(#pf501b141b7)" style="fill: #0d1a33; fill-opacity: 0.018367"/>
   </g>
   <g id="patch_9">
    <path d="M 7.2 293.2704 
L 672.48 293.2704 
L 672.48 286.6176 
L 7.2 286.6176 
z
" clip-path="url(#pf501b141b7)" style="fill: #0d1a33; fill-opacity: 0.021429"/>
   </g>
   <g id="patch_10">
    <path d="M 7.2 286.6176 
L 672.48 286.6176 
L 672.48 279.9648 
L 7.2 279.9648 
z
" clip-path="url(#pf501b141b7)" style="fill: #0d1a33; fill-opacity: 0.02449"/>
   </g>
   <g id="patch_11">
    <path d="M 7.2 279.9648 
L 672.48 279.9648 
L 672.48 273.312 
L 7.2 273.312 
z
" clip-path="url(#pf501b141b7)" style="fill: #0d1a33; fill-opacity: 0.027551"/>
   </g>
   <g id="patch_12">
    <path d="M 7.2 273.312 
L 672.48 273.312 
L 672.48 266.6592 
L 7.2 266.6592 
z
" clip-path="url(#pf501b141b7)" style="fill: #0d1a33; fill-opacity: 0.030612"/>
   </g>
   <g id="patch_13">
    <path d="M 7.2 266.6592 
L 672.48 266.6592 
L 672.48 260.0064 
L 7.2 260.0064 
z
" clip-path="url(#pf501b141b7)" style="fill: #0d1a33; fill-opacity: 0.033673"/>
   </g>
   <g id="patch_14">
    <path d="M 7.2 260.0064 
L 672.48 260.0064 
L 672.48 253.3536 
L 7.2 253.3536 
z
" clip-path="url(#pf501b141b7)" style="fill: #0d1a33; fill-opacity: 0.036735"/>
   </g>
   <g id="patch_15">
    <path d="M 7.2 253.3536 
L 672.48 253.3536 
L 672.48 246.7008 
L 7.2 246.7008 
z
" clip-path="url(#pf501b141b7)" style="fill: #0d1a33; fill-opacity: 0.039796"/>
   </g>
   <g id="patch_16">
    <path d="M 7.2 246.7008 
L 672.48 246.7008 
L 672.48 240.048 
L 7.2 240.048 
z
" clip-path="url(#pf501b141b7)" style="fill: #0d1a33; fill-opacity: 0.042857"/>
   </g>
   <g id="patch_17">
    <path d="M 7.2 240.048 
L 672.48 240.048 
L 672.48 233.3952 
L 7.2 233.3952 
z
" clip-path="url(#pf501b141b7)" style="fill: #0d1a33; fill-opacity: 0.045918"/>
   </g>
   <g id="patch_18">
    <path d="M 7.2 233.3952 
L 672.48 233.3952 
L 672.48 226.7424 
L 7.2 226.7424 
z
" clip-path="url(#pf501b141b7)" style="fill: #0d1a33; fill-opacity: 0.04898"/>
   </g>
   <g id="patch_19">
    <path d="M 7.2 226.7424 
L 672.48 226.7424 
L 672.48 220.0896 
L 7.2 220.0896 
z
" clip-path="url(#pf501b141b7)" style="fill: #0d1a33; fill-opacity: 0.052041"/>
   </g>
   <g id="patch_20">
    <path d="M 7.2 220.0896 
L 672.48 220.0896 
L 672.48 213.4368 
L 7.2 213.4368 
z
" clip-path="url(#pf501b141b7)" style="fill: #0d1a33; fill-opacity: 0.055102"/>
   </g>
   <g id="patch_21">
    <path d="M 7.2 213.4368 
L 672.48 213.4368 
L 672.48 206.784 
L 7.2 206.784 
z
" clip-path="url(#pf501b141b7)" style="fill: #0d1a33; fill-opacity: 0.058163"/>
   </g>
   <g id="patch_22">
    <path d="M 7.2 206.784 
L 672.48 206.784 
L 672.48 200.1312 
L 7.2 200.1312 
z
" clip-path="url(#pf501b141b7)" style="fill: #0d1a33; fill-opacity: 0.061224"/>
   </g>
   <g id="patch_23">
    <path d="M 7.2 200.1312 
L 672.48 200.1312 
L 672.48 193.4784 
L 7.2 193.4784 
z
" clip-path="url(#pf501b141b7)" style="fill: #0d1a33; fill-opacity: 0.064286"/>
   </g>
   <g id="patch_24">
    <path d="M 7.2 193.4784 
L 672.48 193.4784 
L 672.48 186.8256 
L 7.2 186.8256 
z
" clip-path="url(#pf501b141b7)" style="fill: #0d1a33; fill-opacity: 0.067347"/>
   </g>
   <g id="patch_25">
    <path d="M 7.2 186.8256 
L 672.48 186.8256 
L 672.48 180.1728 
L 7.2 180.1728 
z
" clip-path="url(#pf501b141b7)" style="fill: #0d1a33; fill-opacity: 0.070408"/>
   </g>
   <g id="patch_26">
    <path d="M 7.2 180.1728 
L 672.48 180.1728 
L 672.48 173.52 
L 7.2 173.52 
z
" clip-path="url(#pf501b141b7)" style="fill: #0d1a33; fill-opacity: 0.073469"/>
   </g>
   <g id="patch_27">
    <path d="M 7.2 173.52 
L 672.48 173.52 
L 672.48 166.8672 
L 7.2 166.8672 
z
" clip-path="url(#pf501b141b7)" style="fill: #0d1a33; fill-opacity: 0.076531"/>
   </g>
   <g id="patch_28">
    <path d="M 7.2 166.8672 
L 672.48 166.8672 
L 672.48 160.2144 
L 7.2 160.2144 
z
" clip-path="url(#pf501b141b7)" style="fill: #0d1a33; fill-opacity: 0.079592"/>
   </g>
   <g id="patch_29">
    <path d="M 7.2 160.2144 
L 672.48 160.2144 
L 672.48 153.5616 
L 7.2 153.5616 
z
" clip-path="url(#pf501b141b7)" style="fill: #0d1a33; fill-opacity: 0.082653"/>
   </g>
   <g id="patch_30">
    <path d="M 7.2 153.5616 
L 672.48 153.5616 
L 672.48 146.9088 
L 7.2 146.9088 
z
" clip-path="url(#pf501b141b7)" style="fill: #0d1a33; fill-opacity: 0.085714"/>
   </g>
   <g id="patch_31">
    <path d="M 7.2 146.9088 
L 672.48 146.9088 
L 672.48 140.256 
L 7.2 140.256 
z
" clip-path="url(#pf501b141b7)" style="fill: #0d1a33; fill-opacity: 0.088776"/>
   </g>
   <g id="patch_32">
    <path d="M 7.2 140.256 
L 672.48 140.256 
L 672.48 133.6032 
L 7.2 133.6032 
z
" clip-path="url(#pf501b141b7)" style="fill: #0d1a33; fill-opacity: 0.091837"/>
   </g>
   <g id="patch_33">
    <path d="M 7.2 133.6032 
L 672.48 133.6032 
L 672.48 126.9504 
L 7.2 126.9504 
z
" clip-path="url(#pf501b141b7)" style="fill: #0d1a33; fill-opacity: 0.094898"/>
   </g>
   <g id="patch_34">
    <path d="M 7.2 126.9504 
L 672.48 126.9504 
L 672.48 120.2976 
L 7.2 120.2976 
z
" clip-path="url(#pf501b141b7)" style="fill: #0d1a33; fill-opacity: 0.097959"/>
   </g>
   <g id="patch_35">
    <path d="M 7.2 120.2976 
L 672.48 120.2976 
L 672.48 113.6448 
L 7.2 113.6448 
z
" clip-path="url(#pf501b141b7)" style="fill: #0d1a33; fill-opacity: 0.10102"/>
   </g>
   <g id="patch_36">
    <path d="M 7.2 113.6448 
L 672.48 113.6448 
L 672.48 106.992 
L 7.2 106.992 
z
" clip-path="url(#pf501b141b7)" style="fill: #0d1a33; fill-opacity: 0.104082"/>
   </g>
   <g id="patch_37">
    <path d="M 7.2 106.992 
L 672.48 106.992 
L 672.48 100.3392 
L 7.2 100.3392 
z
" clip-path="url(#pf501b141b7)" style="fill: #0d1a33; fill-opacity: 0.107143"/>
   </g>
   <g id="patch_38">
    <path d="M 7.2 100.3392 
L 672.48 100.3392 
L 672.48 93.6864 
L 7.2 93.6864 
z
" clip-path="url(#pf501b141b7)" style="fill: #0d1a33; fill-opacity: 0.110204"/>
   </g>
   <g id="patch_39">
    <path d="M 7.2 93.6864 
L 672.48 93.6864 
L 672.48 87.0336 
L 7.2 87.0336 
z
" clip-path="url(#pf501b141b7)" style="fill: #0d1a33; fill-opacity: 0.113265"/>
   </g>
   <g id="patch_40">
    <path d="M 7.2 87.0336 
L 672.48 87.0336 
L 672.48 80.3808 
L 7.2 80.3808 
z
" clip-path="url(#pf501b141b7)" style="fill: #0d1a33; fill-opacity: 0.116327"/>
   </g>
   <g id="patch_41">
    <path d="M 7.2 80.3808 
L 672.48 80.3808 
L 672.48 73.728 
L 7.2 73.728 
z
" clip-path="url(#pf501b141b7)" style="fill: #0d1a33; fill-opacity: 0.119388"/>
   </g>
   <g id="patch_42">
    <path d="M 7.2 73.728 
L 672.48 73.728 
L 672.48 67.0752 
L 7.2 67.0752 
z
" clip-path="url(#pf501b141b7)" style="fill: #0d1a33; fill-opacity: 0.122449"/>
   </g>
   <g id="patch_43">
    <path d="M 7.2 67.0752 
L 672.48 67.0752 
L 672.48 60.4224 
L 7.2 60.4224 
z
" clip-path="url(#pf501b141b7)" style="fill: #0d1a33; fill-opacity: 0.12551"/>
   </g>
   <g id="patch_44">
    <path d="M 7.2 60.4224 
L 672.48 60.4224 
L 672.48 53.7696 
L 7.2 53.7696 
z
" clip-path="url(#pf501b141b7)" style="fill: #0d1a33; fill-opacity: 0.128571"/>
   </g>
   <g id="patch_45">
    <path d="M 7.2 53.7696 
L 672.48 53.7696 
L 672.48 47.1168 
L 7.2 47.1168 
z
" clip-path="url(#pf501b141b7)" style="fill: #0d1a33; fill-opacity: 0.131633"/>
   </g>
   <g id="patch_46">
    <path d="M 7.2 47.1168 
L 672.48 47.1168 
L 672.48 40.464 
L 7.2 40.464 
z
" clip-path="url(#pf501b141b7)" style="fill: #0d1a33; fill-opacity: 0.134694"/>
   </g>
   <g id="patch_47">
    <path d="M 7.2 40.464 
L 672.48 40.464 
L 672.48 33.8112 
L 7.2 33.8112 
z
" clip-path="url(#pf501b141b7)" style="fill: #0d1a33; fill-opacity: 0.137755"/>
   </g>
   <g id="patch_48">
    <path d="M 7.2 33.8112 
L 672.48 33.8112 
L 672.48 27.1584 
L 7.2 27.1584 
z
" clip-path="url(#pf501b141b7)" style="fill: #0d1a33; fill-opacity: 0.140816"/>
   </g>
   <g id="patch_49">
    <path d="M 7.2 27.1584 
L 672.48 27.1584 
L 672.48 20.5056 
L 7.2 20.5056 
z
" clip-path="url(#pf501b141b7)" style="fill: #0d1a33; fill-opacity: 0.143878"/>
   </g>
   <g id="patch_50">
    <path d="M 7.2 20.5056 
L 672.48 20.5056 
L 672.48 13.8528 
L 7.2 13.8528 
z
" clip-path="url(#pf501b141b7)" style="fill: #0d1a33; fill-opacity: 0.146939"/>
   </g>
   <g id="patch_51">
    <path d="M 7.2 13.8528 
L 672.48 13.8528 
L 672.48 7.2 
L 7.2 7.2 
z
" clip-path="url(#pf501b141b7)" style="fill: #0d1a33; fill-opacity: 0.15"/>
   </g>
   <g id="patch_52">
    <path d="M 90.36 181.836 
C 92.565429 181.836 94.680826 180.959774 96.2403 179.4003 
C 97.799774 177.840826 98.676 175.725429 98.676 173.52 
C 98.676 171.314571 97.799774 169.199174 96.2403 167.6397 
C 94.680826 166.080226 92.565429 165.204 90.36 165.204 
C 88.154571 165.204 86.039174 166.080226 84.4797 167.6397 
C 82.920226 169.199174 82.044 171.314571 82.044 173.52 
C 82.044 175.725429 82.920226 177.840826 84.4797 179.4003 
C 86.039174 180.959774 88.154571 181.836 90.36 181.836 
z
" clip-path="url(#pf501b141b7)" style="fill: #1976d2; stroke: #0d47a1; stroke-width: 1.5; stroke-linejoin: miter"/>
   </g>
   <g id="patch_53">
    <path d="M 106.992 177.9552 
C 108.168229 177.9552 109.296441 177.487879 110.12816 176.65616 
C 110.959879 175.824441 111.4272 174.696229 111.4272 173.52 
C 111.4272 172.343771 110.959879 171.215559 110.12816 170.38384 
C 109.296441 169.552121 108.168229 169.0848 106.992 169.0848 
C 105.815771 169.0848 104.687559 169.552121 103.85584 170.38384 
C 103.024121 171.215559 102.5568 172.343771 102.5568 173.52 
C 102.5568 174.696229 103.024121 175.824441 103.85584 176.65616 
C 104.687559 177.487879 105.815771 177.9552 106.992 177.9552 
z
" clip-path="url(#pf501b141b7)" style="fill: #ff5722; stroke: #d84315; stroke-linejoin: miter"/>
   </g>
   <g id="patch_54">
    <path d="M 132.644746 215.088212 
C 134.850175 215.088212 136.965572 214.211985 138.525046 212.652512 
C 140.08452 211.093038 140.960746 208.977641 140.960746 206.772212 
C 140.960746 204.566783 140.08452 202.451385 138.525046 200.891912 
C 136.965572 199.332438 134.850175 198.456212 132.644746 198.456212 
C 130.439317 198.456212 128.32392 199.332438 126.764446 200.891912 
C 125.204972 202.451385 124.328746 204.566783 124.328746 206.772212 
C 124.328746 208.977641 125.204972 211.093038 126.764446 212.652512 
C 128.32392 214.211985 130.439317 215.088212 132.644746 215.088212 
z
" clip-path="url(#pf501b141b7)" style="fill: #1976d2; stroke: #0d47a1; stroke-width: 1.5; stroke-linejoin: miter"/>
   </g>
   <g id="patch_55">
    <path d="M 174.929492 180.065618 
C 177.134921 180.065618 179.250318 179.189391 180.809792 177.629918 
C 182.369265 176.070444 183.245492 173.955047 183.245492 171.749618 
C 183.245492 169.544189 182.369265 167.428791 180.809792 165.869318 
C 179.250318 164.309844 177.134921 163.433618 174.929492 163.433618 
C 172.724063 163.433618 170.608665 164.309844 169.049192 165.869318 
C 167.489718 167.428791 166.613492 169.544189 166.613492 171.749618 
C 166.613492 173.955047 167.489718 176.070444 169.049192 177.629918 
C 170.608665 179.189391 172.724063 180.065618 174.929492 180.065618 
z
" clip-path="url(#pf501b141b7)" style="fill: #1976d2; stroke: #0d47a1; stroke-width: 1.5; stroke-linejoin: miter"/>
   </g>
   <g id="patch_56">
    <path d="M 179.647361 192.133646 
C 180.82359 192.133646 181.951802 191.666325 182.783521 190.834606 
C 183.61524 190.002887 184.082561 188.874675 184.082561 187.698446 
C 184.082561 186.522217 183.61524 185.394005 182.783521 184.562286 
C 181.951802 183.730567 180.82359 183.263246 179.647361 183.263246 
C 178.471132 183.263246 177.34292 183.730567 176.511201 184.562286 
C 175.679482 185.394005 175.212161 186.522217 175.212161 187.698446 
C 175.212161 188.874675 175.679482 190.002887 176.511201 190.834606 
C 177.34292 191.666325 178.471132 192.133646 179.647361 192.133646 
z
" clip-path="url(#pf501b141b7)" style="fill: #ff5722; stroke: #d84315; stroke-linejoin: miter"/>
   </g>
   <g id="patch_57">
    <path d="M 217.214237 148.678045 
C 219.419666 148.678045 221.535063 147.801819 223.094537 146.242345 
C 224.654011 144.682872 225.530237 142.567474 225.530237 140.362045 
C 225.530237 138.156616 224.654011 136.041219 223.094537 134.481745 
C 221.535063 132.922272 219.419666 132.046045 217.214237 132.046045 
C 215.008808 132.046045 212.893411 132.922272 211.333937 134.481745 
C 209.774464 136.041219 208.898237 138.156616 208.898237 140.362045 
C 208.898237 142.567474 209.774464 144.682872 211.333937 146.242345 
C 212.893411 147.801819 215.008808 148.678045 217.214237 148.678045 
z
" clip-path="url(#pf501b141b7)" style="fill: #1976d2; stroke: #0d47a1; stroke-width: 1.5; stroke-linejoin: miter"/>
   </g>
   <g id="patch_58">
    <path d="M 259.498983 185.371747 
C 261.704412 185.371747 263.819809 184.49552 265.379283 182.936046 
C 266.938757 181.376573 267.814983 179.261175 267.814983 177.055747 
C 267.814983 174.850318 266.938757 172.73492 265.379283 171.175447 
C 263.819809 169.615973 261.704412 168.739747 259.498983 168.739747 
C 257.293554 168.739747 255.178157 169.615973 253.618683 171.175447 
C 252.059209 172.73492 251.182983 174.850318 251.182983 177.055747 
C 251.182983 179.261175 252.059209 181.376573 253.618683 182.936046 
C 255.178157 184.49552 257.293554 185.371747 259.498983 185.371747 
z
" clip-path="url(#pf501b141b7)" style="fill: #1976d2; stroke: #0d47a1; stroke-width: 1.5; stroke-linejoin: miter"/>
   </g>
   <g id="patch_59">
    <path d="M 245.543545 190.539106 
C 246.719774 190.539106 247.847986 190.071785 248.679705 189.240066 
C 249.511425 188.408346 249.978745 187.280134 249.978745 186.103906 
C 249.978745 184.927677 249.511425 183.799465 248.679705 182.967746 
C 247.847986 182.136026 246.719774 181.668706 245.543545 181.668706 
C 244.367317 181.668706 243.239105 182.136026 242.407385 182.967746 
C 241.575666 183.799465 241.108345 184.927677 241.108345 186.103906 
C 241.108345 187.280134 241.575666 188.408346 242.407385 189.240066 
C 243.239105 190.071785 244.367317 190.539106 245.543545 190.539106 
z
" clip-path="url(#pf501b141b7)" style="fill: #ff5722; stroke: #d84315; stroke-linejoin: miter"/>
   </g>
   <g id="patch_60">
    <path d="M 301.783729 214.805708 
C 303.989158 214.805708 306.104555 213.929482 307.664029 212.370008 
C 309.223503 210.810534 310.099729 208.695137 310.099729 206.489708 
C 310.099729 204.284279 309.223503 202.168882 307.664029 200.609408 
C 306.104555 199.049934 303.989158 198.173708 301.783729 198.173708 
C 299.5783 198.173708 297.462903 199.049934 295.903429 200.609408 
C 294.343955 202.168882 293.467729 204.284279 293.467729 206.489708 
C 293.467729 208.695137 294.343955 210.810534 295.903429 212.370008 
C 297.462903 213.929482 299.5783 214.805708 301.783729 214.805708 
z
" clip-path="url(#pf501b141b7)" style="fill: #1976d2; stroke: #0d47a1; stroke-width: 1.5; stroke-linejoin: miter"/>
   </g>
   <g id="patch_61">
    <path d="M 344.068475 176.544912 
C 346.273904 176.544912 348.389301 175.668686 349.948775 174.109212 
C 351.508248 172.549738 352.384475 170.434341 352.384475 168.228912 
C 352.384475 166.023483 351.508248 163.908086 349.948775 162.348612 
C 348.389301 160.789138 346.273904 159.912912 344.068475 159.912912 
C 341.863046 159.912912 339.747648 160.789138 338.188175 162.348612 
C 336.628701 163.908086 335.752475 166.023483 335.752475 168.228912 
C 335.752475 170.434341 336.628701 172.549738 338.188175 174.109212 
C 339.747648 175.668686 341.863046 176.544912 344.068475 176.544912 
z
" clip-path="url(#pf501b141b7)" style="fill: #1976d2; stroke: #0d47a1; stroke-width: 1.5; stroke-linejoin: miter"/>
   </g>
   <g id="patch_62">
    <path d="M 331.433345 161.848525 
C 332.609574 161.848525 333.737786 161.381204 334.569505 160.549485 
C 335.401225 159.717765 335.868545 158.589553 335.868545 157.413325 
C 335.868545 156.237096 335.401225 155.108884 334.569505 154.277165 
C 333.737786 153.445445 332.609574 152.978125 331.433345 152.978125 
C 330.257116 152.978125 329.128905 153.445445 328.297185 154.277165 
C 327.465466 155.108884 326.998145 156.237096 326.998145 157.413325 
C 326.998145 158.589553 327.465466 159.717765 328.297185 160.549485 
C 329.128905 161.381204 330.257116 161.848525 331.433345 161.848525 
z
" clip-path="url(#pf501b141b7)" style="fill: #ff5722; stroke: #d84315; stroke-linejoin: miter"/>
   </g>
   <g id="patch_63">
    <path d="M 386.35322 149.147995 
C 388.558649 149.147995 390.674047 148.271769 392.23352 146.712295 
C 393.792994 145.152821 394.66922 143.037424 394.66922 140.831995 
C 394.66922 138.626566 393.792994 136.511169 392.23352 134.951695 
C 390.674047 133.392222 388.558649 132.515995 386.35322 132.515995 
C 384.147791 132.515995 382.032394 133.392222 380.47292 134.951695 
C 378.913447 136.511169 378.03722 138.626566 378.03722 140.831995 
C 378.03722 143.037424 378.913447 145.152821 380.47292 146.712295 
C 382.032394 148.271769 384.147791 149.147995 386.35322 149.147995 
z
" clip-path="url(#pf501b141b7)" style="fill: #1976d2; stroke: #0d47a1; stroke-width: 1.5; stroke-linejoin: miter"/>
   </g>
   <g id="patch_64">
    <path d="M 428.637966 188.867432 
C 430.843395 188.867432 432.958792 187.991205 434.518266 186.431732 
C 436.07774 184.872258 436.953966 182.756861 436.953966 180.551432 
C 436.953966 178.346003 436.07774 176.230605 434.518266 174.671132 
C 432.958792 173.111658 430.843395 172.235432 428.637966 172.235432 
C 426.432537 172.235432 424.31714 173.111658 422.757666 174.671132 
C 421.198192 176.230605 420.321966 178.346003 420.321966 180.551432 
C 420.321966 182.756861 421.198192 184.872258 422.757666 186.431732 
C 424.31714 187.991205 426.432537 188.867432 428.637966 188.867432 
z
" clip-path="url(#pf501b141b7)" style="fill: #1976d2; stroke: #0d47a1; stroke-width: 1.5; stroke-linejoin: miter"/>
   </g>
   <g id="patch_65">
    <path d="M 435.425187 169.802526 
C 436.601416 169.802526 437.729628 169.335206 438.561347 168.503486 
C 439.393066 167.671767 439.860387 166.543555 439.860387 165.367326 
C 439.860387 164.191097 439.393066 163.062886 438.561347 162.231166 
C 437.729628 161.399447 436.601416 160.932126 435.425187 160.932126 
C 434.248958 160.932126 433.120746 161.399447 432.289027 162.231166 
C 431.457308 163.062886 430.989987 164.191097 430.989987 165.367326 
C 430.989987 166.543555 431.457308 167.671767 432.289027 168.503486 
C 433.120746 169.335206 434.248958 169.802526 435.425187 169.802526 
z
" clip-path="url(#pf501b141b7)" style="fill: #ff5722; stroke: #d84315; stroke-linejoin: miter"/>
   </g>
   <g id="patch_66">
    <path d="M 470.922712 214.149644 
C 473.128141 214.149644 475.243538 213.273418 476.803012 211.713944 
C 478.362486 210.15447 479.238712 208.039073 479.238712 205.833644 
C 479.238712 203.628215 478.362486 201.512818 476.803012 199.953344 
C 475.243538 198.39387 473.128141 197.517644 470.922712 197.517644 
C 468.717283 197.517644 466.601886 198.39387 465.042412 199.953344 
C 463.482938 201.512818 462.606712 203.628215 462.606712 205.833644 
C 462.606712 208.039073 463.482938 210.15447 465.042412 211.713944 
C 466.601886 213.273418 468.717283 214.149644 470.922712 214.149644 
z
" clip-path="url(#pf501b141b7)" style="fill: #1976d2; stroke: #0d47a1; stroke-width: 1.5; stroke-linejoin: miter"/>
   </g>
   <g id="patch_67">
    <path d="M 513.207458 173.084156 
C 515.412887 173.084156 517.528284 172.20793 519.087758 170.648456 
C 520.647231 169.088983 521.523458 166.973585 521.523458 164.768156 
C 521.523458 162.562727 520.647231 160.44733 519.087758 158.887856 
C 517.528284 157.328383 515.412887 156.452156 513.207458 156.452156 
C 511.002029 156.452156 508.886631 157.328383 507.327158 158.887856 
C 505.767684 160.44733 504.891458 162.562727 504.891458 164.768156 
C 504.891458 166.973585 505.767684 169.088983 507.327158 170.648456 
C 508.886631 172.20793 511.002029 173.084156 513.207458 173.084156 
z
" clip-path="url(#pf501b141b7)" style="fill: #1976d2; stroke: #0d47a1; stroke-width: 1.5; stroke-linejoin: miter"/>
   </g>
   <g id="patch_68">
    <path d="M 529.693143 171.404631 
C 530.869372 171.404631 531.997583 170.93731 532.829303 170.105591 
C 533.661022 169.273871 534.128343 168.145659 534.128343 166.969431 
C 534.128343 165.793202 533.661022 164.66499 532.829303 163.833271 
C 531.997583 163.001551 530.869372 162.534231 529.693143 162.534231 
C 528.516914 162.534231 527.388702 163.001551 526.556983 163.833271 
C 525.725263 164.66499 525.257943 165.793202 525.257943 166.969431 
C 525.257943 168.145659 525.725263 169.273871 526.556983 170.105591 
C 527.388702 170.93731 528.516914 171.404631 529.693143 171.404631 
z
" clip-path="url(#pf501b141b7)" style="fill: #ff5722; stroke: #d84315; stroke-linejoin: miter"/>
   </g>
   <g id="patch_69">
    <path d="M 555.492203 149.988313 
C 557.697632 149.988313 559.81303 149.112087 561.372503 147.552613 
C 562.931977 145.99314 563.808203 143.877742 563.808203 141.672313 
C 563.808203 139.466884 562.931977 137.351487 561.372503 135.792013 
C 559.81303 134.23254 557.697632 133.356313 555.492203 133.356313 
C 553.286774 133.356313 551.171377 134.23254 549.611903 135.792013 
C 548.05243 137.351487 547.176203 139.466884 547.176203 141.672313 
C 547.176203 143.877742 548.05243 145.99314 549.611903 147.552613 
C 551.171377 149.112087 553.286774 149.988313 555.492203 149.988313 
z
" clip-path="url(#pf501b141b7)" style="fill: #1976d2; stroke: #0d47a1; stroke-width: 1.5; stroke-linejoin: miter"/>
   </g>
   <g id="patch_70">
    <path d="M 118.08 221.1984 
C 118.962172 221.1984 119.80833 220.84791 120.43212 220.22412 
C 121.05591 219.60033 121.4064 218.754172 121.4064 217.872 
C 121.4064 216.989828 121.05591 216.14367 120.43212 215.51988 
C 119.80833 214.89609 118.962172 214.5456 118.08 214.5456 
C 117.197828 214.5456 116.35167 214.89609 115.72788 215.51988 
C 115.10409 216.14367 114.7536 216.989828 114.7536 217.872 
C 114.7536 218.754172 115.10409 219.60033 115.72788 220.22412 
C 116.35167 220.84791 117.197828 221.1984 118.08 221.1984 
z
" clip-path="url(#pf501b141b7)" style="fill: #ff9800; stroke: #f57c00; stroke-linejoin: miter"/>
   </g>
   <g id="patch_71">
    <path d="M 209.058462 235.096365 
C 209.940633 235.096365 210.786792 234.745874 211.410582 234.122085 
C 212.034371 233.498295 212.384862 232.652136 212.384862 231.769965 
C 212.384862 230.887793 212.034371 230.041634 211.410582 229.417845 
C 210.786792 228.794055 209.940633 228.443565 209.058462 228.443565 
C 208.17629 228.443565 207.330131 228.794055 206.706342 229.417845 
C 206.082552 230.041634 205.732062 230.887793 205.732062 231.769965 
C 205.732062 232.652136 206.082552 233.498295 206.706342 234.122085 
C 207.330131 234.745874 208.17629 235.096365 209.058462 235.096365 
z
" clip-path="url(#pf501b141b7)" style="fill: #ff9800; stroke: #f57c00; stroke-linejoin: miter"/>
   </g>
   <g id="patch_72">
    <path d="M 300.036923 210.466622 
C 300.919095 210.466622 301.765254 210.116132 302.389043 209.492342 
C 303.012833 208.868553 303.363323 208.022394 303.363323 207.140222 
C 303.363323 206.258051 303.012833 205.411892 302.389043 204.788102 
C 301.765254 204.164313 300.919095 203.813822 300.036923 203.813822 
C 299.154751 203.813822 298.308593 204.164313 297.684803 204.788102 
C 297.061014 205.411892 296.710523 206.258051 296.710523 207.140222 
C 296.710523 208.022394 297.061014 208.868553 297.684803 209.492342 
C 298.308593 210.116132 299.154751 210.466622 300.036923 210.466622 
z
" clip-path="url(#pf501b141b7)" style="fill: #ff9800; stroke: #f57c00; stroke-linejoin: miter"/>
   </g>
   <g id="patch_73">
    <path d="M 391.015385 236.382368 
C 391.897556 236.382368 392.743715 236.031877 393.367505 235.408088 
C 393.991294 234.784298 394.341785 233.93814 394.341785 233.055968 
C 394.341785 232.173796 393.991294 231.327637 393.367505 230.703848 
C 392.743715 230.080058 391.897556 229.729568 391.015385 229.729568 
C 390.133213 229.729568 389.287054 230.080058 388.663265 230.703848 
C 388.039475 231.327637 387.688985 232.173796 387.688985 233.055968 
C 387.688985 233.93814 388.039475 234.784298 388.663265 235.408088 
C 389.287054 236.031877 390.133213 236.382368 391.015385 236.382368 
z
" clip-path="url(#pf501b141b7)" style="fill: #ff9800; stroke: #f57c00; stroke-linejoin: miter"/>
   </g>
   <g id="patch_74">
    <path d="M 481.993846 202.883211 
C 482.876018 202.883211 483.722177 202.53272 484.345966 201.908931 
C 484.969756 201.285141 485.320246 200.438982 485.320246 199.556811 
C 485.320246 198.674639 484.969756 197.82848 484.345966 197.204691 
C 483.722177 196.580901 482.876018 196.230411 481.993846 196.230411 
C 481.111675 196.230411 480.265516 196.580901 479.641726 197.204691 
C 479.017937 197.82848 478.667446 198.674639 478.667446 199.556811 
C 478.667446 200.438982 479.017937 201.285141 479.641726 201.908931 
C 480.265516 202.53272 481.111675 202.883211 481.993846 202.883211 
z
" clip-path="url(#pf501b141b7)" style="fill: #ff9800; stroke: #f57c00; stroke-linejoin: miter"/>
   </g>
   <g id="patch_75">
    <path d="M 228.96 270.54 
C 232.635715 270.54 236.161377 269.079623 238.7605 266.4805 
C 241.359623 263.881377 242.82 260.355715 242.82 256.68 
C 242.82 253.004285 241.359623 249.478623 238.7605 246.8795 
C 236.161377 244.280377 232.635715 242.82 228.96 242.82 
C 225.284285 242.82 221.758623 244.280377 219.1595 246.8795 
C 216.560377 249.478623 215.1 253.004285 215.1 256.68 
C 215.1 260.355715 216.560377 263.881377 219.1595 266.4805 
C 221.758623 269.079623 225.284285 270.54 228.96 270.54 
L 228.96 270.54 
z
" clip-path="url(#pf501b141b7)" style="fill: none; opacity: 0.7; stroke: #9c27b0; stroke-width: 1.5; stroke-linejoin: miter"/>
   </g>
   <g id="patch_76">
    <path d="M 228.96 259.452 
C 229.695143 259.452 230.400275 259.159925 230.9201 258.6401 
C 231.439925 258.120275 231.732 257.415143 231.732 256.68 
C 231.732 255.944857 231.439925 255.239725 230.9201 254.7199 
C 230.400275 254.200075 229.695143 253.908 228.96 253.908 
C 228.224857 253.908 227.519725 254.200075 226.9999 254.7199 
C 226.480075 255.239725 226.188 255.944857 226.188 256.68 
C 226.188 257.415143 226.480075 258.120275 226.9999 258.6401 
C 227.519725 259.159925 228.224857 259.452 228.96 259.452 
z
" clip-path="url(#pf501b141b7)" style="fill: #9c27b0"/>
   </g>
   <g id="patch_77">
    <path d="M 450.72 270.54 
C 454.395715 270.54 457.921377 269.079623 460.5205 266.4805 
C 463.119623 263.881377 464.58 260.355715 464.58 256.68 
C 464.58 253.004285 463.119623 249.478623 460.5205 246.8795 
C 457.921377 244.280377 454.395715 242.82 450.72 242.82 
C 447.044285 242.82 443.518623 244.280377 440.9195 246.8795 
C 438.320377 249.478623 436.86 253.004285 436.86 256.68 
C 436.86 260.355715 438.320377 263.881377 440.9195 266.4805 
C 443.518623 269.079623 447.044285 270.54 450.72 270.54 
L 450.72 270.54 
z
" clip-path="url(#pf501b141b7)" style="fill: none; opacity: 0.7; stroke: #9c27b0; stroke-width: 1.5; stroke-linejoin: miter"/>
   </g>
   <g id="patch_78">
    <path d="M 450.72 259.452 
C 451.455143 259.452 452.160275 259.159925 452.6801 258.6401 
C 453.199925 258.120275 453.492 257.415143 453.492 256.68 
C 453.492 255.944857 453.199925 255.239725 452.6801 254.7199 
C 452.160275 254.200075 451.455143 253.908 450.72 253.908 
C 449.984857 253.908 449.279725 254.200075 448.7599 254.7199 
C 448.240075 255.239725 447.948 255.944857 447.948 256.68 
C 447.948 257.415143 448.240075 258.120275 448.7599 258.6401 
C 449.279725 259.159925 449.984857 259.452 450.72 259.452 
z
" clip-path="url(#pf501b141b7)" style="fill: #9c27b0"/>
   </g>
   <g id="line2d_1">
    <path d="M 90.36 173.52 
L 98.816949 183.967448 
L 107.273898 193.357564 
L 115.730847 200.740024 
L 124.187797 205.367687 
L 132.644746 206.772212 
L 141.101695 204.811454 
L 149.558644 199.683851 
L 158.015593 191.908341 
L 166.472542 182.271844 
L 174.929492 171.749618 
L 183.386441 161.406563 
L 191.84339 152.289445 
L 200.300339 145.320962 
L 208.757288 141.206356 
L 217.214237 140.362045 
L 225.671186 142.873478 
L 234.128136 148.486486 
L 242.585085 156.633005 
L 251.042034 166.488568 
L 259.498983 177.055747 
L 267.955932 187.26509 
L 276.412881 196.083365 
L 284.869831 202.618119 
L 293.32678 206.208005 
L 301.783729 206.489708 
L 310.240678 203.434719 
L 318.697627 197.352217 
L 327.154576 188.857781 
L 335.611525 178.811088 
L 344.068475 168.228912 
L 352.525424 158.182219 
L 360.982373 149.687783 
L 369.439322 143.605281 
L 377.896271 140.550292 
L 386.35322 140.831995 
L 394.810169 144.421881 
L 403.267119 150.956635 
L 411.724068 159.77491 
L 420.181017 169.984253 
L 428.637966 180.551432 
L 437.094915 190.406995 
L 445.551864 198.553514 
L 454.008814 204.166522 
L 462.465763 206.677955 
L 470.922712 205.833644 
L 479.379661 201.719038 
L 487.83661 194.750555 
L 496.293559 185.633437 
L 504.750508 175.290382 
L 513.207458 164.768156 
L 521.664407 155.131659 
L 530.121356 147.356149 
L 538.578305 142.228546 
L 547.035254 140.267788 
L 555.492203 141.672313 
L 563.949153 146.299976 
L 572.406102 153.682436 
L 580.863051 163.072552 
L 589.32 173.52 
" clip-path="url(#pf501b141b7)" style="fill: none; stroke: #2e7d32; stroke-opacity: 0.9; stroke-width: 2.5; stroke-linecap: square"/>
   </g>
   <g id="line2d_2">
    <path d="M 118.08 217.872 
L 129.452308 219.808307 
L 140.824615 222.538433 
L 152.196923 226.376138 
L 163.569231 230.884259 
L 174.941538 234.936618 
L 186.313846 237.099542 
L 197.686154 236.187189 
L 209.058462 231.769965 
L 220.430769 224.428723 
L 231.803077 215.64436 
L 243.175385 207.354465 
L 254.547692 201.339366 
L 265.92 198.667021 
L 277.292308 199.403059 
L 288.664615 202.688032 
L 300.036923 207.140222 
L 311.409231 211.416465 
L 322.781538 214.705347 
L 334.153846 216.959647 
L 345.526154 218.784353 
L 356.898462 221.038653 
L 368.270769 224.327535 
L 379.643077 228.603778 
L 391.015385 233.055968 
L 402.387692 236.340941 
L 413.76 237.076979 
L 425.132308 234.404634 
L 436.504615 228.389535 
L 447.876923 220.09964 
L 459.249231 211.315277 
L 470.621538 203.974035 
L 481.993846 199.556811 
L 493.366154 198.644458 
L 504.738462 200.807382 
L 516.110769 204.859741 
L 527.483077 209.367862 
L 538.855385 213.205567 
L 550.227692 215.935693 
L 561.6 217.872 
" clip-path="url(#pf501b141b7)" style="fill: none; stroke: #ff9800; stroke-opacity: 0.8; stroke-width: 2; stroke-linecap: square"/>
   </g>
   <g id="text_1">
    <!-- $\Delta G_{bind}$ -->
    <g style="fill: #ffc107" transform="translate(146.34 73.728) scale(0.18 -0.18)">
     <defs>
      <path id="DejaVuSans-394" d="M 2188 4044 
L 906 525 
L 3472 525 
L 2188 4044 
z
M 50 0 
L 1831 4666 
L 2547 4666 
L 4325 0 
L 50 0 
z
" transform="scale(0.015625)"/>
      <path id="DejaVuSans-Oblique-47" d="M 3494 697 
L 3738 1919 
L 2700 1919 
L 2797 2438 
L 4453 2438 
L 4050 384 
Q 3634 156 3143 32 
Q 2653 -91 2156 -91 
Q 1278 -91 783 396 
Q 288 884 288 1753 
Q 288 2475 589 3126 
Q 891 3778 1422 4213 
Q 1756 4484 2153 4617 
Q 2550 4750 3034 4750 
Q 3472 4750 3873 4639 
Q 4275 4528 4641 4306 
L 4513 3634 
Q 4231 3928 3853 4083 
Q 3475 4238 3047 4238 
Q 2550 4238 2172 4048 
Q 1794 3859 1497 3463 
Q 1244 3125 1098 2667 
Q 953 2209 953 1734 
Q 953 1081 1287 751 
Q 1622 422 2284 422 
Q 2616 422 2925 492 
Q 3234 563 3494 697 
z
" transform="scale(0.015625)"/>
      <path id="DejaVuSans-Oblique-62" d="M 3169 2138 
Q 3169 2591 2961 2847 
Q 2753 3103 2388 3103 
Q 2122 3103 1889 2973 
Q 1656 2844 1484 2597 
Q 1303 2338 1198 1995 
Q 1094 1653 1094 1313 
Q 1094 881 1298 636 
Q 1503 391 1863 391 
Q 2134 391 2365 517 
Q 2597 644 2772 891 
Q 2950 1147 3059 1487 
Q 3169 1828 3169 2138 
z
M 1381 2969 
Q 1594 3256 1914 3420 
Q 2234 3584 2584 3584 
Q 3122 3584 3439 3221 
Q 3756 2859 3756 2241 
Q 3756 1734 3570 1259 
Q 3384 784 3041 416 
Q 2816 172 2522 40 
Q 2228 -91 1906 -91 
Q 1566 -91 1316 65 
Q 1066 222 909 531 
L 806 0 
L 231 0 
L 1178 4863 
L 1753 4863 
L 1381 2969 
z
" transform="scale(0.015625)"/>
      <path id="DejaVuSans-Oblique-69" d="M 1172 4863 
L 1747 4863 
L 1606 4134 
L 1031 4134 
L 1172 4863 
z
M 909 3500 
L 1484 3500 
L 800 0 
L 225 0 
L 909 3500 
z
" transform="scale(0.015625)"/>
      <path id="DejaVuSans-Oblique-6e" d="M 3566 2113 
L 3156 0 
L 2578 0 
L 2988 2091 
Q 3016 2238 3031 2350 
Q 3047 2463 3047 2528 
Q 3047 2791 2881 2937 
Q 2716 3084 2419 3084 
Q 1956 3084 1622 2776 
Q 1288 2469 1184 1941 
L 800 0 
L 225 0 
L 903 3500 
L 1478 3500 
L 1363 2950 
Q 1603 3253 1940 3418 
Q 2278 3584 2650 3584 
Q 3113 3584 3367 3334 
Q 3622 3084 3622 2631 
Q 3622 2519 3608 2391 
Q 3594 2263 3566 2113 
z
" transform="scale(0.015625)"/>
      <path id="DejaVuSans-Oblique-64" d="M 2675 525 
Q 2444 222 2128 65 
Q 1813 -91 1428 -91 
Q 903 -91 598 267 
Q 294 625 294 1247 
Q 294 1766 478 2236 
Q 663 2706 1013 3078 
Q 1244 3325 1534 3454 
Q 1825 3584 2144 3584 
Q 2481 3584 2739 3421 
Q 2997 3259 3138 2956 
L 3513 4863 
L 4091 4863 
L 3144 0 
L 2566 0 
L 2675 525 
z
M 891 1350 
Q 891 897 1095 644 
Q 1300 391 1663 391 
Q 1931 391 2161 520 
Q 2391 650 2566 903 
Q 2750 1166 2856 1509 
Q 2963 1853 2963 2188 
Q 2963 2622 2758 2865 
Q 2553 3109 2194 3109 
Q 1922 3109 1687 2981 
Q 1453 2853 1288 2613 
Q 1106 2353 998 2009 
Q 891 1666 891 1350 
z
" transform="scale(0.015625)"/>
     </defs>
     <use xlink:href="#DejaVuSans-394" transform="translate(0 0.78125)"/>
     <use xlink:href="#DejaVuSans-Oblique-47" transform="translate(68.408203 0.78125)"/>
     <use xlink:href="#DejaVuSans-Oblique-62" transform="translate(145.898438 -15.625) scale(0.7)"/>
     <use xlink:href="#DejaVuSans-Oblique-69" transform="translate(190.332031 -15.625) scale(0.7)"/>
     <use xlink:href="#DejaVuSans-Oblique-6e" transform="translate(209.780273 -15.625) scale(0.7)"/>
     <use xlink:href="#DejaVuSans-Oblique-64" transform="translate(254.145508 -15.625) scale(0.7)"/>
    </g>
   </g>
   <g id="text_2">
    <!-- MM/GBSA -->
    <g style="fill: #ffffff" transform="translate(468.131406 73.728) scale(0.14 -0.14)">
     <defs>
      <path id="DejaVuSans-Bold-4d" d="M 588 4666 
L 2119 4666 
L 3181 2169 
L 4250 4666 
L 5778 4666 
L 5778 0 
L 4641 0 
L 4641 3413 
L 3566 897 
L 2803 897 
L 1728 3413 
L 1728 0 
L 588 0 
L 588 4666 
z
" transform="scale(0.015625)"/>
      <path id="DejaVuSans-Bold-2f" d="M 1644 4666 
L 2338 4666 
L 691 -594 
L 0 -594 
L 1644 4666 
z
" transform="scale(0.015625)"/>
      <path id="DejaVuSans-Bold-47" d="M 4781 347 
Q 4331 128 3847 18 
Q 3363 -91 2847 -91 
Q 1681 -91 1000 561 
Q 319 1213 319 2328 
Q 319 3456 1012 4103 
Q 1706 4750 2913 4750 
Q 3378 4750 3804 4662 
Q 4231 4575 4609 4403 
L 4609 3438 
Q 4219 3659 3833 3768 
Q 3447 3878 3059 3878 
Q 2341 3878 1952 3476 
Q 1563 3075 1563 2328 
Q 1563 1588 1938 1184 
Q 2313 781 3003 781 
Q 3191 781 3352 804 
Q 3513 828 3641 878 
L 3641 1784 
L 2906 1784 
L 2906 2591 
L 4781 2591 
L 4781 347 
z
" transform="scale(0.015625)"/>
      <path id="DejaVuSans-Bold-42" d="M 2456 2859 
Q 2741 2859 2887 2984 
Q 3034 3109 3034 3353 
Q 3034 3594 2887 3720 
Q 2741 3847 2456 3847 
L 1791 3847 
L 1791 2859 
L 2456 2859 
z
M 2497 819 
Q 2859 819 3042 972 
Q 3225 1125 3225 1434 
Q 3225 1738 3044 1889 
Q 2863 2041 2497 2041 
L 1791 2041 
L 1791 819 
L 2497 819 
z
M 3616 2497 
Q 4003 2384 4215 2081 
Q 4428 1778 4428 1338 
Q 4428 663 3972 331 
Q 3516 0 2584 0 
L 588 0 
L 588 4666 
L 2394 4666 
Q 3366 4666 3802 4372 
Q 4238 4078 4238 3431 
Q 4238 3091 4078 2852 
Q 3919 2613 3616 2497 
z
" transform="scale(0.015625)"/>
      <path id="DejaVuSans-Bold-53" d="M 3834 4519 
L 3834 3531 
Q 3450 3703 3084 3790 
Q 2719 3878 2394 3878 
Q 1963 3878 1756 3759 
Q 1550 3641 1550 3391 
Q 1550 3203 1689 3098 
Q 1828 2994 2194 2919 
L 2706 2816 
Q 3484 2659 3812 2340 
Q 4141 2022 4141 1434 
Q 4141 663 3683 286 
Q 3225 -91 2284 -91 
Q 1841 -91 1394 -6 
Q 947 78 500 244 
L 500 1259 
Q 947 1022 1364 901 
Q 1781 781 2169 781 
Q 2563 781 2772 912 
Q 2981 1044 2981 1288 
Q 2981 1506 2839 1625 
Q 2697 1744 2272 1838 
L 1806 1941 
Q 1106 2091 782 2419 
Q 459 2747 459 3303 
Q 459 4000 909 4375 
Q 1359 4750 2203 4750 
Q 2588 4750 2994 4692 
Q 3400 4634 3834 4519 
z
" transform="scale(0.015625)"/>
      <path id="DejaVuSans-Bold-41" d="M 3419 850 
L 1538 850 
L 1241 0 
L 31 0 
L 1759 4666 
L 3194 4666 
L 4922 0 
L 3713 0 
L 3419 850 
z
M 1838 1716 
L 3116 1716 
L 2478 3572 
L 1838 1716 
z
" transform="scale(0.015625)"/>
     </defs>
     <use xlink:href="#DejaVuSans-Bold-4d"/>
     <use xlink:href="#DejaVuSans-Bold-4d" transform="translate(99.511719 0)"/>
     <use xlink:href="#DejaVuSans-Bold-2f" transform="translate(199.023438 0)"/>
     <use xlink:href="#DejaVuSans-Bold-47" transform="translate(235.546875 0)"/>
     <use xlink:href="#DejaVuSans-Bold-42" transform="translate(317.626953 0)"/>
     <use xlink:href="#DejaVuSans-Bold-53" transform="translate(393.847656 0)"/>
     <use xlink:href="#DejaVuSans-Bold-41" transform="translate(465.869141 0)"/>
    </g>
   </g>
   <g id="text_3">
    <!-- OpenGBSA -->
    <g style="fill: #ffffff" transform="translate(261.409375 240.048) scale(0.26 -0.26)">
     <defs>
      <path id="DejaVuSans-Bold-4f" d="M 2719 3878 
Q 2169 3878 1866 3472 
Q 1563 3066 1563 2328 
Q 1563 1594 1866 1187 
Q 2169 781 2719 781 
Q 3272 781 3575 1187 
Q 3878 1594 3878 2328 
Q 3878 3066 3575 3472 
Q 3272 3878 2719 3878 
z
M 2719 4750 
Q 3844 4750 4481 4106 
Q 5119 3463 5119 2328 
Q 5119 1197 4481 553 
Q 3844 -91 2719 -91 
Q 1597 -91 958 553 
Q 319 1197 319 2328 
Q 319 3463 958 4106 
Q 1597 4750 2719 4750 
z
" transform="scale(0.015625)"/>
      <path id="DejaVuSans-Bold-70" d="M 1656 506 
L 1656 -1331 
L 538 -1331 
L 538 3500 
L 1656 3500 
L 1656 2988 
Q 1888 3294 2169 3439 
Q 2450 3584 2816 3584 
Q 3463 3584 3878 3070 
Q 4294 2556 4294 1747 
Q 4294 938 3878 423 
Q 3463 -91 2816 -91 
Q 2450 -91 2169 54 
Q 1888 200 1656 506 
z
M 2400 2772 
Q 2041 2772 1848 2508 
Q 1656 2244 1656 1747 
Q 1656 1250 1848 986 
Q 2041 722 2400 722 
Q 2759 722 2948 984 
Q 3138 1247 3138 1747 
Q 3138 2247 2948 2509 
Q 2759 2772 2400 2772 
z
" transform="scale(0.015625)"/>
      <path id="DejaVuSans-Bold-65" d="M 4031 1759 
L 4031 1441 
L 1416 1441 
Q 1456 1047 1700 850 
Q 1944 653 2381 653 
Q 2734 653 3104 758 
Q 3475 863 3866 1075 
L 3866 213 
Q 3469 63 3072 -14 
Q 2675 -91 2278 -91 
Q 1328 -91 801 392 
Q 275 875 275 1747 
Q 275 2603 792 3093 
Q 1309 3584 2216 3584 
Q 3041 3584 3536 3087 
Q 4031 2591 4031 1759 
z
M 2881 2131 
Q 2881 2450 2695 2645 
Q 2509 2841 2209 2841 
Q 1884 2841 1681 2658 
Q 1478 2475 1428 2131 
L 2881 2131 
z
" transform="scale(0.015625)"/>
      <path id="DejaVuSans-Bold-6e" d="M 4056 2131 
L 4056 0 
L 2931 0 
L 2931 347 
L 2931 1631 
Q 2931 2084 2911 2256 
Q 2891 2428 2841 2509 
Q 2775 2619 2662 2680 
Q 2550 2741 2406 2741 
Q 2056 2741 1856 2470 
Q 1656 2200 1656 1722 
L 1656 0 
L 538 0 
L 538 3500 
L 1656 3500 
L 1656 2988 
Q 1909 3294 2193 3439 
Q 2478 3584 2822 3584 
Q 3428 3584 3742 3212 
Q 4056 2841 4056 2131 
z
" transform="scale(0.015625)"/>
     </defs>
     <use xlink:href="#DejaVuSans-Bold-4f"/>
     <use xlink:href="#DejaVuSans-Bold-70" transform="translate(85.009766 0)"/>
     <use xlink:href="#DejaVuSans-Bold-65" transform="translate(156.591797 0)"/>
     <use xlink:href="#DejaVuSans-Bold-6e" transform="translate(224.414062 0)"/>
     <use xlink:href="#DejaVuSans-Bold-47" transform="translate(295.605469 0)"/>
     <use xlink:href="#DejaVuSans-Bold-42" transform="translate(377.685547 0)"/>
     <use xlink:href="#DejaVuSans-Bold-53" transform="translate(453.90625 0)"/>
     <use xlink:href="#DejaVuSans-Bold-41" transform="translate(525.927734 0)"/>
    </g>
   </g>
   <g id="text_4">
    <!-- Molecular Mechanics / Generalized Born Surface Area -->
    <g style="fill: #bdbdbd" transform="translate(219.315234 273.312) scale(0.09 -0.09)">
     <defs>
      <path id="DejaVuSans-4d" d="M 628 4666 
L 1569 4666 
L 2759 1491 
L 3956 4666 
L 4897 4666 
L 4897 0 
L 4281 0 
L 4281 4097 
L 3078 897 
L 2444 897 
L 1241 4097 
L 1241 0 
L 628 0 
L 628 4666 
z
" transform="scale(0.015625)"/>
      <path id="DejaVuSans-6f" d="M 1959 3097 
Q 1497 3097 1228 2736 
Q 959 2375 959 1747 
Q 959 1119 1226 758 
Q 1494 397 1959 397 
Q 2419 397 2687 759 
Q 2956 1122 2956 1747 
Q 2956 2369 2687 2733 
Q 2419 3097 1959 3097 
z
M 1959 3584 
Q 2709 3584 3137 3096 
Q 3566 2609 3566 1747 
Q 3566 888 3137 398 
Q 2709 -91 1959 -91 
Q 1206 -91 779 398 
Q 353 888 353 1747 
Q 353 2609 779 3096 
Q 1206 3584 1959 3584 
z
" transform="scale(0.015625)"/>
      <path id="DejaVuSans-6c" d="M 603 4863 
L 1178 4863 
L 1178 0 
L 603 0 
L 603 4863 
z
" transform="scale(0.015625)"/>
      <path id="DejaVuSans-65" d="M 3597 1894 
L 3597 1613 
L 953 1613 
Q 991 1019 1311 708 
Q 1631 397 2203 397 
Q 2534 397 2845 478 
Q 3156 559 3463 722 
L 3463 178 
Q 3153 47 2828 -22 
Q 2503 -91 2169 -91 
Q 1331 -91 842 396 
Q 353 884 353 1716 
Q 353 2575 817 3079 
Q 1281 3584 2069 3584 
Q 2775 3584 3186 3129 
Q 3597 2675 3597 1894 
z
M 3022 2063 
Q 3016 2534 2758 2815 
Q 2500 3097 2075 3097 
Q 1594 3097 1305 2825 
Q 1016 2553 972 2059 
L 3022 2063 
z
" transform="scale(0.015625)"/>
      <path id="DejaVuSans-63" d="M 3122 3366 
L 3122 2828 
Q 2878 2963 2633 3030 
Q 2388 3097 2138 3097 
Q 1578 3097 1268 2742 
Q 959 2388 959 1747 
Q 959 1106 1268 751 
Q 1578 397 2138 397 
Q 2388 397 2633 464 
Q 2878 531 3122 666 
L 3122 134 
Q 2881 22 2623 -34 
Q 2366 -91 2075 -91 
Q 1284 -91 818 406 
Q 353 903 353 1747 
Q 353 2603 823 3093 
Q 1294 3584 2113 3584 
Q 2378 3584 2631 3529 
Q 2884 3475 3122 3366 
z
" transform="scale(0.015625)"/>
      <path id="DejaVuSans-75" d="M 544 1381 
L 544 3500 
L 1119 3500 
L 1119 1403 
Q 1119 906 1312 657 
Q 1506 409 1894 409 
Q 2359 409 2629 706 
Q 2900 1003 2900 1516 
L 2900 3500 
L 3475 3500 
L 3475 0 
L 2900 0 
L 2900 538 
Q 2691 219 2414 64 
Q 2138 -91 1772 -91 
Q 1169 -91 856 284 
Q 544 659 544 1381 
z
M 1991 3584 
L 1991 3584 
z
" transform="scale(0.015625)"/>
      <path id="DejaVuSans-61" d="M 2194 1759 
Q 1497 1759 1228 1600 
Q 959 1441 959 1056 
Q 959 750 1161 570 
Q 1363 391 1709 391 
Q 2188 391 2477 730 
Q 2766 1069 2766 1631 
L 2766 1759 
L 2194 1759 
z
M 3341 1997 
L 3341 0 
L 2766 0 
L 2766 531 
Q 2569 213 2275 61 
Q 1981 -91 1556 -91 
Q 1019 -91 701 211 
Q 384 513 384 1019 
Q 384 1609 779 1909 
Q 1175 2209 1959 2209 
L 2766 2209 
L 2766 2266 
Q 2766 2663 2505 2880 
Q 2244 3097 1772 3097 
Q 1472 3097 1187 3025 
Q 903 2953 641 2809 
L 641 3341 
Q 956 3463 1253 3523 
Q 1550 3584 1831 3584 
Q 2591 3584 2966 3190 
Q 3341 2797 3341 1997 
z
" transform="scale(0.015625)"/>
      <path id="DejaVuSans-72" d="M 2631 2963 
Q 2534 3019 2420 3045 
Q 2306 3072 2169 3072 
Q 1681 3072 1420 2755 
Q 1159 2438 1159 1844 
L 1159 0 
L 581 0 
L 581 3500 
L 1159 3500 
L 1159 2956 
Q 1341 3275 1631 3429 
Q 1922 3584 2338 3584 
Q 2397 3584 2469 3576 
Q 2541 3569 2628 3553 
L 2631 2963 
z
" transform="scale(0.015625)"/>
      <path id="DejaVuSans-20" transform="scale(0.015625)"/>
      <path id="DejaVuSans-68" d="M 3513 2113 
L 3513 0 
L 2938 0 
L 2938 2094 
Q 2938 2591 2744 2837 
Q 2550 3084 2163 3084 
Q 1697 3084 1428 2787 
Q 1159 2491 1159 1978 
L 1159 0 
L 581 0 
L 581 4863 
L 1159 4863 
L 1159 2956 
Q 1366 3272 1645 3428 
Q 1925 3584 2291 3584 
Q 2894 3584 3203 3211 
Q 3513 2838 3513 2113 
z
" transform="scale(0.015625)"/>
      <path id="DejaVuSans-6e" d="M 3513 2113 
L 3513 0 
L 2938 0 
L 2938 2094 
Q 2938 2591 2744 2837 
Q 2550 3084 2163 3084 
Q 1697 3084 1428 2787 
Q 1159 2491 1159 1978 
L 1159 0 
L 581 0 
L 581 3500 
L 1159 3500 
L 1159 2956 
Q 1366 3272 1645 3428 
Q 1925 3584 2291 3584 
Q 2894 3584 3203 3211 
Q 3513 2838 3513 2113 
z
" transform="scale(0.015625)"/>
      <path id="DejaVuSans-69" d="M 603 3500 
L 1178 3500 
L 1178 0 
L 603 0 
L 603 3500 
z
M 603 4863 
L 1178 4863 
L 1178 4134 
L 603 4134 
L 603 4863 
z
" transform="scale(0.015625)"/>
      <path id="DejaVuSans-73" d="M 2834 3397 
L 2834 2853 
Q 2591 2978 2328 3040 
Q 2066 3103 1784 3103 
Q 1356 3103 1142 2972 
Q 928 2841 928 2578 
Q 928 2378 1081 2264 
Q 1234 2150 1697 2047 
L 1894 2003 
Q 2506 1872 2764 1633 
Q 3022 1394 3022 966 
Q 3022 478 2636 193 
Q 2250 -91 1575 -91 
Q 1294 -91 989 -36 
Q 684 19 347 128 
L 347 722 
Q 666 556 975 473 
Q 1284 391 1588 391 
Q 1994 391 2212 530 
Q 2431 669 2431 922 
Q 2431 1156 2273 1281 
Q 2116 1406 1581 1522 
L 1381 1569 
Q 847 1681 609 1914 
Q 372 2147 372 2553 
Q 372 3047 722 3315 
Q 1072 3584 1716 3584 
Q 2034 3584 2315 3537 
Q 2597 3491 2834 3397 
z
" transform="scale(0.015625)"/>
      <path id="DejaVuSans-2f" d="M 1625 4666 
L 2156 4666 
L 531 -594 
L 0 -594 
L 1625 4666 
z
" transform="scale(0.015625)"/>
      <path id="DejaVuSans-47" d="M 3809 666 
L 3809 1919 
L 2778 1919 
L 2778 2438 
L 4434 2438 
L 4434 434 
Q 4069 175 3628 42 
Q 3188 -91 2688 -91 
Q 1594 -91 976 548 
Q 359 1188 359 2328 
Q 359 3472 976 4111 
Q 1594 4750 2688 4750 
Q 3144 4750 3555 4637 
Q 3966 4525 4313 4306 
L 4313 3634 
Q 3963 3931 3569 4081 
Q 3175 4231 2741 4231 
Q 1884 4231 1454 3753 
Q 1025 3275 1025 2328 
Q 1025 1384 1454 906 
Q 1884 428 2741 428 
Q 3075 428 3337 486 
Q 3600 544 3809 666 
z
" transform="scale(0.015625)"/>
      <path id="DejaVuSans-7a" d="M 353 3500 
L 3084 3500 
L 3084 2975 
L 922 459 
L 3084 459 
L 3084 0 
L 275 0 
L 275 525 
L 2438 3041 
L 353 3041 
L 353 3500 
z
" transform="scale(0.015625)"/>
      <path id="DejaVuSans-64" d="M 2906 2969 
L 2906 4863 
L 3481 4863 
L 3481 0 
L 2906 0 
L 2906 525 
Q 2725 213 2448 61 
Q 2172 -91 1784 -91 
Q 1150 -91 751 415 
Q 353 922 353 1747 
Q 353 2572 751 3078 
Q 1150 3584 1784 3584 
Q 2172 3584 2448 3432 
Q 2725 3281 2906 2969 
z
M 947 1747 
Q 947 1113 1208 752 
Q 1469 391 1925 391 
Q 2381 391 2643 752 
Q 2906 1113 2906 1747 
Q 2906 2381 2643 2742 
Q 2381 3103 1925 3103 
Q 1469 3103 1208 2742 
Q 947 2381 947 1747 
z
" transform="scale(0.015625)"/>
      <path id="DejaVuSans-42" d="M 1259 2228 
L 1259 519 
L 2272 519 
Q 2781 519 3026 730 
Q 3272 941 3272 1375 
Q 3272 1813 3026 2020 
Q 2781 2228 2272 2228 
L 1259 2228 
z
M 1259 4147 
L 1259 2741 
L 2194 2741 
Q 2656 2741 2882 2914 
Q 3109 3088 3109 3444 
Q 3109 3797 2882 3972 
Q 2656 4147 2194 4147 
L 1259 4147 
z
M 628 4666 
L 2241 4666 
Q 2963 4666 3353 4366 
Q 3744 4066 3744 3513 
Q 3744 3084 3544 2831 
Q 3344 2578 2956 2516 
Q 3422 2416 3680 2098 
Q 3938 1781 3938 1306 
Q 3938 681 3513 340 
Q 3088 0 2303 0 
L 628 0 
L 628 4666 
z
" transform="scale(0.015625)"/>
      <path id="DejaVuSans-53" d="M 3425 4513 
L 3425 3897 
Q 3066 4069 2747 4153 
Q 2428 4238 2131 4238 
Q 1616 4238 1336 4038 
Q 1056 3838 1056 3469 
Q 1056 3159 1242 3001 
Q 1428 2844 1947 2747 
L 2328 2669 
Q 3034 2534 3370 2195 
Q 3706 1856 3706 1288 
Q 3706 609 3251 259 
Q 2797 -91 1919 -91 
Q 1588 -91 1214 -16 
Q 841 59 441 206 
L 441 856 
Q 825 641 1194 531 
Q 1563 422 1919 422 
Q 2459 422 2753 634 
Q 3047 847 3047 1241 
Q 3047 1584 2836 1778 
Q 2625 1972 2144 2069 
L 1759 2144 
Q 1053 2284 737 2584 
Q 422 2884 422 3419 
Q 422 4038 858 4394 
Q 1294 4750 2059 4750 
Q 2388 4750 2728 4690 
Q 3069 4631 3425 4513 
z
" transform="scale(0.015625)"/>
      <path id="DejaVuSans-66" d="M 2375 4863 
L 2375 4384 
L 1825 4384 
Q 1516 4384 1395 4259 
Q 1275 4134 1275 3809 
L 1275 3500 
L 2222 3500 
L 2222 3053 
L 1275 3053 
L 1275 0 
L 697 0 
L 697 3053 
L 147 3053 
L 147 3500 
L 697 3500 
L 697 3744 
Q 697 4328 969 4595 
Q 1241 4863 1831 4863 
L 2375 4863 
z
" transform="scale(0.015625)"/>
      <path id="DejaVuSans-41" d="M 2188 4044 
L 1331 1722 
L 3047 1722 
L 2188 4044 
z
M 1831 4666 
L 2547 4666 
L 4325 0 
L 3669 0 
L 3244 1197 
L 1141 1197 
L 716 0 
L 50 0 
L 1831 4666 
z
" transform="scale(0.015625)"/>
     </defs>
     <use xlink:href="#DejaVuSans-4d"/>
     <use xlink:href="#DejaVuSans-6f" transform="translate(86.279297 0)"/>
     <use xlink:href="#DejaVuSans-6c" transform="translate(147.460938 0)"/>
     <use xlink:href="#DejaVuSans-65" transform="translate(175.244141 0)"/>
     <use xlink:href="#DejaVuSans-63" transform="translate(236.767578 0)"/>
     <use xlink:href="#DejaVuSans-75" transform="translate(291.748047 0)"/>
     <use xlink:href="#DejaVuSans-6c" transform="translate(355.126953 0)"/>
     <use xlink:href="#DejaVuSans-61" transform="translate(382.910156 0)"/>
     <use xlink:href="#DejaVuSans-72" transform="translate(444.189453 0)"/>
     <use xlink:href="#DejaVuSans-20" transform="translate(485.302734 0)"/>
     <use xlink:href="#DejaVuSans-4d" transform="translate(517.089844 0)"/>
     <use xlink:href="#DejaVuSans-65" transform="translate(603.369141 0)"/>
     <use xlink:href="#DejaVuSans-63" transform="translate(664.892578 0)"/>
     <use xlink:href="#DejaVuSans-68" transform="translate(719.873047 0)"/>
     <use xlink:href="#DejaVuSans-61" transform="translate(783.251953 0)"/>
     <use xlink:href="#DejaVuSans-6e" transform="translate(844.53125 0)"/>
     <use xlink:href="#DejaVuSans-69" transform="translate(907.910156 0)"/>
     <use xlink:href="#DejaVuSans-63" transform="translate(935.693359 0)"/>
     <use xlink:href="#DejaVuSans-73" transform="translate(990.673828 0)"/>
     <use xlink:href="#DejaVuSans-20" transform="translate(1042.773438 0)"/>
     <use xlink:href="#DejaVuSans-2f" transform="translate(1074.560547 0)"/>
     <use xlink:href="#DejaVuSans-20" transform="translate(1108.251953 0)"/>
     <use xlink:href="#DejaVuSans-47" transform="translate(1140.039062 0)"/>
     <use xlink:href="#DejaVuSans-65" transform="translate(1217.529297 0)"/>
     <use xlink:href="#DejaVuSans-6e" transform="translate(1279.052734 0)"/>
     <use xlink:href="#DejaVuSans-65" transform="translate(1342.431641 0)"/>
     <use xlink:href="#DejaVuSans-72" transform="translate(1403.955078 0)"/>
     <use xlink:href="#DejaVuSans-61" transform="translate(1445.068359 0)"/>
     <use xlink:href="#DejaVuSans-6c" transform="translate(1506.347656 0)"/>
     <use xlink:href="#DejaVuSans-69" transform="translate(1534.130859 0)"/>
     <use xlink:href="#DejaVuSans-7a" transform="translate(1561.914062 0)"/>
     <use xlink:href="#DejaVuSans-65" transform="translate(1614.404297 0)"/>
     <use xlink:href="#DejaVuSans-64" transform="translate(1675.927734 0)"/>
     <use xlink:href="#DejaVuSans-20" transform="translate(1739.404297 0)"/>
     <use xlink:href="#DejaVuSans-42" transform="translate(1771.191406 0)"/>
     <use xlink:href="#DejaVuSans-6f" transform="translate(1839.794922 0)"/>
     <use xlink:href="#DejaVuSans-72" transform="translate(1900.976562 0)"/>
     <use xlink:href="#DejaVuSans-6e" transform="translate(1940.339844 0)"/>
     <use xlink:href="#DejaVuSans-20" transform="translate(2003.71875 0)"/>
     <use xlink:href="#DejaVuSans-53" transform="translate(2035.505859 0)"/>
     <use xlink:href="#DejaVuSans-75" transform="translate(2098.982422 0)"/>
     <use xlink:href="#DejaVuSans-72" transform="translate(2162.361328 0)"/>
     <use xlink:href="#DejaVuSans-66" transform="translate(2203.474609 0)"/>
     <use xlink:href="#DejaVuSans-61" transform="translate(2238.679688 0)"/>
     <use xlink:href="#DejaVuSans-63" transform="translate(2299.958984 0)"/>
     <use xlink:href="#DejaVuSans-65" transform="translate(2354.939453 0)"/>
     <use xlink:href="#DejaVuSans-20" transform="translate(2416.462891 0)"/>
     <use xlink:href="#DejaVuSans-41" transform="translate(2448.25 0)"/>
     <use xlink:href="#DejaVuSans-72" transform="translate(2516.658203 0)"/>
     <use xlink:href="#DejaVuSans-65" transform="translate(2555.521484 0)"/>
     <use xlink:href="#DejaVuSans-61" transform="translate(2617.044922 0)"/>
    </g>
   </g>
  </g>
 </g>
 <defs>
  <clipPath id="pf501b141b7">
   <rect x="7.2" y="7.2" width="665.28" height="332.64"/>
  </clipPath>
 </defs>
</svg>
