<?xml version="1.0" encoding="utf-8" standalone="no"?>
<!DOCTYPE svg PUBLIC "-//W3C//DTD SVG 1.1//EN"
  "http://www.w3.org/Graphics/SVG/1.1/DTD/svg11.dtd">
<svg xmlns:xlink="http://www.w3.org/1999/xlink" width="457.92pt" height="457.92pt" viewBox="0 0 457.92 457.92" xmlns="http://www.w3.org/2000/svg" version="1.1">
 <metadata>
  <rdf:RDF xmlns:dc="http://purl.org/dc/elements/1.1/" xmlns:cc="http://creativecommons.org/ns#" xmlns:rdf="http://www.w3.org/1999/02/22-rdf-syntax-ns#">
   <cc:Work>
    <dc:type rdf:resource="http://purl.org/dc/dcmitype/StillImage"/>
    <dc:date>2025-07-20T23:41:50.342536</dc:date>
    <dc:format>image/svg+xml</dc:format>
    <dc:creator>
     <cc:Agent>
      <dc:title>Matplotlib v3.10.3, https://matplotlib.org/</dc:title>
     </cc:Agent>
    </dc:creator>
   </cc:Work>
  </rdf:RDF>
 </metadata>
 <defs>
  <style type="text/css">*{stroke-linejoin: round; stroke-linecap: butt}</style>
 </defs>
 <g id="figure_1">
  <g id="patch_1">
   <path d="M 0 457.92 
L 457.92 457.92 
L 457.92 0 
L 0 0 
L 0 457.92 
z
" style="fill: none"/>
  </g>
  <g id="axes_1">
   <g id="patch_2">
    <path d="M 7.2 450.72 
L 450.72 450.72 
L 450.72 7.2 
L 7.2 7.2 
z
" clip-path="url(#p5a12d71fe8)" style="fill: #0a0a0a"/>
   </g>
   <g id="patch_3">
    <path d="M 7.2 428.544 
L -1 433.278272 
M 26.404979 458.92 
L 26.404979 439.632 
L 7.2 428.544 
" clip-path="url(#p5a12d71fe8)" style="fill: none; opacity: 0.05; stroke: #333333; stroke-width: 0.5; stroke-linejoin: miter"/>
   </g>
   <g id="patch_4">
    <path d="M 23.832 390.134041 
L 4.627021 401.222041 
L 4.627021 423.398041 
L 23.832 434.486041 
L 43.036979 423.398041 
L 43.036979 401.222041 
L 23.832 390.134041 
z
" clip-path="url(#p5a12d71fe8)" style="fill: none; opacity: 0.05; stroke: #333333; stroke-width: 0.5; stroke-linejoin: miter"/>
   </g>
   <g id="patch_5">
    <path d="M 7.2 351.724083 
L -1 356.458355 
M -1 391.34181 
L 7.2 396.076083 
L 26.404979 384.988083 
L 26.404979 362.812083 
L 7.2 351.724083 
" clip-path="url(#p5a12d71fe8)" style="fill: none; opacity: 0.05; stroke: #333333; stroke-width: 0.5; stroke-linejoin: miter"/>
   </g>
   <g id="patch_6">
    <path d="M 23.832 313.314124 
L 4.627021 324.402124 
L 4.627021 346.578124 
L 23.832 357.666124 
L 43.036979 346.578124 
L 43.036979 324.402124 
L 23.832 313.314124 
z
" clip-path="url(#p5a12d71fe8)" style="fill: none; opacity: 0.05; stroke: #333333; stroke-width: 0.5; stroke-linejoin: miter"/>
   </g>
   <g id="patch_7">
    <path d="M 7.2 274.904165 
L -1 279.638437 
M -1 314.521893 
L 7.2 319.256165 
L 26.404979 308.168165 
L 26.404979 285.992165 
L 7.2 274.904165 
" clip-path="url(#p5a12d71fe8)" style="fill: none; opacity: 0.05; stroke: #333333; stroke-width: 0.5; stroke-linejoin: miter"/>
   </g>
   <g id="patch_8">
    <path d="M 23.832 236.494206 
L 4.627021 247.582206 
L 4.627021 269.758206 
L 23.832 280.846206 
L 43.036979 269.758206 
L 43.036979 247.582206 
L 23.832 236.494206 
z
" clip-path="url(#p5a12d71fe8)" style="fill: none; opacity: 0.05; stroke: #333333; stroke-width: 0.5; stroke-linejoin: miter"/>
   </g>
   <g id="patch_9">
    <path d="M 7.2 198.084248 
L -1 202.81852 
M -1 237.701976 
L 7.2 242.436248 
L 26.404979 231.348248 
L 26.404979 209.172248 
L 7.2 198.084248 
" clip-path="url(#p5a12d71fe8)" style="fill: none; opacity: 0.05; stroke: #333333; stroke-width: 0.5; stroke-linejoin: miter"/>
   </g>
   <g id="patch_10">
    <path d="M 23.832 159.674289 
L 4.627021 170.762289 
L 4.627021 192.938289 
L 23.832 204.026289 
L 43.036979 192.938289 
L 43.036979 170.762289 
L 23.832 159.674289 
z
" clip-path="url(#p5a12d71fe8)" style="fill: none; opacity: 0.05; stroke: #333333; stroke-width: 0.5; stroke-linejoin: miter"/>
   </g>
   <g id="patch_11">
    <path d="M 7.2 121.26433 
L -1 125.998603 
M -1 160.882058 
L 7.2 165.61633 
L 26.404979 154.52833 
L 26.404979 132.35233 
L 7.2 121.26433 
" clip-path="url(#p5a12d71fe8)" style="fill: none; opacity: 0.05; stroke: #333333; stroke-width: 0.5; stroke-linejoin: miter"/>
   </g>
   <g id="patch_12">
    <path d="M 23.832 82.854372 
L 4.627021 93.942372 
L 4.627021 116.118372 
L 23.832 127.206372 
L 43.036979 116.118372 
L 43.036979 93.942372 
L 23.832 82.854372 
z
" clip-path="url(#p5a12d71fe8)" style="fill: none; opacity: 0.05; stroke: #333333; stroke-width: 0.5; stroke-linejoin: miter"/>
   </g>
   <g id="patch_13">
    <path d="M 7.2 44.444413 
L -1 49.178685 
M -1 84.062141 
L 7.2 88.796413 
L 26.404979 77.708413 
L 26.404979 55.532413 
L 7.2 44.444413 
" clip-path="url(#p5a12d71fe8)" style="fill: none; opacity: 0.05; stroke: #333333; stroke-width: 0.5; stroke-linejoin: miter"/>
   </g>
   <g id="patch_14">
    <path d="M 23.832 6.034454 
L 4.627021 17.122454 
L 4.627021 39.298454 
L 23.832 50.386454 
L 43.036979 39.298454 
L 43.036979 17.122454 
L 23.832 6.034454 
z
" clip-path="url(#p5a12d71fe8)" style="fill: none; opacity: 0.05; stroke: #333333; stroke-width: 0.5; stroke-linejoin: miter"/>
   </g>
   <g id="patch_15">
    <path d="M 40.464 428.544 
L 21.259021 439.632 
L 21.259021 458.92 
M 59.668979 458.92 
L 59.668979 439.632 
L 40.464 428.544 
" clip-path="url(#p5a12d71fe8)" style="fill: none; opacity: 0.05; stroke: #333333; stroke-width: 0.5; stroke-linejoin: miter"/>
   </g>
   <g id="patch_16">
    <path d="M 57.096 390.134041 
L 37.891021 401.222041 
L 37.891021 423.398041 
L 57.096 434.486041 
L 76.300979 423.398041 
L 76.300979 401.222041 
L 57.096 390.134041 
z
" clip-path="url(#p5a12d71fe8)" style="fill: none; opacity: 0.05; stroke: #333333; stroke-width: 0.5; stroke-linejoin: miter"/>
   </g>
   <g id="patch_17">
    <path d="M 40.464 351.724083 
L 21.259021 362.812083 
L 21.259021 384.988083 
L 40.464 396.076083 
L 59.668979 384.988083 
L 59.668979 362.812083 
L 40.464 351.724083 
z
" clip-path="url(#p5a12d71fe8)" style="fill: none; opacity: 0.05; stroke: #333333; stroke-width: 0.5; stroke-linejoin: miter"/>
   </g>
   <g id="patch_18">
    <path d="M 57.096 313.314124 
L 37.891021 324.402124 
L 37.891021 346.578124 
L 57.096 357.666124 
L 76.300979 346.578124 
L 76.300979 324.402124 
L 57.096 313.314124 
z
" clip-path="url(#p5a12d71fe8)" style="fill: none; opacity: 0.05; stroke: #333333; stroke-width: 0.5; stroke-linejoin: miter"/>
   </g>
   <g id="patch_19">
    <path d="M 40.464 274.904165 
L 21.259021 285.992165 
L 21.259021 308.168165 
L 40.464 319.256165 
L 59.668979 308.168165 
L 59.668979 285.992165 
L 40.464 274.904165 
z
" clip-path="url(#p5a12d71fe8)" style="fill: none; opacity: 0.05; stroke: #333333; stroke-width: 0.5; stroke-linejoin: miter"/>
   </g>
   <g id="patch_20">
    <path d="M 57.096 236.494206 
L 37.891021 247.582206 
L 37.891021 269.758206 
L 57.096 280.846206 
L 76.300979 269.758206 
L 76.300979 247.582206 
L 57.096 236.494206 
z
" clip-path="url(#p5a12d71fe8)" style="fill: none; opacity: 0.05; stroke: #333333; stroke-width: 0.5; stroke-linejoin: miter"/>
   </g>
   <g id="patch_21">
    <path d="M 40.464 198.084248 
L 21.259021 209.172248 
L 21.259021 231.348248 
L 40.464 242.436248 
L 59.668979 231.348248 
L 59.668979 209.172248 
L 40.464 198.084248 
z
" clip-path="url(#p5a12d71fe8)" style="fill: none; opacity: 0.05; stroke: #333333; stroke-width: 0.5; stroke-linejoin: miter"/>
   </g>
   <g id="patch_22">
    <path d="M 57.096 159.674289 
L 37.891021 170.762289 
L 37.891021 192.938289 
L 57.096 204.026289 
L 76.300979 192.938289 
L 76.300979 170.762289 
L 57.096 159.674289 
z
" clip-path="url(#p5a12d71fe8)" style="fill: none; opacity: 0.05; stroke: #333333; stroke-width: 0.5; stroke-linejoin: miter"/>
   </g>
   <g id="patch_23">
    <path d="M 40.464 121.26433 
L 21.259021 132.35233 
L 21.259021 154.52833 
L 40.464 165.61633 
L 59.668979 154.52833 
L 59.668979 132.35233 
L 40.464 121.26433 
z
" clip-path="url(#p5a12d71fe8)" style="fill: none; opacity: 0.05; stroke: #333333; stroke-width: 0.5; stroke-linejoin: miter"/>
   </g>
   <g id="patch_24">
    <path d="M 57.096 82.854372 
L 37.891021 93.942372 
L 37.891021 116.118372 
L 57.096 127.206372 
L 76.300979 116.118372 
L 76.300979 93.942372 
L 57.096 82.854372 
z
" clip-path="url(#p5a12d71fe8)" style="fill: none; opacity: 0.05; stroke: #333333; stroke-width: 0.5; stroke-linejoin: miter"/>
   </g>
   <g id="patch_25">
    <path d="M 40.464 44.444413 
L 21.259021 55.532413 
L 21.259021 77.708413 
L 40.464 88.796413 
L 59.668979 77.708413 
L 59.668979 55.532413 
L 40.464 44.444413 
z
" clip-path="url(#p5a12d71fe8)" style="fill: none; opacity: 0.05; stroke: #333333; stroke-width: 0.5; stroke-linejoin: miter"/>
   </g>
   <g id="patch_26">
    <path d="M 57.096 6.034454 
L 37.891021 17.122454 
L 37.891021 39.298454 
L 57.096 50.386454 
L 76.300979 39.298454 
L 76.300979 17.122454 
L 57.096 6.034454 
z
" clip-path="url(#p5a12d71fe8)" style="fill: none; opacity: 0.05; stroke: #333333; stroke-width: 0.5; stroke-linejoin: miter"/>
   </g>
   <g id="patch_27">
    <path d="M 73.728 428.544 
L 54.523021 439.632 
L 54.523021 458.92 
M 92.932979 458.92 
L 92.932979 439.632 
L 73.728 428.544 
" clip-path="url(#p5a12d71fe8)" style="fill: none; opacity: 0.05; stroke: #333333; stroke-width: 0.5; stroke-linejoin: miter"/>
   </g>
   <g id="patch_28">
    <path d="M 90.36 390.134041 
L 71.155021 401.222041 
L 71.155021 423.398041 
L 90.36 434.486041 
L 109.564979 423.398041 
L 109.564979 401.222041 
L 90.36 390.134041 
z
" clip-path="url(#p5a12d71fe8)" style="fill: none; opacity: 0.05; stroke: #333333; stroke-width: 0.5; stroke-linejoin: miter"/>
   </g>
   <g id="patch_29">
    <path d="M 73.728 351.724083 
L 54.523021 362.812083 
L 54.523021 384.988083 
L 73.728 396.076083 
L 92.932979 384.988083 
L 92.932979 362.812083 
L 73.728 351.724083 
z
" clip-path="url(#p5a12d71fe8)" style="fill: none; opacity: 0.05; stroke: #333333; stroke-width: 0.5; stroke-linejoin: miter"/>
   </g>
   <g id="patch_30">
    <path d="M 90.36 313.314124 
L 71.155021 324.402124 
L 71.155021 346.578124 
L 90.36 357.666124 
L 109.564979 346.578124 
L 109.564979 324.402124 
L 90.36 313.314124 
z
" clip-path="url(#p5a12d71fe8)" style="fill: none; opacity: 0.05; stroke: #333333; stroke-width: 0.5; stroke-linejoin: miter"/>
   </g>
   <g id="patch_31">
    <path d="M 73.728 274.904165 
L 54.523021 285.992165 
L 54.523021 308.168165 
L 73.728 319.256165 
L 92.932979 308.168165 
L 92.932979 285.992165 
L 73.728 274.904165 
z
" clip-path="url(#p5a12d71fe8)" style="fill: none; opacity: 0.05; stroke: #333333; stroke-width: 0.5; stroke-linejoin: miter"/>
   </g>
   <g id="patch_32">
    <path d="M 90.36 236.494206 
L 71.155021 247.582206 
L 71.155021 269.758206 
L 90.36 280.846206 
L 109.564979 269.758206 
L 109.564979 247.582206 
L 90.36 236.494206 
z
" clip-path="url(#p5a12d71fe8)" style="fill: none; opacity: 0.05; stroke: #333333; stroke-width: 0.5; stroke-linejoin: miter"/>
   </g>
   <g id="patch_33">
    <path d="M 73.728 198.084248 
L 54.523021 209.172248 
L 54.523021 231.348248 
L 73.728 242.436248 
L 92.932979 231.348248 
L 92.932979 209.172248 
L 73.728 198.084248 
z
" clip-path="url(#p5a12d71fe8)" style="fill: none; opacity: 0.05; stroke: #333333; stroke-width: 0.5; stroke-linejoin: miter"/>
   </g>
   <g id="patch_34">
    <path d="M 90.36 159.674289 
L 71.155021 170.762289 
L 71.155021 192.938289 
L 90.36 204.026289 
L 109.564979 192.938289 
L 109.564979 170.762289 
L 90.36 159.674289 
z
" clip-path="url(#p5a12d71fe8)" style="fill: none; opacity: 0.05; stroke: #333333; stroke-width: 0.5; stroke-linejoin: miter"/>
   </g>
   <g id="patch_35">
    <path d="M 73.728 121.26433 
L 54.523021 132.35233 
L 54.523021 154.52833 
L 73.728 165.61633 
L 92.932979 154.52833 
L 92.932979 132.35233 
L 73.728 121.26433 
z
" clip-path="url(#p5a12d71fe8)" style="fill: none; opacity: 0.05; stroke: #333333; stroke-width: 0.5; stroke-linejoin: miter"/>
   </g>
   <g id="patch_36">
    <path d="M 90.36 82.854372 
L 71.155021 93.942372 
L 71.155021 116.118372 
L 90.36 127.206372 
L 109.564979 116.118372 
L 109.564979 93.942372 
L 90.36 82.854372 
z
" clip-path="url(#p5a12d71fe8)" style="fill: none; opacity: 0.05; stroke: #333333; stroke-width: 0.5; stroke-linejoin: miter"/>
   </g>
   <g id="patch_37">
    <path d="M 73.728 44.444413 
L 54.523021 55.532413 
L 54.523021 77.708413 
L 73.728 88.796413 
L 92.932979 77.708413 
L 92.932979 55.532413 
L 73.728 44.444413 
z
" clip-path="url(#p5a12d71fe8)" style="fill: none; opacity: 0.05; stroke: #333333; stroke-width: 0.5; stroke-linejoin: miter"/>
   </g>
   <g id="patch_38">
    <path d="M 90.36 6.034454 
L 71.155021 17.122454 
L 71.155021 39.298454 
L 90.36 50.386454 
L 109.564979 39.298454 
L 109.564979 17.122454 
L 90.36 6.034454 
z
" clip-path="url(#p5a12d71fe8)" style="fill: none; opacity: 0.05; stroke: #333333; stroke-width: 0.5; stroke-linejoin: miter"/>
   </g>
   <g id="patch_39">
    <path d="M 106.992 428.544 
L 87.787021 439.632 
L 87.787021 458.92 
M 126.196979 458.92 
L 126.196979 439.632 
L 106.992 428.544 
" clip-path="url(#p5a12d71fe8)" style="fill: none; opacity: 0.05; stroke: #333333; stroke-width: 0.5; stroke-linejoin: miter"/>
   </g>
   <g id="patch_40">
    <path d="M 123.624 390.134041 
L 104.419021 401.222041 
L 104.419021 423.398041 
L 123.624 434.486041 
L 142.828979 423.398041 
L 142.828979 401.222041 
L 123.624 390.134041 
z
" clip-path="url(#p5a12d71fe8)" style="fill: none; opacity: 0.05; stroke: #333333; stroke-width: 0.5; stroke-linejoin: miter"/>
   </g>
   <g id="patch_41">
    <path d="M 106.992 351.724083 
L 87.787021 362.812083 
L 87.787021 384.988083 
L 106.992 396.076083 
L 126.196979 384.988083 
L 126.196979 362.812083 
L 106.992 351.724083 
z
" clip-path="url(#p5a12d71fe8)" style="fill: none; opacity: 0.05; stroke: #333333; stroke-width: 0.5; stroke-linejoin: miter"/>
   </g>
   <g id="patch_42">
    <path d="M 123.624 313.314124 
L 104.419021 324.402124 
L 104.419021 346.578124 
L 123.624 357.666124 
L 142.828979 346.578124 
L 142.828979 324.402124 
L 123.624 313.314124 
z
" clip-path="url(#p5a12d71fe8)" style="fill: none; opacity: 0.05; stroke: #333333; stroke-width: 0.5; stroke-linejoin: miter"/>
   </g>
   <g id="patch_43">
    <path d="M 106.992 274.904165 
L 87.787021 285.992165 
L 87.787021 308.168165 
L 106.992 319.256165 
L 126.196979 308.168165 
L 126.196979 285.992165 
L 106.992 274.904165 
z
" clip-path="url(#p5a12d71fe8)" style="fill: none; opacity: 0.05; stroke: #333333; stroke-width: 0.5; stroke-linejoin: miter"/>
   </g>
   <g id="patch_44">
    <path d="M 123.624 236.494206 
L 104.419021 247.582206 
L 104.419021 269.758206 
L 123.624 280.846206 
L 142.828979 269.758206 
L 142.828979 247.582206 
L 123.624 236.494206 
z
" clip-path="url(#p5a12d71fe8)" style="fill: none; opacity: 0.05; stroke: #333333; stroke-width: 0.5; stroke-linejoin: miter"/>
   </g>
   <g id="patch_45">
    <path d="M 106.992 198.084248 
L 87.787021 209.172248 
L 87.787021 231.348248 
L 106.992 242.436248 
L 126.196979 231.348248 
L 126.196979 209.172248 
L 106.992 198.084248 
z
" clip-path="url(#p5a12d71fe8)" style="fill: none; opacity: 0.05; stroke: #333333; stroke-width: 0.5; stroke-linejoin: miter"/>
   </g>
   <g id="patch_46">
    <path d="M 123.624 159.674289 
L 104.419021 170.762289 
L 104.419021 192.938289 
L 123.624 204.026289 
L 142.828979 192.938289 
L 142.828979 170.762289 
L 123.624 159.674289 
z
" clip-path="url(#p5a12d71fe8)" style="fill: none; opacity: 0.05; stroke: #333333; stroke-width: 0.5; stroke-linejoin: miter"/>
   </g>
   <g id="patch_47">
    <path d="M 106.992 121.26433 
L 87.787021 132.35233 
L 87.787021 154.52833 
L 106.992 165.61633 
L 126.196979 154.52833 
L 126.196979 132.35233 
L 106.992 121.26433 
z
" clip-path="url(#p5a12d71fe8)" style="fill: none; opacity: 0.05; stroke: #333333; stroke-width: 0.5; stroke-linejoin: miter"/>
   </g>
   <g id="patch_48">
    <path d="M 123.624 82.854372 
L 104.419021 93.942372 
L 104.419021 116.118372 
L 123.624 127.206372 
L 142.828979 116.118372 
L 142.828979 93.942372 
L 123.624 82.854372 
z
" clip-path="url(#p5a12d71fe8)" style="fill: none; opacity: 0.05; stroke: #333333; stroke-width: 0.5; stroke-linejoin: miter"/>
   </g>
   <g id="patch_49">
    <path d="M 106.992 44.444413 
L 87.787021 55.532413 
L 87.787021 77.708413 
L 106.992 88.796413 
L 126.196979 77.708413 
L 126.196979 55.532413 
L 106.992 44.444413 
z
" clip-path="url(#p5a12d71fe8)" style="fill: none; opacity: 0.05; stroke: #333333; stroke-width: 0.5; stroke-linejoin: miter"/>
   </g>
   <g id="patch_50">
    <path d="M 123.624 6.034454 
L 104.419021 17.122454 
L 104.419021 39.298454 
L 123.624 50.386454 
L 142.828979 39.298454 
L 142.828979 17.122454 
L 123.624 6.034454 
z
" clip-path="url(#p5a12d71fe8)" style="fill: none; opacity: 0.05; stroke: #333333; stroke-width: 0.5; stroke-linejoin: miter"/>
   </g>
   <g id="patch_51">
    <path d="M 140.256 428.544 
L 121.051021 439.632 
L 121.051021 458.92 
M 159.460979 458.92 
L 159.460979 439.632 
L 140.256 428.544 
" clip-path="url(#p5a12d71fe8)" style="fill: none; opacity: 0.05; stroke: #333333; stroke-width: 0.5; stroke-linejoin: miter"/>
   </g>
   <g id="patch_52">
    <path d="M 156.888 390.134041 
L 137.683021 401.222041 
L 137.683021 423.398041 
L 156.888 434.486041 
L 176.092979 423.398041 
L 176.092979 401.222041 
L 156.888 390.134041 
z
" clip-path="url(#p5a12d71fe8)" style="fill: none; opacity: 0.05; stroke: #333333; stroke-width: 0.5; stroke-linejoin: miter"/>
   </g>
   <g id="patch_53">
    <path d="M 140.256 351.724083 
L 121.051021 362.812083 
L 121.051021 384.988083 
L 140.256 396.076083 
L 159.460979 384.988083 
L 159.460979 362.812083 
L 140.256 351.724083 
z
" clip-path="url(#p5a12d71fe8)" style="fill: none; opacity: 0.05; stroke: #333333; stroke-width: 0.5; stroke-linejoin: miter"/>
   </g>
   <g id="patch_54">
    <path d="M 156.888 313.314124 
L 137.683021 324.402124 
L 137.683021 346.578124 
L 156.888 357.666124 
L 176.092979 346.578124 
L 176.092979 324.402124 
L 156.888 313.314124 
z
" clip-path="url(#p5a12d71fe8)" style="fill: none; opacity: 0.05; stroke: #333333; stroke-width: 0.5; stroke-linejoin: miter"/>
   </g>
   <g id="patch_55">
    <path d="M 140.256 274.904165 
L 121.051021 285.992165 
L 121.051021 308.168165 
L 140.256 319.256165 
L 159.460979 308.168165 
L 159.460979 285.992165 
L 140.256 274.904165 
z
" clip-path="url(#p5a12d71fe8)" style="fill: none; opacity: 0.05; stroke: #333333; stroke-width: 0.5; stroke-linejoin: miter"/>
   </g>
   <g id="patch_56">
    <path d="M 156.888 236.494206 
L 137.683021 247.582206 
L 137.683021 269.758206 
L 156.888 280.846206 
L 176.092979 269.758206 
L 176.092979 247.582206 
L 156.888 236.494206 
z
" clip-path="url(#p5a12d71fe8)" style="fill: none; opacity: 0.05; stroke: #333333; stroke-width: 0.5; stroke-linejoin: miter"/>
   </g>
   <g id="patch_57">
    <path d="M 140.256 198.084248 
L 121.051021 209.172248 
L 121.051021 231.348248 
L 140.256 242.436248 
L 159.460979 231.348248 
L 159.460979 209.172248 
L 140.256 198.084248 
z
" clip-path="url(#p5a12d71fe8)" style="fill: none; opacity: 0.05; stroke: #333333; stroke-width: 0.5; stroke-linejoin: miter"/>
   </g>
   <g id="patch_58">
    <path d="M 156.888 159.674289 
L 137.683021 170.762289 
L 137.683021 192.938289 
L 156.888 204.026289 
L 176.092979 192.938289 
L 176.092979 170.762289 
L 156.888 159.674289 
z
" clip-path="url(#p5a12d71fe8)" style="fill: none; opacity: 0.05; stroke: #333333; stroke-width: 0.5; stroke-linejoin: miter"/>
   </g>
   <g id="patch_59">
    <path d="M 140.256 121.26433 
L 121.051021 132.35233 
L 121.051021 154.52833 
L 140.256 165.61633 
L 159.460979 154.52833 
L 159.460979 132.35233 
L 140.256 121.26433 
z
" clip-path="url(#p5a12d71fe8)" style="fill: none; opacity: 0.05; stroke: #333333; stroke-width: 0.5; stroke-linejoin: miter"/>
   </g>
   <g id="patch_60">
    <path d="M 156.888 82.854372 
L 137.683021 93.942372 
L 137.683021 116.118372 
L 156.888 127.206372 
L 176.092979 116.118372 
L 176.092979 93.942372 
L 156.888 82.854372 
z
" clip-path="url(#p5a12d71fe8)" style="fill: none; opacity: 0.05; stroke: #333333; stroke-width: 0.5; stroke-linejoin: miter"/>
   </g>
   <g id="patch_61">
    <path d="M 140.256 44.444413 
L 121.051021 55.532413 
L 121.051021 77.708413 
L 140.256 88.796413 
L 159.460979 77.708413 
L 159.460979 55.532413 
L 140.256 44.444413 
z
" clip-path="url(#p5a12d71fe8)" style="fill: none; opacity: 0.05; stroke: #333333; stroke-width: 0.5; stroke-linejoin: miter"/>
   </g>
   <g id="patch_62">
    <path d="M 156.888 6.034454 
L 137.683021 17.122454 
L 137.683021 39.298454 
L 156.888 50.386454 
L 176.092979 39.298454 
L 176.092979 17.122454 
L 156.888 6.034454 
z
" clip-path="url(#p5a12d71fe8)" style="fill: none; opacity: 0.05; stroke: #333333; stroke-width: 0.5; stroke-linejoin: miter"/>
   </g>
   <g id="patch_63">
    <path d="M 173.52 428.544 
L 154.315021 439.632 
L 154.315021 458.92 
M 192.724979 458.92 
L 192.724979 439.632 
L 173.52 428.544 
" clip-path="url(#p5a12d71fe8)" style="fill: none; opacity: 0.05; stroke: #333333; stroke-width: 0.5; stroke-linejoin: miter"/>
   </g>
   <g id="patch_64">
    <path d="M 190.152 390.134041 
L 170.947021 401.222041 
L 170.947021 423.398041 
L 190.152 434.486041 
L 209.356979 423.398041 
L 209.356979 401.222041 
L 190.152 390.134041 
z
" clip-path="url(#p5a12d71fe8)" style="fill: none; opacity: 0.05; stroke: #333333; stroke-width: 0.5; stroke-linejoin: miter"/>
   </g>
   <g id="patch_65">
    <path d="M 173.52 351.724083 
L 154.315021 362.812083 
L 154.315021 384.988083 
L 173.52 396.076083 
L 192.724979 384.988083 
L 192.724979 362.812083 
L 173.52 351.724083 
z
" clip-path="url(#p5a12d71fe8)" style="fill: none; opacity: 0.05; stroke: #333333; stroke-width: 0.5; stroke-linejoin: miter"/>
   </g>
   <g id="patch_66">
    <path d="M 190.152 313.314124 
L 170.947021 324.402124 
L 170.947021 346.578124 
L 190.152 357.666124 
L 209.356979 346.578124 
L 209.356979 324.402124 
L 190.152 313.314124 
z
" clip-path="url(#p5a12d71fe8)" style="fill: none; opacity: 0.05; stroke: #333333; stroke-width: 0.5; stroke-linejoin: miter"/>
   </g>
   <g id="patch_67">
    <path d="M 173.52 274.904165 
L 154.315021 285.992165 
L 154.315021 308.168165 
L 173.52 319.256165 
L 192.724979 308.168165 
L 192.724979 285.992165 
L 173.52 274.904165 
z
" clip-path="url(#p5a12d71fe8)" style="fill: none; opacity: 0.05; stroke: #333333; stroke-width: 0.5; stroke-linejoin: miter"/>
   </g>
   <g id="patch_68">
    <path d="M 190.152 236.494206 
L 170.947021 247.582206 
L 170.947021 269.758206 
L 190.152 280.846206 
L 209.356979 269.758206 
L 209.356979 247.582206 
L 190.152 236.494206 
z
" clip-path="url(#p5a12d71fe8)" style="fill: none; opacity: 0.05; stroke: #333333; stroke-width: 0.5; stroke-linejoin: miter"/>
   </g>
   <g id="patch_69">
    <path d="M 173.52 198.084248 
L 154.315021 209.172248 
L 154.315021 231.348248 
L 173.52 242.436248 
L 192.724979 231.348248 
L 192.724979 209.172248 
L 173.52 198.084248 
z
" clip-path="url(#p5a12d71fe8)" style="fill: none; opacity: 0.05; stroke: #333333; stroke-width: 0.5; stroke-linejoin: miter"/>
   </g>
   <g id="patch_70">
    <path d="M 190.152 159.674289 
L 170.947021 170.762289 
L 170.947021 192.938289 
L 190.152 204.026289 
L 209.356979 192.938289 
L 209.356979 170.762289 
L 190.152 159.674289 
z
" clip-path="url(#p5a12d71fe8)" style="fill: none; opacity: 0.05; stroke: #333333; stroke-width: 0.5; stroke-linejoin: miter"/>
   </g>
   <g id="patch_71">
    <path d="M 173.52 121.26433 
L 154.315021 132.35233 
L 154.315021 154.52833 
L 173.52 165.61633 
L 192.724979 154.52833 
L 192.724979 132.35233 
L 173.52 121.26433 
z
" clip-path="url(#p5a12d71fe8)" style="fill: none; opacity: 0.05; stroke: #333333; stroke-width: 0.5; stroke-linejoin: miter"/>
   </g>
   <g id="patch_72">
    <path d="M 190.152 82.854372 
L 170.947021 93.942372 
L 170.947021 116.118372 
L 190.152 127.206372 
L 209.356979 116.118372 
L 209.356979 93.942372 
L 190.152 82.854372 
z
" clip-path="url(#p5a12d71fe8)" style="fill: none; opacity: 0.05; stroke: #333333; stroke-width: 0.5; stroke-linejoin: miter"/>
   </g>
   <g id="patch_73">
    <path d="M 173.52 44.444413 
L 154.315021 55.532413 
L 154.315021 77.708413 
L 173.52 88.796413 
L 192.724979 77.708413 
L 192.724979 55.532413 
L 173.52 44.444413 
z
" clip-path="url(#p5a12d71fe8)" style="fill: none; opacity: 0.05; stroke: #333333; stroke-width: 0.5; stroke-linejoin: miter"/>
   </g>
   <g id="patch_74">
    <path d="M 190.152 6.034454 
L 170.947021 17.122454 
L 170.947021 39.298454 
L 190.152 50.386454 
L 209.356979 39.298454 
L 209.356979 17.122454 
L 190.152 6.034454 
z
" clip-path="url(#p5a12d71fe8)" style="fill: none; opacity: 0.05; stroke: #333333; stroke-width: 0.5; stroke-linejoin: miter"/>
   </g>
   <g id="patch_75">
    <path d="M 206.784 428.544 
L 187.579021 439.632 
L 187.579021 458.92 
M 225.988979 458.92 
L 225.988979 439.632 
L 206.784 428.544 
" clip-path="url(#p5a12d71fe8)" style="fill: none; opacity: 0.05; stroke: #333333; stroke-width: 0.5; stroke-linejoin: miter"/>
   </g>
   <g id="patch_76">
    <path d="M 223.416 390.134041 
L 204.211021 401.222041 
L 204.211021 423.398041 
L 223.416 434.486041 
L 242.620979 423.398041 
L 242.620979 401.222041 
L 223.416 390.134041 
z
" clip-path="url(#p5a12d71fe8)" style="fill: none; opacity: 0.05; stroke: #333333; stroke-width: 0.5; stroke-linejoin: miter"/>
   </g>
   <g id="patch_77">
    <path d="M 206.784 351.724083 
L 187.579021 362.812083 
L 187.579021 384.988083 
L 206.784 396.076083 
L 225.988979 384.988083 
L 225.988979 362.812083 
L 206.784 351.724083 
z
" clip-path="url(#p5a12d71fe8)" style="fill: none; opacity: 0.05; stroke: #333333; stroke-width: 0.5; stroke-linejoin: miter"/>
   </g>
   <g id="patch_78">
    <path d="M 223.416 313.314124 
L 204.211021 324.402124 
L 204.211021 346.578124 
L 223.416 357.666124 
L 242.620979 346.578124 
L 242.620979 324.402124 
L 223.416 313.314124 
z
" clip-path="url(#p5a12d71fe8)" style="fill: none; opacity: 0.05; stroke: #333333; stroke-width: 0.5; stroke-linejoin: miter"/>
   </g>
   <g id="patch_79">
    <path d="M 206.784 274.904165 
L 187.579021 285.992165 
L 187.579021 308.168165 
L 206.784 319.256165 
L 225.988979 308.168165 
L 225.988979 285.992165 
L 206.784 274.904165 
z
" clip-path="url(#p5a12d71fe8)" style="fill: none; opacity: 0.05; stroke: #333333; stroke-width: 0.5; stroke-linejoin: miter"/>
   </g>
   <g id="patch_80">
    <path d="M 223.416 236.494206 
L 204.211021 247.582206 
L 204.211021 269.758206 
L 223.416 280.846206 
L 242.620979 269.758206 
L 242.620979 247.582206 
L 223.416 236.494206 
z
" clip-path="url(#p5a12d71fe8)" style="fill: none; opacity: 0.05; stroke: #333333; stroke-width: 0.5; stroke-linejoin: miter"/>
   </g>
   <g id="patch_81">
    <path d="M 206.784 198.084248 
L 187.579021 209.172248 
L 187.579021 231.348248 
L 206.784 242.436248 
L 225.988979 231.348248 
L 225.988979 209.172248 
L 206.784 198.084248 
z
" clip-path="url(#p5a12d71fe8)" style="fill: none; opacity: 0.05; stroke: #333333; stroke-width: 0.5; stroke-linejoin: miter"/>
   </g>
   <g id="patch_82">
    <path d="M 223.416 159.674289 
L 204.211021 170.762289 
L 204.211021 192.938289 
L 223.416 204.026289 
L 242.620979 192.938289 
L 242.620979 170.762289 
L 223.416 159.674289 
z
" clip-path="url(#p5a12d71fe8)" style="fill: none; opacity: 0.05; stroke: #333333; stroke-width: 0.5; stroke-linejoin: miter"/>
   </g>
   <g id="patch_83">
    <path d="M 206.784 121.26433 
L 187.579021 132.35233 
L 187.579021 154.52833 
L 206.784 165.61633 
L 225.988979 154.52833 
L 225.988979 132.35233 
L 206.784 121.26433 
z
" clip-path="url(#p5a12d71fe8)" style="fill: none; opacity: 0.05; stroke: #333333; stroke-width: 0.5; stroke-linejoin: miter"/>
   </g>
   <g id="patch_84">
    <path d="M 223.416 82.854372 
L 204.211021 93.942372 
L 204.211021 116.118372 
L 223.416 127.206372 
L 242.620979 116.118372 
L 242.620979 93.942372 
L 223.416 82.854372 
z
" clip-path="url(#p5a12d71fe8)" style="fill: none; opacity: 0.05; stroke: #333333; stroke-width: 0.5; stroke-linejoin: miter"/>
   </g>
   <g id="patch_85">
    <path d="M 206.784 44.444413 
L 187.579021 55.532413 
L 187.579021 77.708413 
L 206.784 88.796413 
L 225.988979 77.708413 
L 225.988979 55.532413 
L 206.784 44.444413 
z
" clip-path="url(#p5a12d71fe8)" style="fill: none; opacity: 0.05; stroke: #333333; stroke-width: 0.5; stroke-linejoin: miter"/>
   </g>
   <g id="patch_86">
    <path d="M 223.416 6.034454 
L 204.211021 17.122454 
L 204.211021 39.298454 
L 223.416 50.386454 
L 242.620979 39.298454 
L 242.620979 17.122454 
L 223.416 6.034454 
z
" clip-path="url(#p5a12d71fe8)" style="fill: none; opacity: 0.05; stroke: #333333; stroke-width: 0.5; stroke-linejoin: miter"/>
   </g>
   <g id="patch_87">
    <path d="M 240.048 428.544 
L 220.843021 439.632 
L 220.843021 458.92 
M 259.252979 458.92 
L 259.252979 439.632 
L 240.048 428.544 
" clip-path="url(#p5a12d71fe8)" style="fill: none; opacity: 0.05; stroke: #333333; stroke-width: 0.5; stroke-linejoin: miter"/>
   </g>
   <g id="patch_88">
    <path d="M 256.68 390.134041 
L 237.475021 401.222041 
L 237.475021 423.398041 
L 256.68 434.486041 
L 275.884979 423.398041 
L 275.884979 401.222041 
L 256.68 390.134041 
z
" clip-path="url(#p5a12d71fe8)" style="fill: none; opacity: 0.05; stroke: #333333; stroke-width: 0.5; stroke-linejoin: miter"/>
   </g>
   <g id="patch_89">
    <path d="M 240.048 351.724083 
L 220.843021 362.812083 
L 220.843021 384.988083 
L 240.048 396.076083 
L 259.252979 384.988083 
L 259.252979 362.812083 
L 240.048 351.724083 
z
" clip-path="url(#p5a12d71fe8)" style="fill: none; opacity: 0.05; stroke: #333333; stroke-width: 0.5; stroke-linejoin: miter"/>
   </g>
   <g id="patch_90">
    <path d="M 256.68 313.314124 
L 237.475021 324.402124 
L 237.475021 346.578124 
L 256.68 357.666124 
L 275.884979 346.578124 
L 275.884979 324.402124 
L 256.68 313.314124 
z
" clip-path="url(#p5a12d71fe8)" style="fill: none; opacity: 0.05; stroke: #333333; stroke-width: 0.5; stroke-linejoin: miter"/>
   </g>
   <g id="patch_91">
    <path d="M 240.048 274.904165 
L 220.843021 285.992165 
L 220.843021 308.168165 
L 240.048 319.256165 
L 259.252979 308.168165 
L 259.252979 285.992165 
L 240.048 274.904165 
z
" clip-path="url(#p5a12d71fe8)" style="fill: none; opacity: 0.05; stroke: #333333; stroke-width: 0.5; stroke-linejoin: miter"/>
   </g>
   <g id="patch_92">
    <path d="M 256.68 236.494206 
L 237.475021 247.582206 
L 237.475021 269.758206 
L 256.68 280.846206 
L 275.884979 269.758206 
L 275.884979 247.582206 
L 256.68 236.494206 
z
" clip-path="url(#p5a12d71fe8)" style="fill: none; opacity: 0.05; stroke: #333333; stroke-width: 0.5; stroke-linejoin: miter"/>
   </g>
   <g id="patch_93">
    <path d="M 240.048 198.084248 
L 220.843021 209.172248 
L 220.843021 231.348248 
L 240.048 242.436248 
L 259.252979 231.348248 
L 259.252979 209.172248 
L 240.048 198.084248 
z
" clip-path="url(#p5a12d71fe8)" style="fill: none; opacity: 0.05; stroke: #333333; stroke-width: 0.5; stroke-linejoin: miter"/>
   </g>
   <g id="patch_94">
    <path d="M 256.68 159.674289 
L 237.475021 170.762289 
L 237.475021 192.938289 
L 256.68 204.026289 
L 275.884979 192.938289 
L 275.884979 170.762289 
L 256.68 159.674289 
z
" clip-path="url(#p5a12d71fe8)" style="fill: none; opacity: 0.05; stroke: #333333; stroke-width: 0.5; stroke-linejoin: miter"/>
   </g>
   <g id="patch_95">
    <path d="M 240.048 121.26433 
L 220.843021 132.35233 
L 220.843021 154.52833 
L 240.048 165.61633 
L 259.252979 154.52833 
L 259.252979 132.35233 
L 240.048 121.26433 
z
" clip-path="url(#p5a12d71fe8)" style="fill: none; opacity: 0.05; stroke: #333333; stroke-width: 0.5; stroke-linejoin: miter"/>
   </g>
   <g id="patch_96">
    <path d="M 256.68 82.854372 
L 237.475021 93.942372 
L 237.475021 116.118372 
L 256.68 127.206372 
L 275.884979 116.118372 
L 275.884979 93.942372 
L 256.68 82.854372 
z
" clip-path="url(#p5a12d71fe8)" style="fill: none; opacity: 0.05; stroke: #333333; stroke-width: 0.5; stroke-linejoin: miter"/>
   </g>
   <g id="patch_97">
    <path d="M 240.048 44.444413 
L 220.843021 55.532413 
L 220.843021 77.708413 
L 240.048 88.796413 
L 259.252979 77.708413 
L 259.252979 55.532413 
L 240.048 44.444413 
z
" clip-path="url(#p5a12d71fe8)" style="fill: none; opacity: 0.05; stroke: #333333; stroke-width: 0.5; stroke-linejoin: miter"/>
   </g>
   <g id="patch_98">
    <path d="M 256.68 6.034454 
L 237.475021 17.122454 
L 237.475021 39.298454 
L 256.68 50.386454 
L 275.884979 39.298454 
L 275.884979 17.122454 
L 256.68 6.034454 
z
" clip-path="url(#p5a12d71fe8)" style="fill: none; opacity: 0.05; stroke: #333333; stroke-width: 0.5; stroke-linejoin: miter"/>
   </g>
   <g id="patch_99">
    <path d="M 273.312 428.544 
L 254.107021 439.632 
L 254.107021 458.92 
M 292.516979 458.92 
L 292.516979 439.632 
L 273.312 428.544 
" clip-path="url(#p5a12d71fe8)" style="fill: none; opacity: 0.05; stroke: #333333; stroke-width: 0.5; stroke-linejoin: miter"/>
   </g>
   <g id="patch_100">
    <path d="M 289.944 390.134041 
L 270.739021 401.222041 
L 270.739021 423.398041 
L 289.944 434.486041 
L 309.148979 423.398041 
L 309.148979 401.222041 
L 289.944 390.134041 
z
" clip-path="url(#p5a12d71fe8)" style="fill: none; opacity: 0.05; stroke: #333333; stroke-width: 0.5; stroke-linejoin: miter"/>
   </g>
   <g id="patch_101">
    <path d="M 273.312 351.724083 
L 254.107021 362.812083 
L 254.107021 384.988083 
L 273.312 396.076083 
L 292.516979 384.988083 
L 292.516979 362.812083 
L 273.312 351.724083 
z
" clip-path="url(#p5a12d71fe8)" style="fill: none; opacity: 0.05; stroke: #333333; stroke-width: 0.5; stroke-linejoin: miter"/>
   </g>
   <g id="patch_102">
    <path d="M 289.944 313.314124 
L 270.739021 324.402124 
L 270.739021 346.578124 
L 289.944 357.666124 
L 309.148979 346.578124 
L 309.148979 324.402124 
L 289.944 313.314124 
z
" clip-path="url(#p5a12d71fe8)" style="fill: none; opacity: 0.05; stroke: #333333; stroke-width: 0.5; stroke-linejoin: miter"/>
   </g>
   <g id="patch_103">
    <path d="M 273.312 274.904165 
L 254.107021 285.992165 
L 254.107021 308.168165 
L 273.312 319.256165 
L 292.516979 308.168165 
L 292.516979 285.992165 
L 273.312 274.904165 
z
" clip-path="url(#p5a12d71fe8)" style="fill: none; opacity: 0.05; stroke: #333333; stroke-width: 0.5; stroke-linejoin: miter"/>
   </g>
   <g id="patch_104">
    <path d="M 289.944 236.494206 
L 270.739021 247.582206 
L 270.739021 269.758206 
L 289.944 280.846206 
L 309.148979 269.758206 
L 309.148979 247.582206 
L 289.944 236.494206 
z
" clip-path="url(#p5a12d71fe8)" style="fill: none; opacity: 0.05; stroke: #333333; stroke-width: 0.5; stroke-linejoin: miter"/>
   </g>
   <g id="patch_105">
    <path d="M 273.312 198.084248 
L 254.107021 209.172248 
L 254.107021 231.348248 
L 273.312 242.436248 
L 292.516979 231.348248 
L 292.516979 209.172248 
L 273.312 198.084248 
z
" clip-path="url(#p5a12d71fe8)" style="fill: none; opacity: 0.05; stroke: #333333; stroke-width: 0.5; stroke-linejoin: miter"/>
   </g>
   <g id="patch_106">
    <path d="M 289.944 159.674289 
L 270.739021 170.762289 
L 270.739021 192.938289 
L 289.944 204.026289 
L 309.148979 192.938289 
L 309.148979 170.762289 
L 289.944 159.674289 
z
" clip-path="url(#p5a12d71fe8)" style="fill: none; opacity: 0.05; stroke: #333333; stroke-width: 0.5; stroke-linejoin: miter"/>
   </g>
   <g id="patch_107">
    <path d="M 273.312 121.26433 
L 254.107021 132.35233 
L 254.107021 154.52833 
L 273.312 165.61633 
L 292.516979 154.52833 
L 292.516979 132.35233 
L 273.312 121.26433 
z
" clip-path="url(#p5a12d71fe8)" style="fill: none; opacity: 0.05; stroke: #333333; stroke-width: 0.5; stroke-linejoin: miter"/>
   </g>
   <g id="patch_108">
    <path d="M 289.944 82.854372 
L 270.739021 93.942372 
L 270.739021 116.118372 
L 289.944 127.206372 
L 309.148979 116.118372 
L 309.148979 93.942372 
L 289.944 82.854372 
z
" clip-path="url(#p5a12d71fe8)" style="fill: none; opacity: 0.05; stroke: #333333; stroke-width: 0.5; stroke-linejoin: miter"/>
   </g>
   <g id="patch_109">
    <path d="M 273.312 44.444413 
L 254.107021 55.532413 
L 254.107021 77.708413 
L 273.312 88.796413 
L 292.516979 77.708413 
L 292.516979 55.532413 
L 273.312 44.444413 
z
" clip-path="url(#p5a12d71fe8)" style="fill: none; opacity: 0.05; stroke: #333333; stroke-width: 0.5; stroke-linejoin: miter"/>
   </g>
   <g id="patch_110">
    <path d="M 289.944 6.034454 
L 270.739021 17.122454 
L 270.739021 39.298454 
L 289.944 50.386454 
L 309.148979 39.298454 
L 309.148979 17.122454 
L 289.944 6.034454 
z
" clip-path="url(#p5a12d71fe8)" style="fill: none; opacity: 0.05; stroke: #333333; stroke-width: 0.5; stroke-linejoin: miter"/>
   </g>
   <g id="patch_111">
    <path d="M 306.576 428.544 
L 287.371021 439.632 
L 287.371021 458.92 
M 325.780979 458.92 
L 325.780979 439.632 
L 306.576 428.544 
" clip-path="url(#p5a12d71fe8)" style="fill: none; opacity: 0.05; stroke: #333333; stroke-width: 0.5; stroke-linejoin: miter"/>
   </g>
   <g id="patch_112">
    <path d="M 323.208 390.134041 
L 304.003021 401.222041 
L 304.003021 423.398041 
L 323.208 434.486041 
L 342.412979 423.398041 
L 342.412979 401.222041 
L 323.208 390.134041 
z
" clip-path="url(#p5a12d71fe8)" style="fill: none; opacity: 0.05; stroke: #333333; stroke-width: 0.5; stroke-linejoin: miter"/>
   </g>
   <g id="patch_113">
    <path d="M 306.576 351.724083 
L 287.371021 362.812083 
L 287.371021 384.988083 
L 306.576 396.076083 
L 325.780979 384.988083 
L 325.780979 362.812083 
L 306.576 351.724083 
z
" clip-path="url(#p5a12d71fe8)" style="fill: none; opacity: 0.05; stroke: #333333; stroke-width: 0.5; stroke-linejoin: miter"/>
   </g>
   <g id="patch_114">
    <path d="M 323.208 313.314124 
L 304.003021 324.402124 
L 304.003021 346.578124 
L 323.208 357.666124 
L 342.412979 346.578124 
L 342.412979 324.402124 
L 323.208 313.314124 
z
" clip-path="url(#p5a12d71fe8)" style="fill: none; opacity: 0.05; stroke: #333333; stroke-width: 0.5; stroke-linejoin: miter"/>
   </g>
   <g id="patch_115">
    <path d="M 306.576 274.904165 
L 287.371021 285.992165 
L 287.371021 308.168165 
L 306.576 319.256165 
L 325.780979 308.168165 
L 325.780979 285.992165 
L 306.576 274.904165 
z
" clip-path="url(#p5a12d71fe8)" style="fill: none; opacity: 0.05; stroke: #333333; stroke-width: 0.5; stroke-linejoin: miter"/>
   </g>
   <g id="patch_116">
    <path d="M 323.208 236.494206 
L 304.003021 247.582206 
L 304.003021 269.758206 
L 323.208 280.846206 
L 342.412979 269.758206 
L 342.412979 247.582206 
L 323.208 236.494206 
z
" clip-path="url(#p5a12d71fe8)" style="fill: none; opacity: 0.05; stroke: #333333; stroke-width: 0.5; stroke-linejoin: miter"/>
   </g>
   <g id="patch_117">
    <path d="M 306.576 198.084248 
L 287.371021 209.172248 
L 287.371021 231.348248 
L 306.576 242.436248 
L 325.780979 231.348248 
L 325.780979 209.172248 
L 306.576 198.084248 
z
" clip-path="url(#p5a12d71fe8)" style="fill: none; opacity: 0.05; stroke: #333333; stroke-width: 0.5; stroke-linejoin: miter"/>
   </g>
   <g id="patch_118">
    <path d="M 323.208 159.674289 
L 304.003021 170.762289 
L 304.003021 192.938289 
L 323.208 204.026289 
L 342.412979 192.938289 
L 342.412979 170.762289 
L 323.208 159.674289 
z
" clip-path="url(#p5a12d71fe8)" style="fill: none; opacity: 0.05; stroke: #333333; stroke-width: 0.5; stroke-linejoin: miter"/>
   </g>
   <g id="patch_119">
    <path d="M 306.576 121.26433 
L 287.371021 132.35233 
L 287.371021 154.52833 
L 306.576 165.61633 
L 325.780979 154.52833 
L 325.780979 132.35233 
L 306.576 121.26433 
z
" clip-path="url(#p5a12d71fe8)" style="fill: none; opacity: 0.05; stroke: #333333; stroke-width: 0.5; stroke-linejoin: miter"/>
   </g>
   <g id="patch_120">
    <path d="M 323.208 82.854372 
L 304.003021 93.942372 
L 304.003021 116.118372 
L 323.208 127.206372 
L 342.412979 116.118372 
L 342.412979 93.942372 
L 323.208 82.854372 
z
" clip-path="url(#p5a12d71fe8)" style="fill: none; opacity: 0.05; stroke: #333333; stroke-width: 0.5; stroke-linejoin: miter"/>
   </g>
   <g id="patch_121">
    <path d="M 306.576 44.444413 
L 287.371021 55.532413 
L 287.371021 77.708413 
L 306.576 88.796413 
L 325.780979 77.708413 
L 325.780979 55.532413 
L 306.576 44.444413 
z
" clip-path="url(#p5a12d71fe8)" style="fill: none; opacity: 0.05; stroke: #333333; stroke-width: 0.5; stroke-linejoin: miter"/>
   </g>
   <g id="patch_122">
    <path d="M 323.208 6.034454 
L 304.003021 17.122454 
L 304.003021 39.298454 
L 323.208 50.386454 
L 342.412979 39.298454 
L 342.412979 17.122454 
L 323.208 6.034454 
z
" clip-path="url(#p5a12d71fe8)" style="fill: none; opacity: 0.05; stroke: #333333; stroke-width: 0.5; stroke-linejoin: miter"/>
   </g>
   <g id="patch_123">
    <path d="M 339.84 428.544 
L 320.635021 439.632 
L 320.635021 458.92 
M 359.044979 458.92 
L 359.044979 439.632 
L 339.84 428.544 
" clip-path="url(#p5a12d71fe8)" style="fill: none; opacity: 0.05; stroke: #333333; stroke-width: 0.5; stroke-linejoin: miter"/>
   </g>
   <g id="patch_124">
    <path d="M 356.472 390.134041 
L 337.267021 401.222041 
L 337.267021 423.398041 
L 356.472 434.486041 
L 375.676979 423.398041 
L 375.676979 401.222041 
L 356.472 390.134041 
z
" clip-path="url(#p5a12d71fe8)" style="fill: none; opacity: 0.05; stroke: #333333; stroke-width: 0.5; stroke-linejoin: miter"/>
   </g>
   <g id="patch_125">
    <path d="M 339.84 351.724083 
L 320.635021 362.812083 
L 320.635021 384.988083 
L 339.84 396.076083 
L 359.044979 384.988083 
L 359.044979 362.812083 
L 339.84 351.724083 
z
" clip-path="url(#p5a12d71fe8)" style="fill: none; opacity: 0.05; stroke: #333333; stroke-width: 0.5; stroke-linejoin: miter"/>
   </g>
   <g id="patch_126">
    <path d="M 356.472 313.314124 
L 337.267021 324.402124 
L 337.267021 346.578124 
L 356.472 357.666124 
L 375.676979 346.578124 
L 375.676979 324.402124 
L 356.472 313.314124 
z
" clip-path="url(#p5a12d71fe8)" style="fill: none; opacity: 0.05; stroke: #333333; stroke-width: 0.5; stroke-linejoin: miter"/>
   </g>
   <g id="patch_127">
    <path d="M 339.84 274.904165 
L 320.635021 285.992165 
L 320.635021 308.168165 
L 339.84 319.256165 
L 359.044979 308.168165 
L 359.044979 285.992165 
L 339.84 274.904165 
z
" clip-path="url(#p5a12d71fe8)" style="fill: none; opacity: 0.05; stroke: #333333; stroke-width: 0.5; stroke-linejoin: miter"/>
   </g>
   <g id="patch_128">
    <path d="M 356.472 236.494206 
L 337.267021 247.582206 
L 337.267021 269.758206 
L 356.472 280.846206 
L 375.676979 269.758206 
L 375.676979 247.582206 
L 356.472 236.494206 
z
" clip-path="url(#p5a12d71fe8)" style="fill: none; opacity: 0.05; stroke: #333333; stroke-width: 0.5; stroke-linejoin: miter"/>
   </g>
   <g id="patch_129">
    <path d="M 339.84 198.084248 
L 320.635021 209.172248 
L 320.635021 231.348248 
L 339.84 242.436248 
L 359.044979 231.348248 
L 359.044979 209.172248 
L 339.84 198.084248 
z
" clip-path="url(#p5a12d71fe8)" style="fill: none; opacity: 0.05; stroke: #333333; stroke-width: 0.5; stroke-linejoin: miter"/>
   </g>
   <g id="patch_130">
    <path d="M 356.472 159.674289 
L 337.267021 170.762289 
L 337.267021 192.938289 
L 356.472 204.026289 
L 375.676979 192.938289 
L 375.676979 170.762289 
L 356.472 159.674289 
z
" clip-path="url(#p5a12d71fe8)" style="fill: none; opacity: 0.05; stroke: #333333; stroke-width: 0.5; stroke-linejoin: miter"/>
   </g>
   <g id="patch_131">
    <path d="M 339.84 121.26433 
L 320.635021 132.35233 
L 320.635021 154.52833 
L 339.84 165.61633 
L 359.044979 154.52833 
L 359.044979 132.35233 
L 339.84 121.26433 
z
" clip-path="url(#p5a12d71fe8)" style="fill: none; opacity: 0.05; stroke: #333333; stroke-width: 0.5; stroke-linejoin: miter"/>
   </g>
   <g id="patch_132">
    <path d="M 356.472 82.854372 
L 337.267021 93.942372 
L 337.267021 116.118372 
L 356.472 127.206372 
L 375.676979 116.118372 
L 375.676979 93.942372 
L 356.472 82.854372 
z
" clip-path="url(#p5a12d71fe8)" style="fill: none; opacity: 0.05; stroke: #333333; stroke-width: 0.5; stroke-linejoin: miter"/>
   </g>
   <g id="patch_133">
    <path d="M 339.84 44.444413 
L 320.635021 55.532413 
L 320.635021 77.708413 
L 339.84 88.796413 
L 359.044979 77.708413 
L 359.044979 55.532413 
L 339.84 44.444413 
z
" clip-path="url(#p5a12d71fe8)" style="fill: none; opacity: 0.05; stroke: #333333; stroke-width: 0.5; stroke-linejoin: miter"/>
   </g>
   <g id="patch_134">
    <path d="M 356.472 6.034454 
L 337.267021 17.122454 
L 337.267021 39.298454 
L 356.472 50.386454 
L 375.676979 39.298454 
L 375.676979 17.122454 
L 356.472 6.034454 
z
" clip-path="url(#p5a12d71fe8)" style="fill: none; opacity: 0.05; stroke: #333333; stroke-width: 0.5; stroke-linejoin: miter"/>
   </g>
   <g id="patch_135">
    <path d="M 373.104 428.544 
L 353.899021 439.632 
L 353.899021 458.92 
M 392.308979 458.92 
L 392.308979 439.632 
L 373.104 428.544 
" clip-path="url(#p5a12d71fe8)" style="fill: none; opacity: 0.05; stroke: #333333; stroke-width: 0.5; stroke-linejoin: miter"/>
   </g>
   <g id="patch_136">
    <path d="M 389.736 390.134041 
L 370.531021 401.222041 
L 370.531021 423.398041 
L 389.736 434.486041 
L 408.940979 423.398041 
L 408.940979 401.222041 
L 389.736 390.134041 
z
" clip-path="url(#p5a12d71fe8)" style="fill: none; opacity: 0.05; stroke: #333333; stroke-width: 0.5; stroke-linejoin: miter"/>
   </g>
   <g id="patch_137">
    <path d="M 373.104 351.724083 
L 353.899021 362.812083 
L 353.899021 384.988083 
L 373.104 396.076083 
L 392.308979 384.988083 
L 392.308979 362.812083 
L 373.104 351.724083 
z
" clip-path="url(#p5a12d71fe8)" style="fill: none; opacity: 0.05; stroke: #333333; stroke-width: 0.5; stroke-linejoin: miter"/>
   </g>
   <g id="patch_138">
    <path d="M 389.736 313.314124 
L 370.531021 324.402124 
L 370.531021 346.578124 
L 389.736 357.666124 
L 408.940979 346.578124 
L 408.940979 324.402124 
L 389.736 313.314124 
z
" clip-path="url(#p5a12d71fe8)" style="fill: none; opacity: 0.05; stroke: #333333; stroke-width: 0.5; stroke-linejoin: miter"/>
   </g>
   <g id="patch_139">
    <path d="M 373.104 274.904165 
L 353.899021 285.992165 
L 353.899021 308.168165 
L 373.104 319.256165 
L 392.308979 308.168165 
L 392.308979 285.992165 
L 373.104 274.904165 
z
" clip-path="url(#p5a12d71fe8)" style="fill: none; opacity: 0.05; stroke: #333333; stroke-width: 0.5; stroke-linejoin: miter"/>
   </g>
   <g id="patch_140">
    <path d="M 389.736 236.494206 
L 370.531021 247.582206 
L 370.531021 269.758206 
L 389.736 280.846206 
L 408.940979 269.758206 
L 408.940979 247.582206 
L 389.736 236.494206 
z
" clip-path="url(#p5a12d71fe8)" style="fill: none; opacity: 0.05; stroke: #333333; stroke-width: 0.5; stroke-linejoin: miter"/>
   </g>
   <g id="patch_141">
    <path d="M 373.104 198.084248 
L 353.899021 209.172248 
L 353.899021 231.348248 
L 373.104 242.436248 
L 392.308979 231.348248 
L 392.308979 209.172248 
L 373.104 198.084248 
z
" clip-path="url(#p5a12d71fe8)" style="fill: none; opacity: 0.05; stroke: #333333; stroke-width: 0.5; stroke-linejoin: miter"/>
   </g>
   <g id="patch_142">
    <path d="M 389.736 159.674289 
L 370.531021 170.762289 
L 370.531021 192.938289 
L 389.736 204.026289 
L 408.940979 192.938289 
L 408.940979 170.762289 
L 389.736 159.674289 
z
" clip-path="url(#p5a12d71fe8)" style="fill: none; opacity: 0.05; stroke: #333333; stroke-width: 0.5; stroke-linejoin: miter"/>
   </g>
   <g id="patch_143">
    <path d="M 373.104 121.26433 
L 353.899021 132.35233 
L 353.899021 154.52833 
L 373.104 165.61633 
L 392.308979 154.52833 
L 392.308979 132.35233 
L 373.104 121.26433 
z
" clip-path="url(#p5a12d71fe8)" style="fill: none; opacity: 0.05; stroke: #333333; stroke-width: 0.5; stroke-linejoin: miter"/>
   </g>
   <g id="patch_144">
    <path d="M 389.736 82.854372 
L 370.531021 93.942372 
L 370.531021 116.118372 
L 389.736 127.206372 
L 408.940979 116.118372 
L 408.940979 93.942372 
L 389.736 82.854372 
z
" clip-path="url(#p5a12d71fe8)" style="fill: none; opacity: 0.05; stroke: #333333; stroke-width: 0.5; stroke-linejoin: miter"/>
   </g>
   <g id="patch_145">
    <path d="M 373.104 44.444413 
L 353.899021 55.532413 
L 353.899021 77.708413 
L 373.104 88.796413 
L 392.308979 77.708413 
L 392.308979 55.532413 
L 373.104 44.444413 
z
" clip-path="url(#p5a12d71fe8)" style="fill: none; opacity: 0.05; stroke: #333333; stroke-width: 0.5; stroke-linejoin: miter"/>
   </g>
   <g id="patch_146">
    <path d="M 389.736 6.034454 
L 370.531021 17.122454 
L 370.531021 39.298454 
L 389.736 50.386454 
L 408.940979 39.298454 
L 408.940979 17.122454 
L 389.736 6.034454 
z
" clip-path="url(#p5a12d71fe8)" style="fill: none; opacity: 0.05; stroke: #333333; stroke-width: 0.5; stroke-linejoin: miter"/>
   </g>
   <g id="patch_147">
    <path d="M 406.368 428.544 
L 387.163021 439.632 
L 387.163021 458.92 
M 425.572979 458.92 
L 425.572979 439.632 
L 406.368 428.544 
" clip-path="url(#p5a12d71fe8)" style="fill: none; opacity: 0.05; stroke: #333333; stroke-width: 0.5; stroke-linejoin: miter"/>
   </g>
   <g id="patch_148">
    <path d="M 423 390.134041 
L 403.795021 401.222041 
L 403.795021 423.398041 
L 423 434.486041 
L 442.204979 423.398041 
L 442.204979 401.222041 
L 423 390.134041 
z
" clip-path="url(#p5a12d71fe8)" style="fill: none; opacity: 0.05; stroke: #333333; stroke-width: 0.5; stroke-linejoin: miter"/>
   </g>
   <g id="patch_149">
    <path d="M 406.368 351.724083 
L 387.163021 362.812083 
L 387.163021 384.988083 
L 406.368 396.076083 
L 425.572979 384.988083 
L 425.572979 362.812083 
L 406.368 351.724083 
z
" clip-path="url(#p5a12d71fe8)" style="fill: none; opacity: 0.05; stroke: #333333; stroke-width: 0.5; stroke-linejoin: miter"/>
   </g>
   <g id="patch_150">
    <path d="M 423 313.314124 
L 403.795021 324.402124 
L 403.795021 346.578124 
L 423 357.666124 
L 442.204979 346.578124 
L 442.204979 324.402124 
L 423 313.314124 
z
" clip-path="url(#p5a12d71fe8)" style="fill: none; opacity: 0.05; stroke: #333333; stroke-width: 0.5; stroke-linejoin: miter"/>
   </g>
   <g id="patch_151">
    <path d="M 406.368 274.904165 
L 387.163021 285.992165 
L 387.163021 308.168165 
L 406.368 319.256165 
L 425.572979 308.168165 
L 425.572979 285.992165 
L 406.368 274.904165 
z
" clip-path="url(#p5a12d71fe8)" style="fill: none; opacity: 0.05; stroke: #333333; stroke-width: 0.5; stroke-linejoin: miter"/>
   </g>
   <g id="patch_152">
    <path d="M 423 236.494206 
L 403.795021 247.582206 
L 403.795021 269.758206 
L 423 280.846206 
L 442.204979 269.758206 
L 442.204979 247.582206 
L 423 236.494206 
z
" clip-path="url(#p5a12d71fe8)" style="fill: none; opacity: 0.05; stroke: #333333; stroke-width: 0.5; stroke-linejoin: miter"/>
   </g>
   <g id="patch_153">
    <path d="M 406.368 198.084248 
L 387.163021 209.172248 
L 387.163021 231.348248 
L 406.368 242.436248 
L 425.572979 231.348248 
L 425.572979 209.172248 
L 406.368 198.084248 
z
" clip-path="url(#p5a12d71fe8)" style="fill: none; opacity: 0.05; stroke: #333333; stroke-width: 0.5; stroke-linejoin: miter"/>
   </g>
   <g id="patch_154">
    <path d="M 423 159.674289 
L 403.795021 170.762289 
L 403.795021 192.938289 
L 423 204.026289 
L 442.204979 192.938289 
L 442.204979 170.762289 
L 423 159.674289 
z
" clip-path="url(#p5a12d71fe8)" style="fill: none; opacity: 0.05; stroke: #333333; stroke-width: 0.5; stroke-linejoin: miter"/>
   </g>
   <g id="patch_155">
    <path d="M 406.368 121.26433 
L 387.163021 132.35233 
L 387.163021 154.52833 
L 406.368 165.61633 
L 425.572979 154.52833 
L 425.572979 132.35233 
L 406.368 121.26433 
z
" clip-path="url(#p5a12d71fe8)" style="fill: none; opacity: 0.05; stroke: #333333; stroke-width: 0.5; stroke-linejoin: miter"/>
   </g>
   <g id="patch_156">
    <path d="M 423 82.854372 
L 403.795021 93.942372 
L 403.795021 116.118372 
L 423 127.206372 
L 442.204979 116.118372 
L 442.204979 93.942372 
L 423 82.854372 
z
" clip-path="url(#p5a12d71fe8)" style="fill: none; opacity: 0.05; stroke: #333333; stroke-width: 0.5; stroke-linejoin: miter"/>
   </g>
   <g id="patch_157">
    <path d="M 406.368 44.444413 
L 387.163021 55.532413 
L 387.163021 77.708413 
L 406.368 88.796413 
L 425.572979 77.708413 
L 425.572979 55.532413 
L 406.368 44.444413 
z
" clip-path="url(#p5a12d71fe8)" style="fill: none; opacity: 0.05; stroke: #333333; stroke-width: 0.5; stroke-linejoin: miter"/>
   </g>
   <g id="patch_158">
    <path d="M 423 6.034454 
L 403.795021 17.122454 
L 403.795021 39.298454 
L 423 50.386454 
L 442.204979 39.298454 
L 442.204979 17.122454 
L 423 6.034454 
z
" clip-path="url(#p5a12d71fe8)" style="fill: none; opacity: 0.05; stroke: #333333; stroke-width: 0.5; stroke-linejoin: miter"/>
   </g>
   <g id="patch_159">
    <path d="M 439.632 428.544 
L 420.427021 439.632 
L 420.427021 458.92 
M 458.836979 458.92 
L 458.836979 439.632 
L 439.632 428.544 
" clip-path="url(#p5a12d71fe8)" style="fill: none; opacity: 0.05; stroke: #333333; stroke-width: 0.5; stroke-linejoin: miter"/>
   </g>
   <g id="patch_160">
    <path d="M 456.264 390.134041 
L 437.059021 401.222041 
L 437.059021 423.398041 
L 456.264 434.486041 
L 458.92 432.952599 
M 458.92 391.667484 
L 456.264 390.134041 
" clip-path="url(#p5a12d71fe8)" style="fill: none; opacity: 0.05; stroke: #333333; stroke-width: 0.5; stroke-linejoin: miter"/>
   </g>
   <g id="patch_161">
    <path d="M 439.632 351.724083 
L 420.427021 362.812083 
L 420.427021 384.988083 
L 439.632 396.076083 
L 458.836979 384.988083 
L 458.836979 362.812083 
L 439.632 351.724083 
z
" clip-path="url(#p5a12d71fe8)" style="fill: none; opacity: 0.05; stroke: #333333; stroke-width: 0.5; stroke-linejoin: miter"/>
   </g>
   <g id="patch_162">
    <path d="M 456.264 313.314124 
L 437.059021 324.402124 
L 437.059021 346.578124 
L 456.264 357.666124 
L 458.92 356.132682 
M 458.92 314.847566 
L 456.264 313.314124 
" clip-path="url(#p5a12d71fe8)" style="fill: none; opacity: 0.05; stroke: #333333; stroke-width: 0.5; stroke-linejoin: miter"/>
   </g>
   <g id="patch_163">
    <path d="M 439.632 274.904165 
L 420.427021 285.992165 
L 420.427021 308.168165 
L 439.632 319.256165 
L 458.836979 308.168165 
L 458.836979 285.992165 
L 439.632 274.904165 
z
" clip-path="url(#p5a12d71fe8)" style="fill: none; opacity: 0.05; stroke: #333333; stroke-width: 0.5; stroke-linejoin: miter"/>
   </g>
   <g id="patch_164">
    <path d="M 456.264 236.494206 
L 437.059021 247.582206 
L 437.059021 269.758206 
L 456.264 280.846206 
L 458.92 279.312764 
M 458.92 238.027649 
L 456.264 236.494206 
" clip-path="url(#p5a12d71fe8)" style="fill: none; opacity: 0.05; stroke: #333333; stroke-width: 0.5; stroke-linejoin: miter"/>
   </g>
   <g id="patch_165">
    <path d="M 439.632 198.084248 
L 420.427021 209.172248 
L 420.427021 231.348248 
L 439.632 242.436248 
L 458.836979 231.348248 
L 458.836979 209.172248 
L 439.632 198.084248 
z
" clip-path="url(#p5a12d71fe8)" style="fill: none; opacity: 0.05; stroke: #333333; stroke-width: 0.5; stroke-linejoin: miter"/>
   </g>
   <g id="patch_166">
    <path d="M 456.264 159.674289 
L 437.059021 170.762289 
L 437.059021 192.938289 
L 456.264 204.026289 
L 458.92 202.492847 
M 458.92 161.207731 
L 456.264 159.674289 
" clip-path="url(#p5a12d71fe8)" style="fill: none; opacity: 0.05; stroke: #333333; stroke-width: 0.5; stroke-linejoin: miter"/>
   </g>
   <g id="patch_167">
    <path d="M 439.632 121.26433 
L 420.427021 132.35233 
L 420.427021 154.52833 
L 439.632 165.61633 
L 458.836979 154.52833 
L 458.836979 132.35233 
L 439.632 121.26433 
z
" clip-path="url(#p5a12d71fe8)" style="fill: none; opacity: 0.05; stroke: #333333; stroke-width: 0.5; stroke-linejoin: miter"/>
   </g>
   <g id="patch_168">
    <path d="M 456.264 82.854372 
L 437.059021 93.942372 
L 437.059021 116.118372 
L 456.264 127.206372 
L 458.92 125.672929 
M 458.92 84.387814 
L 456.264 82.854372 
" clip-path="url(#p5a12d71fe8)" style="fill: none; opacity: 0.05; stroke: #333333; stroke-width: 0.5; stroke-linejoin: miter"/>
   </g>
   <g id="patch_169">
    <path d="M 439.632 44.444413 
L 420.427021 55.532413 
L 420.427021 77.708413 
L 439.632 88.796413 
L 458.836979 77.708413 
L 458.836979 55.532413 
L 439.632 44.444413 
z
" clip-path="url(#p5a12d71fe8)" style="fill: none; opacity: 0.05; stroke: #333333; stroke-width: 0.5; stroke-linejoin: miter"/>
   </g>
   <g id="patch_170">
    <path d="M 456.264 6.034454 
L 437.059021 17.122454 
L 437.059021 39.298454 
L 456.264 50.386454 
L 458.92 48.853012 
M 458.92 7.567897 
L 456.264 6.034454 
" clip-path="url(#p5a12d71fe8)" style="fill: none; opacity: 0.05; stroke: #333333; stroke-width: 0.5; stroke-linejoin: miter"/>
   </g>
   <g id="patch_171">
    <path d="M 162.432 184.608 
L 143.227021 195.696 
L 143.227021 217.872 
L 162.432 228.96 
L 181.636979 217.872 
L 181.636979 195.696 
L 162.432 184.608 
z
" clip-path="url(#p5a12d71fe8)" style="fill: none; opacity: 0.8; stroke: #00e5ff; stroke-width: 2; stroke-linejoin: miter"/>
   </g>
   <g id="patch_172">
    <path d="M 162.432 220.0896 
C 165.960686 220.0896 169.345322 218.687638 171.84048 216.19248 
C 174.335638 213.697322 175.7376 210.312686 175.7376 206.784 
C 175.7376 203.255314 174.335638 199.870678 171.84048 197.37552 
C 169.345322 194.880362 165.960686 193.4784 162.432 193.4784 
C 158.903314 193.4784 155.518678 194.880362 153.02352 197.37552 
C 150.528362 199.870678 149.1264 203.255314 149.1264 206.784 
C 149.1264 210.312686 150.528362 213.697322 153.02352 216.19248 
C 155.518678 218.687638 158.903314 220.0896 162.432 220.0896 
L 162.432 220.0896 
z
" clip-path="url(#p5a12d71fe8)" style="fill: none; opacity: 0.6; stroke: #00e5ff; stroke-linejoin: miter"/>
   </g>
   <g id="patch_173">
    <path d="M 184.608 209.0016 
C 185.196114 209.0016 185.76022 208.76794 186.17608 208.35208 
C 186.59194 207.93622 186.8256 207.372114 186.8256 206.784 
C 186.8256 206.195886 186.59194 205.63178 186.17608 205.21592 
C 185.76022 204.80006 185.196114 204.5664 184.608 204.5664 
C 184.019886 204.5664 183.45578 204.80006 183.03992 205.21592 
C 182.62406 205.63178 182.3904 206.195886 182.3904 206.784 
C 182.3904 207.372114 182.62406 207.93622 183.03992 208.35208 
C 183.45578 208.76794 184.019886 209.0016 184.608 209.0016 
z
" clip-path="url(#p5a12d71fe8)" style="fill: #00e5ff; opacity: 0.8"/>
   </g>
   <g id="patch_174">
    <path d="M 173.52 189.796621 
C 174.108114 189.796621 174.67222 189.56296 175.08808 189.147101 
C 175.50394 188.731241 175.7376 188.167135 175.7376 187.579021 
C 175.7376 186.990906 175.50394 186.4268 175.08808 186.010941 
C 174.67222 185.595081 174.108114 185.361421 173.52 185.361421 
C 172.931886 185.361421 172.36778 185.595081 171.95192 186.010941 
C 171.53606 186.4268 171.3024 186.990906 171.3024 187.579021 
C 171.3024 188.167135 171.53606 188.731241 171.95192 189.147101 
C 172.36778 189.56296 172.931886 189.796621 173.52 189.796621 
z
" clip-path="url(#p5a12d71fe8)" style="fill: #00e5ff; opacity: 0.8"/>
   </g>
   <g id="patch_175">
    <path d="M 151.344 189.796621 
C 151.932114 189.796621 152.49622 189.56296 152.91208 189.147101 
C 153.32794 188.731241 153.5616 188.167135 153.5616 187.579021 
C 153.5616 186.990906 153.32794 186.4268 152.91208 186.010941 
C 152.49622 185.595081 151.932114 185.361421 151.344 185.361421 
C 150.755886 185.361421 150.19178 185.595081 149.77592 186.010941 
C 149.36006 186.4268 149.1264 186.990906 149.1264 187.579021 
C 149.1264 188.167135 149.36006 188.731241 149.77592 189.147101 
C 150.19178 189.56296 150.755886 189.796621 151.344 189.796621 
z
" clip-path="url(#p5a12d71fe8)" style="fill: #00e5ff; opacity: 0.8"/>
   </g>
   <g id="patch_176">
    <path d="M 140.256 209.0016 
C 140.844114 209.0016 141.40822 208.76794 141.82408 208.35208 
C 142.23994 207.93622 142.4736 207.372114 142.4736 206.784 
C 142.4736 206.195886 142.23994 205.63178 141.82408 205.21592 
C 141.40822 204.80006 140.844114 204.5664 140.256 204.5664 
C 139.667886 204.5664 139.10378 204.80006 138.68792 205.21592 
C 138.27206 205.63178 138.0384 206.195886 138.0384 206.784 
C 138.0384 207.372114 138.27206 207.93622 138.68792 208.35208 
C 139.10378 208.76794 139.667886 209.0016 140.256 209.0016 
z
" clip-path="url(#p5a12d71fe8)" style="fill: #00e5ff; opacity: 0.8"/>
   </g>
   <g id="patch_177">
    <path d="M 151.344 228.206579 
C 151.932114 228.206579 152.49622 227.972919 152.91208 227.557059 
C 153.32794 227.1412 153.5616 226.577094 153.5616 225.988979 
C 153.5616 225.400865 153.32794 224.836759 152.91208 224.420899 
C 152.49622 224.00504 151.932114 223.771379 151.344 223.771379 
C 150.755886 223.771379 150.19178 224.00504 149.77592 224.420899 
C 149.36006 224.836759 149.1264 225.400865 149.1264 225.988979 
C 149.1264 226.577094 149.36006 227.1412 149.77592 227.557059 
C 150.19178 227.972919 150.755886 228.206579 151.344 228.206579 
z
" clip-path="url(#p5a12d71fe8)" style="fill: #00e5ff; opacity: 0.8"/>
   </g>
   <g id="patch_178">
    <path d="M 173.52 228.206579 
C 174.108114 228.206579 174.67222 227.972919 175.08808 227.557059 
C 175.50394 227.1412 175.7376 226.577094 175.7376 225.988979 
C 175.7376 225.400865 175.50394 224.836759 175.08808 224.420899 
C 174.67222 224.00504 174.108114 223.771379 173.52 223.771379 
C 172.931886 223.771379 172.36778 224.00504 171.95192 224.420899 
C 171.53606 224.836759 171.3024 225.400865 171.3024 225.988979 
C 171.3024 226.577094 171.53606 227.1412 171.95192 227.557059 
C 172.36778 227.972919 172.931886 228.206579 173.52 228.206579 
z
" clip-path="url(#p5a12d71fe8)" style="fill: #00e5ff; opacity: 0.8"/>
   </g>
   <g id="patch_179">
    <path d="M 173.52 212.328 
L 169.362 217.872 
L 170.748 226.188 
L 173.52 227.574 
L 176.292 226.188 
L 177.678 217.872 
z
" clip-path="url(#p5a12d71fe8)" style="fill: #00e5ff; opacity: 0.6"/>
   </g>
   <g id="patch_180">
    <path d="M 196.8048 184.608 
L 192.843114 182.652791 
L 192.207828 178.280811 
L 189.124086 181.444406 
L 184.769772 180.697582 
L 186.8256 184.608 
L 184.769772 188.518418 
L 189.124086 187.771594 
L 192.207828 190.935189 
L 192.843114 186.563209 
z
" clip-path="url(#p5a12d71fe8)" style="fill: #00e5ff; opacity: 0.8"/>
   </g>
   <g id="text_1">
    <!-- OpenGBSA -->
    <g style="fill: #4c4cff; opacity: 0.8" transform="translate(156.5625 201.24) scale(0.24 -0.24)">
     <defs>
      <path id="DejaVuSans-Bold-4f" d="M 2719 3878 
Q 2169 3878 1866 3472 
Q 1563 3066 1563 2328 
Q 1563 1594 1866 1187 
Q 2169 781 2719 781 
Q 3272 781 3575 1187 
Q 3878 1594 3878 2328 
Q 3878 3066 3575 3472 
Q 3272 3878 2719 3878 
z
M 2719 4750 
Q 3844 4750 4481 4106 
Q 5119 3463 5119 2328 
Q 5119 1197 4481 553 
Q 3844 -91 2719 -91 
Q 1597 -91 958 553 
Q 319 1197 319 2328 
Q 319 3463 958 4106 
Q 1597 4750 2719 4750 
z
" transform="scale(0.015625)"/>
      <path id="DejaVuSans-Bold-70" d="M 1656 506 
L 1656 -1331 
L 538 -1331 
L 538 3500 
L 1656 3500 
L 1656 2988 
Q 1888 3294 2169 3439 
Q 2450 3584 2816 3584 
Q 3463 3584 3878 3070 
Q 4294 2556 4294 1747 
Q 4294 938 3878 423 
Q 3463 -91 2816 -91 
Q 2450 -91 2169 54 
Q 1888 200 1656 506 
z
M 2400 2772 
Q 2041 2772 1848 2508 
Q 1656 2244 1656 1747 
Q 1656 1250 1848 986 
Q 2041 722 2400 722 
Q 2759 722 2948 984 
Q 3138 1247 3138 1747 
Q 3138 2247 2948 2509 
Q 2759 2772 2400 2772 
z
" transform="scale(0.015625)"/>
      <path id="DejaVuSans-Bold-65" d="M 4031 1759 
L 4031 1441 
L 1416 1441 
Q 1456 1047 1700 850 
Q 1944 653 2381 653 
Q 2734 653 3104 758 
Q 3475 863 3866 1075 
L 3866 213 
Q 3469 63 3072 -14 
Q 2675 -91 2278 -91 
Q 1328 -91 801 392 
Q 275 875 275 1747 
Q 275 2603 792 3093 
Q 1309 3584 2216 3584 
Q 3041 3584 3536 3087 
Q 4031 2591 4031 1759 
z
M 2881 2131 
Q 2881 2450 2695 2645 
Q 2509 2841 2209 2841 
Q 1884 2841 1681 2658 
Q 1478 2475 1428 2131 
L 2881 2131 
z
" transform="scale(0.015625)"/>
      <path id="DejaVuSans-Bold-6e" d="M 4056 2131 
L 4056 0 
L 2931 0 
L 2931 347 
L 2931 1631 
Q 2931 2084 2911 2256 
Q 2891 2428 2841 2509 
Q 2775 2619 2662 2680 
Q 2550 2741 2406 2741 
Q 2056 2741 1856 2470 
Q 1656 2200 1656 1722 
L 1656 0 
L 538 0 
L 538 3500 
L 1656 3500 
L 1656 2988 
Q 1909 3294 2193 3439 
Q 2478 3584 2822 3584 
Q 3428 3584 3742 3212 
Q 4056 2841 4056 2131 
z
" transform="scale(0.015625)"/>
      <path id="DejaVuSans-Bold-47" d="M 4781 347 
Q 4331 128 3847 18 
Q 3363 -91 2847 -91 
Q 1681 -91 1000 561 
Q 319 1213 319 2328 
Q 319 3456 1012 4103 
Q 1706 4750 2913 4750 
Q 3378 4750 3804 4662 
Q 4231 4575 4609 4403 
L 4609 3438 
Q 4219 3659 3833 3768 
Q 3447 3878 3059 3878 
Q 2341 3878 1952 3476 
Q 1563 3075 1563 2328 
Q 1563 1588 1938 1184 
Q 2313 781 3003 781 
Q 3191 781 3352 804 
Q 3513 828 3641 878 
L 3641 1784 
L 2906 1784 
L 2906 2591 
L 4781 2591 
L 4781 347 
z
" transform="scale(0.015625)"/>
      <path id="DejaVuSans-Bold-42" d="M 2456 2859 
Q 2741 2859 2887 2984 
Q 3034 3109 3034 3353 
Q 3034 3594 2887 3720 
Q 2741 3847 2456 3847 
L 1791 3847 
L 1791 2859 
L 2456 2859 
z
M 2497 819 
Q 2859 819 3042 972 
Q 3225 1125 3225 1434 
Q 3225 1738 3044 1889 
Q 2863 2041 2497 2041 
L 1791 2041 
L 1791 819 
L 2497 819 
z
M 3616 2497 
Q 4003 2384 4215 2081 
Q 4428 1778 4428 1338 
Q 4428 663 3972 331 
Q 3516 0 2584 0 
L 588 0 
L 588 4666 
L 2394 4666 
Q 3366 4666 3802 4372 
Q 4238 4078 4238 3431 
Q 4238 3091 4078 2852 
Q 3919 2613 3616 2497 
z
" transform="scale(0.015625)"/>
      <path id="DejaVuSans-Bold-53" d="M 3834 4519 
L 3834 3531 
Q 3450 3703 3084 3790 
Q 2719 3878 2394 3878 
Q 1963 3878 1756 3759 
Q 1550 3641 1550 3391 
Q 1550 3203 1689 3098 
Q 1828 2994 2194 2919 
L 2706 2816 
Q 3484 2659 3812 2340 
Q 4141 2022 4141 1434 
Q 4141 663 3683 286 
Q 3225 -91 2284 -91 
Q 1841 -91 1394 -6 
Q 947 78 500 244 
L 500 1259 
Q 947 1022 1364 901 
Q 1781 781 2169 781 
Q 2563 781 2772 912 
Q 2981 1044 2981 1288 
Q 2981 1506 2839 1625 
Q 2697 1744 2272 1838 
L 1806 1941 
Q 1106 2091 782 2419 
Q 459 2747 459 3303 
Q 459 4000 909 4375 
Q 1359 4750 2203 4750 
Q 2588 4750 2994 4692 
Q 3400 4634 3834 4519 
z
" transform="scale(0.015625)"/>
      <path id="DejaVuSans-Bold-41" d="M 3419 850 
L 1538 850 
L 1241 0 
L 31 0 
L 1759 4666 
L 3194 4666 
L 4922 0 
L 3713 0 
L 3419 850 
z
M 1838 1716 
L 3116 1716 
L 2478 3572 
L 1838 1716 
z
" transform="scale(0.015625)"/>
     </defs>
     <use xlink:href="#DejaVuSans-Bold-4f"/>
     <use xlink:href="#DejaVuSans-Bold-70" transform="translate(85.009766 0)"/>
     <use xlink:href="#DejaVuSans-Bold-65" transform="translate(156.591797 0)"/>
     <use xlink:href="#DejaVuSans-Bold-6e" transform="translate(224.414062 0)"/>
     <use xlink:href="#DejaVuSans-Bold-47" transform="translate(295.605469 0)"/>
     <use xlink:href="#DejaVuSans-Bold-42" transform="translate(377.685547 0)"/>
     <use xlink:href="#DejaVuSans-Bold-53" transform="translate(453.90625 0)"/>
     <use xlink:href="#DejaVuSans-Bold-41" transform="translate(525.927734 0)"/>
    </g>
   </g>
   <g id="text_2">
    <!-- OpenGBSA -->
    <g style="fill: #7979ff; opacity: 0.8" transform="translate(156.5625 200.1312) scale(0.24 -0.24)">
     <use xlink:href="#DejaVuSans-Bold-4f"/>
     <use xlink:href="#DejaVuSans-Bold-70" transform="translate(85.009766 0)"/>
     <use xlink:href="#DejaVuSans-Bold-65" transform="translate(156.591797 0)"/>
     <use xlink:href="#DejaVuSans-Bold-6e" transform="translate(224.414062 0)"/>
     <use xlink:href="#DejaVuSans-Bold-47" transform="translate(295.605469 0)"/>
     <use xlink:href="#DejaVuSans-Bold-42" transform="translate(377.685547 0)"/>
     <use xlink:href="#DejaVuSans-Bold-53" transform="translate(453.90625 0)"/>
     <use xlink:href="#DejaVuSans-Bold-41" transform="translate(525.927734 0)"/>
    </g>
   </g>
   <g id="text_3">
    <!-- OpenGBSA -->
    <g style="fill: #a5a5ff; opacity: 0.8" transform="translate(156.5625 199.0224) scale(0.24 -0.24)">
     <use xlink:href="#DejaVuSans-Bold-4f"/>
     <use xlink:href="#DejaVuSans-Bold-70" transform="translate(85.009766 0)"/>
     <use xlink:href="#DejaVuSans-Bold-65" transform="translate(156.591797 0)"/>
     <use xlink:href="#DejaVuSans-Bold-6e" transform="translate(224.414062 0)"/>
     <use xlink:href="#DejaVuSans-Bold-47" transform="translate(295.605469 0)"/>
     <use xlink:href="#DejaVuSans-Bold-42" transform="translate(377.685547 0)"/>
     <use xlink:href="#DejaVuSans-Bold-53" transform="translate(453.90625 0)"/>
     <use xlink:href="#DejaVuSans-Bold-41" transform="translate(525.927734 0)"/>
    </g>
   </g>
   <g id="text_4">
    <!-- OpenGBSA -->
    <g style="fill: #d2d2ff; opacity: 0.8" transform="translate(156.5625 197.9136) scale(0.24 -0.24)">
     <use xlink:href="#DejaVuSans-Bold-4f"/>
     <use xlink:href="#DejaVuSans-Bold-70" transform="translate(85.009766 0)"/>
     <use xlink:href="#DejaVuSans-Bold-65" transform="translate(156.591797 0)"/>
     <use xlink:href="#DejaVuSans-Bold-6e" transform="translate(224.414062 0)"/>
     <use xlink:href="#DejaVuSans-Bold-47" transform="translate(295.605469 0)"/>
     <use xlink:href="#DejaVuSans-Bold-42" transform="translate(377.685547 0)"/>
     <use xlink:href="#DejaVuSans-Bold-53" transform="translate(453.90625 0)"/>
     <use xlink:href="#DejaVuSans-Bold-41" transform="translate(525.927734 0)"/>
    </g>
   </g>
   <g id="text_5">
    <!-- OpenGBSA -->
    <g style="fill: #ffffff; opacity: 0.8" transform="translate(156.5625 196.8048) scale(0.24 -0.24)">
     <use xlink:href="#DejaVuSans-Bold-4f"/>
     <use xlink:href="#DejaVuSans-Bold-70" transform="translate(85.009766 0)"/>
     <use xlink:href="#DejaVuSans-Bold-65" transform="translate(156.591797 0)"/>
     <use xlink:href="#DejaVuSans-Bold-6e" transform="translate(224.414062 0)"/>
     <use xlink:href="#DejaVuSans-Bold-47" transform="translate(295.605469 0)"/>
     <use xlink:href="#DejaVuSans-Bold-42" transform="translate(377.685547 0)"/>
     <use xlink:href="#DejaVuSans-Bold-53" transform="translate(453.90625 0)"/>
     <use xlink:href="#DejaVuSans-Bold-41" transform="translate(525.927734 0)"/>
    </g>
   </g>
   <g id="text_6">
    <!-- OpenGBSA -->
    <g style="fill: #00e5ff" transform="translate(156.5625 201.24) scale(0.24 -0.24)">
     <use xlink:href="#DejaVuSans-Bold-4f"/>
     <use xlink:href="#DejaVuSans-Bold-70" transform="translate(85.009766 0)"/>
     <use xlink:href="#DejaVuSans-Bold-65" transform="translate(156.591797 0)"/>
     <use xlink:href="#DejaVuSans-Bold-6e" transform="translate(224.414062 0)"/>
     <use xlink:href="#DejaVuSans-Bold-47" transform="translate(295.605469 0)"/>
     <use xlink:href="#DejaVuSans-Bold-42" transform="translate(377.685547 0)"/>
     <use xlink:href="#DejaVuSans-Bold-53" transform="translate(453.90625 0)"/>
     <use xlink:href="#DejaVuSans-Bold-41" transform="translate(525.927734 0)"/>
    </g>
   </g>
   <g id="text_7">
    <!-- MM/GBSA Analysis -->
    <g style="fill: #666666" transform="translate(182.552969 267.768) scale(0.1 -0.1)">
     <defs>
      <path id="DejaVuSans-4d" d="M 628 4666 
L 1569 4666 
L 2759 1491 
L 3956 4666 
L 4897 4666 
L 4897 0 
L 4281 0 
L 4281 4097 
L 3078 897 
L 2444 897 
L 1241 4097 
L 1241 0 
L 628 0 
L 628 4666 
z
" transform="scale(0.015625)"/>
      <path id="DejaVuSans-2f" d="M 1625 4666 
L 2156 4666 
L 531 -594 
L 0 -594 
L 1625 4666 
z
" transform="scale(0.015625)"/>
      <path id="DejaVuSans-47" d="M 3809 666 
L 3809 1919 
L 2778 1919 
L 2778 2438 
L 4434 2438 
L 4434 434 
Q 4069 175 3628 42 
Q 3188 -91 2688 -91 
Q 1594 -91 976 548 
Q 359 1188 359 2328 
Q 359 3472 976 4111 
Q 1594 4750 2688 4750 
Q 3144 4750 3555 4637 
Q 3966 4525 4313 4306 
L 4313 3634 
Q 3963 3931 3569 4081 
Q 3175 4231 2741 4231 
Q 1884 4231 1454 3753 
Q 1025 3275 1025 2328 
Q 1025 1384 1454 906 
Q 1884 428 2741 428 
Q 3075 428 3337 486 
Q 3600 544 3809 666 
z
" transform="scale(0.015625)"/>
      <path id="DejaVuSans-42" d="M 1259 2228 
L 1259 519 
L 2272 519 
Q 2781 519 3026 730 
Q 3272 941 3272 1375 
Q 3272 1813 3026 2020 
Q 2781 2228 2272 2228 
L 1259 2228 
z
M 1259 4147 
L 1259 2741 
L 2194 2741 
Q 2656 2741 2882 2914 
Q 3109 3088 3109 3444 
Q 3109 3797 2882 3972 
Q 2656 4147 2194 4147 
L 1259 4147 
z
M 628 4666 
L 2241 4666 
Q 2963 4666 3353 4366 
Q 3744 4066 3744 3513 
Q 3744 3084 3544 2831 
Q 3344 2578 2956 2516 
Q 3422 2416 3680 2098 
Q 3938 1781 3938 1306 
Q 3938 681 3513 340 
Q 3088 0 2303 0 
L 628 0 
L 628 4666 
z
" transform="scale(0.015625)"/>
      <path id="DejaVuSans-53" d="M 3425 4513 
L 3425 3897 
Q 3066 4069 2747 4153 
Q 2428 4238 2131 4238 
Q 1616 4238 1336 4038 
Q 1056 3838 1056 3469 
Q 1056 3159 1242 3001 
Q 1428 2844 1947 2747 
L 2328 2669 
Q 3034 2534 3370 2195 
Q 3706 1856 3706 1288 
Q 3706 609 3251 259 
Q 2797 -91 1919 -91 
Q 1588 -91 1214 -16 
Q 841 59 441 206 
L 441 856 
Q 825 641 1194 531 
Q 1563 422 1919 422 
Q 2459 422 2753 634 
Q 3047 847 3047 1241 
Q 3047 1584 2836 1778 
Q 2625 1972 2144 2069 
L 1759 2144 
Q 1053 2284 737 2584 
Q 422 2884 422 3419 
Q 422 4038 858 4394 
Q 1294 4750 2059 4750 
Q 2388 4750 2728 4690 
Q 3069 4631 3425 4513 
z
" transform="scale(0.015625)"/>
      <path id="DejaVuSans-41" d="M 2188 4044 
L 1331 1722 
L 3047 1722 
L 2188 4044 
z
M 1831 4666 
L 2547 4666 
L 4325 0 
L 3669 0 
L 3244 1197 
L 1141 1197 
L 716 0 
L 50 0 
L 1831 4666 
z
" transform="scale(0.015625)"/>
      <path id="DejaVuSans-20" transform="scale(0.015625)"/>
      <path id="DejaVuSans-6e" d="M 3513 2113 
L 3513 0 
L 2938 0 
L 2938 2094 
Q 2938 2591 2744 2837 
Q 2550 3084 2163 3084 
Q 1697 3084 1428 2787 
Q 1159 2491 1159 1978 
L 1159 0 
L 581 0 
L 581 3500 
L 1159 3500 
L 1159 2956 
Q 1366 3272 1645 3428 
Q 1925 3584 2291 3584 
Q 2894 3584 3203 3211 
Q 3513 2838 3513 2113 
z
" transform="scale(0.015625)"/>
      <path id="DejaVuSans-61" d="M 2194 1759 
Q 1497 1759 1228 1600 
Q 959 1441 959 1056 
Q 959 750 1161 570 
Q 1363 391 1709 391 
Q 2188 391 2477 730 
Q 2766 1069 2766 1631 
L 2766 1759 
L 2194 1759 
z
M 3341 1997 
L 3341 0 
L 2766 0 
L 2766 531 
Q 2569 213 2275 61 
Q 1981 -91 1556 -91 
Q 1019 -91 701 211 
Q 384 513 384 1019 
Q 384 1609 779 1909 
Q 1175 2209 1959 2209 
L 2766 2209 
L 2766 2266 
Q 2766 2663 2505 2880 
Q 2244 3097 1772 3097 
Q 1472 3097 1187 3025 
Q 903 2953 641 2809 
L 641 3341 
Q 956 3463 1253 3523 
Q 1550 3584 1831 3584 
Q 2591 3584 2966 3190 
Q 3341 2797 3341 1997 
z
" transform="scale(0.015625)"/>
      <path id="DejaVuSans-6c" d="M 603 4863 
L 1178 4863 
L 1178 0 
L 603 0 
L 603 4863 
z
" transform="scale(0.015625)"/>
      <path id="DejaVuSans-79" d="M 2059 -325 
Q 1816 -950 1584 -1140 
Q 1353 -1331 966 -1331 
L 506 -1331 
L 506 -850 
L 844 -850 
Q 1081 -850 1212 -737 
Q 1344 -625 1503 -206 
L 1606 56 
L 191 3500 
L 800 3500 
L 1894 763 
L 2988 3500 
L 3597 3500 
L 2059 -325 
z
" transform="scale(0.015625)"/>
      <path id="DejaVuSans-73" d="M 2834 3397 
L 2834 2853 
Q 2591 2978 2328 3040 
Q 2066 3103 1784 3103 
Q 1356 3103 1142 2972 
Q 928 2841 928 2578 
Q 928 2378 1081 2264 
Q 1234 2150 1697 2047 
L 1894 2003 
Q 2506 1872 2764 1633 
Q 3022 1394 3022 966 
Q 3022 478 2636 193 
Q 2250 -91 1575 -91 
Q 1294 -91 989 -36 
Q 684 19 347 128 
L 347 722 
Q 666 556 975 473 
Q 1284 391 1588 391 
Q 1994 391 2212 530 
Q 2431 669 2431 922 
Q 2431 1156 2273 1281 
Q 2116 1406 1581 1522 
L 1381 1569 
Q 847 1681 609 1914 
Q 372 2147 372 2553 
Q 372 3047 722 3315 
Q 1072 3584 1716 3584 
Q 2034 3584 2315 3537 
Q 2597 3491 2834 3397 
z
" transform="scale(0.015625)"/>
      <path id="DejaVuSans-69" d="M 603 3500 
L 1178 3500 
L 1178 0 
L 603 0 
L 603 3500 
z
M 603 4863 
L 1178 4863 
L 1178 4134 
L 603 4134 
L 603 4863 
z
" transform="scale(0.015625)"/>
     </defs>
     <use xlink:href="#DejaVuSans-4d"/>
     <use xlink:href="#DejaVuSans-4d" transform="translate(86.279297 0)"/>
     <use xlink:href="#DejaVuSans-2f" transform="translate(172.558594 0)"/>
     <use xlink:href="#DejaVuSans-47" transform="translate(206.25 0)"/>
     <use xlink:href="#DejaVuSans-42" transform="translate(283.740234 0)"/>
     <use xlink:href="#DejaVuSans-53" transform="translate(350.59375 0)"/>
     <use xlink:href="#DejaVuSans-41" transform="translate(415.945312 0)"/>
     <use xlink:href="#DejaVuSans-20" transform="translate(484.353516 0)"/>
     <use xlink:href="#DejaVuSans-41" transform="translate(516.140625 0)"/>
     <use xlink:href="#DejaVuSans-6e" transform="translate(584.548828 0)"/>
     <use xlink:href="#DejaVuSans-61" transform="translate(647.927734 0)"/>
     <use xlink:href="#DejaVuSans-6c" transform="translate(709.207031 0)"/>
     <use xlink:href="#DejaVuSans-79" transform="translate(736.990234 0)"/>
     <use xlink:href="#DejaVuSans-73" transform="translate(796.169922 0)"/>
     <use xlink:href="#DejaVuSans-69" transform="translate(848.269531 0)"/>
     <use xlink:href="#DejaVuSans-73" transform="translate(876.052734 0)"/>
    </g>
   </g>
  </g>
 </g>
 <defs>
  <clipPath id="p5a12d71fe8">
   <rect x="7.2" y="7.2" width="443.52" height="443.52"/>
  </clipPath>
 </defs>
</svg>
