<?xml version="1.0" encoding="utf-8" standalone="no"?>
<!DOCTYPE svg PUBLIC "-//W3C//DTD SVG 1.1//EN"
  "http://www.w3.org/Graphics/SVG/1.1/DTD/svg11.dtd">
<svg xmlns:xlink="http://www.w3.org/1999/xlink" width="457.92pt" height="236.16pt" viewBox="0 0 457.92 236.16" xmlns="http://www.w3.org/2000/svg" version="1.1">
 <metadata>
  <rdf:RDF xmlns:dc="http://purl.org/dc/elements/1.1/" xmlns:cc="http://creativecommons.org/ns#" xmlns:rdf="http://www.w3.org/1999/02/22-rdf-syntax-ns#">
   <cc:Work>
    <dc:type rdf:resource="http://purl.org/dc/dcmitype/StillImage"/>
    <dc:date>2025-07-20T23:36:06.293226</dc:date>
    <dc:format>image/svg+xml</dc:format>
    <dc:creator>
     <cc:Agent>
      <dc:title>Matplotlib v3.10.3, https://matplotlib.org/</dc:title>
     </cc:Agent>
    </dc:creator>
   </cc:Work>
  </rdf:RDF>
 </metadata>
 <defs>
  <style type="text/css">*{stroke-linejoin: round; stroke-linecap: butt}</style>
 </defs>
 <g id="figure_1">
  <g id="patch_1">
   <path d="M 0 236.16 
L 457.92 236.16 
L 457.92 0 
L 0 0 
L 0 236.16 
z
" style="fill: none"/>
  </g>
  <g id="axes_1">
   <g id="patch_2">
    <path d="M 62.64 105.8832 
C 63.816229 105.8832 64.944441 105.415879 65.77616 104.58416 
C 66.607879 103.752441 67.0752 102.624229 67.0752 101.448 
C 67.0752 100.271771 66.607879 99.143559 65.77616 98.31184 
C 64.944441 97.480121 63.816229 97.0128 62.64 97.0128 
C 61.463771 97.0128 60.335559 97.480121 59.50384 98.31184 
C 58.672121 99.143559 58.2048 100.271771 58.2048 101.448 
C 58.2048 102.624229 58.672121 103.752441 59.50384 104.58416 
C 60.335559 105.415879 61.463771 105.8832 62.64 105.8832 
z
" clip-path="url(#p85f7069bd6)" style="fill: #2196f3"/>
   </g>
   <g id="patch_3">
    <path d="M 131.462069 128.671338 
C 132.638298 128.671338 133.76651 128.204017 134.598229 127.372298 
C 135.429948 126.540578 135.897269 125.412367 135.897269 124.236138 
C 135.897269 123.059909 135.429948 121.931697 134.598229 121.099978 
C 133.76651 120.268258 132.638298 119.800938 131.462069 119.800938 
C 130.28584 119.800938 129.157628 120.268258 128.325909 121.099978 
C 127.49419 121.931697 127.026869 123.059909 127.026869 124.236138 
C 127.026869 125.412367 127.49419 126.540578 128.325909 127.372298 
C 129.157628 128.204017 130.28584 128.671338 131.462069 128.671338 
z
" clip-path="url(#p85f7069bd6)" style="fill: #2196f3"/>
   </g>
   <g id="patch_4">
    <path d="M 200.284138 134.589957 
C 201.460367 134.589957 202.588579 134.122636 203.420298 133.290917 
C 204.252017 132.459198 204.719338 131.330986 204.719338 130.154757 
C 204.719338 128.978528 204.252017 127.850316 203.420298 127.018597 
C 202.588579 126.186878 201.460367 125.719557 200.284138 125.719557 
C 199.107909 125.719557 197.979697 126.186878 197.147978 127.018597 
C 196.316259 127.850316 195.848938 128.978528 195.848938 130.154757 
C 195.848938 131.330986 196.316259 132.459198 197.147978 133.290917 
C 197.979697 134.122636 199.107909 134.589957 200.284138 134.589957 
z
" clip-path="url(#p85f7069bd6)" style="fill: #2196f3"/>
   </g>
   <g id="patch_5">
    <path d="M 269.106207 107.420406 
C 270.282436 107.420406 271.410648 106.953085 272.242367 106.121366 
C 273.074086 105.289646 273.541407 104.161434 273.541407 102.985206 
C 273.541407 101.808977 273.074086 100.680765 272.242367 99.849046 
C 271.410648 99.017326 270.282436 98.550006 269.106207 98.550006 
C 267.929978 98.550006 266.801766 99.017326 265.970047 99.849046 
C 265.138328 100.680765 264.671007 101.808977 264.671007 102.985206 
C 264.671007 104.161434 265.138328 105.289646 265.970047 106.121366 
C 266.801766 106.953085 267.929978 107.420406 269.106207 107.420406 
z
" clip-path="url(#p85f7069bd6)" style="fill: #2196f3"/>
   </g>
   <g id="patch_6">
    <path d="M 337.928276 121.614762 
C 339.104505 121.614762 340.232717 121.147441 341.064436 120.315722 
C 341.896155 119.484002 342.363476 118.35579 342.363476 117.179562 
C 342.363476 116.003333 341.896155 114.875121 341.064436 114.043402 
C 340.232717 113.211682 339.104505 112.744362 337.928276 112.744362 
C 336.752047 112.744362 335.623835 113.211682 334.792116 114.043402 
C 333.960397 114.875121 333.493076 116.003333 333.493076 117.179562 
C 333.493076 118.35579 333.960397 119.484002 334.792116 120.315722 
C 335.623835 121.147441 336.752047 121.614762 337.928276 121.614762 
z
" clip-path="url(#p85f7069bd6)" style="fill: #2196f3"/>
   </g>
   <g id="line2d_1">
    <path d="M 62.64 101.448 
L 74.110345 102.318632 
L 85.58069 104.83938 
L 97.051034 108.746337 
L 108.521379 113.630469 
L 119.991724 118.980438 
L 131.462069 124.236138 
L 142.932414 128.847329 
L 154.402759 132.331249 
L 165.873103 134.323153 
L 177.343448 134.614503 
L 188.813793 133.174794 
L 200.284138 130.154757 
L 211.754483 125.870569 
L 223.224828 120.770758 
L 234.695172 115.389242 
L 246.165517 110.289431 
L 257.635862 106.005243 
L 269.106207 102.985206 
L 280.576552 101.545497 
L 292.046897 101.836847 
L 303.517241 103.828751 
L 314.987586 107.312671 
L 326.457931 111.923862 
L 337.928276 117.179562 
L 349.398621 122.529531 
L 360.868966 127.413663 
L 372.33931 131.32062 
L 383.809655 133.841368 
L 395.28 134.712 
" clip-path="url(#p85f7069bd6)" style="fill: none; stroke: #4caf50; stroke-opacity: 0.8; stroke-width: 3; stroke-linecap: square"/>
   </g>
   <g id="text_1">
    <!-- OpenGBSA -->
    <g transform="translate(168.62875 51.552) scale(0.2 -0.2)">
     <defs>
      <path id="DejaVuSans-Bold-4f" d="M 2719 3878 
Q 2169 3878 1866 3472 
Q 1563 3066 1563 2328 
Q 1563 1594 1866 1187 
Q 2169 781 2719 781 
Q 3272 781 3575 1187 
Q 3878 1594 3878 2328 
Q 3878 3066 3575 3472 
Q 3272 3878 2719 3878 
z
M 2719 4750 
Q 3844 4750 4481 4106 
Q 5119 3463 5119 2328 
Q 5119 1197 4481 553 
Q 3844 -91 2719 -91 
Q 1597 -91 958 553 
Q 319 1197 319 2328 
Q 319 3463 958 4106 
Q 1597 4750 2719 4750 
z
" transform="scale(0.015625)"/>
      <path id="DejaVuSans-Bold-70" d="M 1656 506 
L 1656 -1331 
L 538 -1331 
L 538 3500 
L 1656 3500 
L 1656 2988 
Q 1888 3294 2169 3439 
Q 2450 3584 2816 3584 
Q 3463 3584 3878 3070 
Q 4294 2556 4294 1747 
Q 4294 938 3878 423 
Q 3463 -91 2816 -91 
Q 2450 -91 2169 54 
Q 1888 200 1656 506 
z
M 2400 2772 
Q 2041 2772 1848 2508 
Q 1656 2244 1656 1747 
Q 1656 1250 1848 986 
Q 2041 722 2400 722 
Q 2759 722 2948 984 
Q 3138 1247 3138 1747 
Q 3138 2247 2948 2509 
Q 2759 2772 2400 2772 
z
" transform="scale(0.015625)"/>
      <path id="DejaVuSans-Bold-65" d="M 4031 1759 
L 4031 1441 
L 1416 1441 
Q 1456 1047 1700 850 
Q 1944 653 2381 653 
Q 2734 653 3104 758 
Q 3475 863 3866 1075 
L 3866 213 
Q 3469 63 3072 -14 
Q 2675 -91 2278 -91 
Q 1328 -91 801 392 
Q 275 875 275 1747 
Q 275 2603 792 3093 
Q 1309 3584 2216 3584 
Q 3041 3584 3536 3087 
Q 4031 2591 4031 1759 
z
M 2881 2131 
Q 2881 2450 2695 2645 
Q 2509 2841 2209 2841 
Q 1884 2841 1681 2658 
Q 1478 2475 1428 2131 
L 2881 2131 
z
" transform="scale(0.015625)"/>
      <path id="DejaVuSans-Bold-6e" d="M 4056 2131 
L 4056 0 
L 2931 0 
L 2931 347 
L 2931 1631 
Q 2931 2084 2911 2256 
Q 2891 2428 2841 2509 
Q 2775 2619 2662 2680 
Q 2550 2741 2406 2741 
Q 2056 2741 1856 2470 
Q 1656 2200 1656 1722 
L 1656 0 
L 538 0 
L 538 3500 
L 1656 3500 
L 1656 2988 
Q 1909 3294 2193 3439 
Q 2478 3584 2822 3584 
Q 3428 3584 3742 3212 
Q 4056 2841 4056 2131 
z
" transform="scale(0.015625)"/>
      <path id="DejaVuSans-Bold-47" d="M 4781 347 
Q 4331 128 3847 18 
Q 3363 -91 2847 -91 
Q 1681 -91 1000 561 
Q 319 1213 319 2328 
Q 319 3456 1012 4103 
Q 1706 4750 2913 4750 
Q 3378 4750 3804 4662 
Q 4231 4575 4609 4403 
L 4609 3438 
Q 4219 3659 3833 3768 
Q 3447 3878 3059 3878 
Q 2341 3878 1952 3476 
Q 1563 3075 1563 2328 
Q 1563 1588 1938 1184 
Q 2313 781 3003 781 
Q 3191 781 3352 804 
Q 3513 828 3641 878 
L 3641 1784 
L 2906 1784 
L 2906 2591 
L 4781 2591 
L 4781 347 
z
" transform="scale(0.015625)"/>
      <path id="DejaVuSans-Bold-42" d="M 2456 2859 
Q 2741 2859 2887 2984 
Q 3034 3109 3034 3353 
Q 3034 3594 2887 3720 
Q 2741 3847 2456 3847 
L 1791 3847 
L 1791 2859 
L 2456 2859 
z
M 2497 819 
Q 2859 819 3042 972 
Q 3225 1125 3225 1434 
Q 3225 1738 3044 1889 
Q 2863 2041 2497 2041 
L 1791 2041 
L 1791 819 
L 2497 819 
z
M 3616 2497 
Q 4003 2384 4215 2081 
Q 4428 1778 4428 1338 
Q 4428 663 3972 331 
Q 3516 0 2584 0 
L 588 0 
L 588 4666 
L 2394 4666 
Q 3366 4666 3802 4372 
Q 4238 4078 4238 3431 
Q 4238 3091 4078 2852 
Q 3919 2613 3616 2497 
z
" transform="scale(0.015625)"/>
      <path id="DejaVuSans-Bold-53" d="M 3834 4519 
L 3834 3531 
Q 3450 3703 3084 3790 
Q 2719 3878 2394 3878 
Q 1963 3878 1756 3759 
Q 1550 3641 1550 3391 
Q 1550 3203 1689 3098 
Q 1828 2994 2194 2919 
L 2706 2816 
Q 3484 2659 3812 2340 
Q 4141 2022 4141 1434 
Q 4141 663 3683 286 
Q 3225 -91 2284 -91 
Q 1841 -91 1394 -6 
Q 947 78 500 244 
L 500 1259 
Q 947 1022 1364 901 
Q 1781 781 2169 781 
Q 2563 781 2772 912 
Q 2981 1044 2981 1288 
Q 2981 1506 2839 1625 
Q 2697 1744 2272 1838 
L 1806 1941 
Q 1106 2091 782 2419 
Q 459 2747 459 3303 
Q 459 4000 909 4375 
Q 1359 4750 2203 4750 
Q 2588 4750 2994 4692 
Q 3400 4634 3834 4519 
z
" transform="scale(0.015625)"/>
      <path id="DejaVuSans-Bold-41" d="M 3419 850 
L 1538 850 
L 1241 0 
L 31 0 
L 1759 4666 
L 3194 4666 
L 4922 0 
L 3713 0 
L 3419 850 
z
M 1838 1716 
L 3116 1716 
L 2478 3572 
L 1838 1716 
z
" transform="scale(0.015625)"/>
     </defs>
     <use xlink:href="#DejaVuSans-Bold-4f"/>
     <use xlink:href="#DejaVuSans-Bold-70" transform="translate(85.009766 0)"/>
     <use xlink:href="#DejaVuSans-Bold-65" transform="translate(156.591797 0)"/>
     <use xlink:href="#DejaVuSans-Bold-6e" transform="translate(224.414062 0)"/>
     <use xlink:href="#DejaVuSans-Bold-47" transform="translate(295.605469 0)"/>
     <use xlink:href="#DejaVuSans-Bold-42" transform="translate(377.685547 0)"/>
     <use xlink:href="#DejaVuSans-Bold-53" transform="translate(453.90625 0)"/>
     <use xlink:href="#DejaVuSans-Bold-41" transform="translate(525.927734 0)"/>
    </g>
   </g>
   <g id="text_2">
    <!-- MM/GBSA Analysis -->
    <g style="fill: #333333" transform="translate(182.552969 184.608) scale(0.1 -0.1)">
     <defs>
      <path id="DejaVuSans-4d" d="M 628 4666 
L 1569 4666 
L 2759 1491 
L 3956 4666 
L 4897 4666 
L 4897 0 
L 4281 0 
L 4281 4097 
L 3078 897 
L 2444 897 
L 1241 4097 
L 1241 0 
L 628 0 
L 628 4666 
z
" transform="scale(0.015625)"/>
      <path id="DejaVuSans-2f" d="M 1625 4666 
L 2156 4666 
L 531 -594 
L 0 -594 
L 1625 4666 
z
" transform="scale(0.015625)"/>
      <path id="DejaVuSans-47" d="M 3809 666 
L 3809 1919 
L 2778 1919 
L 2778 2438 
L 4434 2438 
L 4434 434 
Q 4069 175 3628 42 
Q 3188 -91 2688 -91 
Q 1594 -91 976 548 
Q 359 1188 359 2328 
Q 359 3472 976 4111 
Q 1594 4750 2688 4750 
Q 3144 4750 3555 4637 
Q 3966 4525 4313 4306 
L 4313 3634 
Q 3963 3931 3569 4081 
Q 3175 4231 2741 4231 
Q 1884 4231 1454 3753 
Q 1025 3275 1025 2328 
Q 1025 1384 1454 906 
Q 1884 428 2741 428 
Q 3075 428 3337 486 
Q 3600 544 3809 666 
z
" transform="scale(0.015625)"/>
      <path id="DejaVuSans-42" d="M 1259 2228 
L 1259 519 
L 2272 519 
Q 2781 519 3026 730 
Q 3272 941 3272 1375 
Q 3272 1813 3026 2020 
Q 2781 2228 2272 2228 
L 1259 2228 
z
M 1259 4147 
L 1259 2741 
L 2194 2741 
Q 2656 2741 2882 2914 
Q 3109 3088 3109 3444 
Q 3109 3797 2882 3972 
Q 2656 4147 2194 4147 
L 1259 4147 
z
M 628 4666 
L 2241 4666 
Q 2963 4666 3353 4366 
Q 3744 4066 3744 3513 
Q 3744 3084 3544 2831 
Q 3344 2578 2956 2516 
Q 3422 2416 3680 2098 
Q 3938 1781 3938 1306 
Q 3938 681 3513 340 
Q 3088 0 2303 0 
L 628 0 
L 628 4666 
z
" transform="scale(0.015625)"/>
      <path id="DejaVuSans-53" d="M 3425 4513 
L 3425 3897 
Q 3066 4069 2747 4153 
Q 2428 4238 2131 4238 
Q 1616 4238 1336 4038 
Q 1056 3838 1056 3469 
Q 1056 3159 1242 3001 
Q 1428 2844 1947 2747 
L 2328 2669 
Q 3034 2534 3370 2195 
Q 3706 1856 3706 1288 
Q 3706 609 3251 259 
Q 2797 -91 1919 -91 
Q 1588 -91 1214 -16 
Q 841 59 441 206 
L 441 856 
Q 825 641 1194 531 
Q 1563 422 1919 422 
Q 2459 422 2753 634 
Q 3047 847 3047 1241 
Q 3047 1584 2836 1778 
Q 2625 1972 2144 2069 
L 1759 2144 
Q 1053 2284 737 2584 
Q 422 2884 422 3419 
Q 422 4038 858 4394 
Q 1294 4750 2059 4750 
Q 2388 4750 2728 4690 
Q 3069 4631 3425 4513 
z
" transform="scale(0.015625)"/>
      <path id="DejaVuSans-41" d="M 2188 4044 
L 1331 1722 
L 3047 1722 
L 2188 4044 
z
M 1831 4666 
L 2547 4666 
L 4325 0 
L 3669 0 
L 3244 1197 
L 1141 1197 
L 716 0 
L 50 0 
L 1831 4666 
z
" transform="scale(0.015625)"/>
      <path id="DejaVuSans-20" transform="scale(0.015625)"/>
      <path id="DejaVuSans-6e" d="M 3513 2113 
L 3513 0 
L 2938 0 
L 2938 2094 
Q 2938 2591 2744 2837 
Q 2550 3084 2163 3084 
Q 1697 3084 1428 2787 
Q 1159 2491 1159 1978 
L 1159 0 
L 581 0 
L 581 3500 
L 1159 3500 
L 1159 2956 
Q 1366 3272 1645 3428 
Q 1925 3584 2291 3584 
Q 2894 3584 3203 3211 
Q 3513 2838 3513 2113 
z
" transform="scale(0.015625)"/>
      <path id="DejaVuSans-61" d="M 2194 1759 
Q 1497 1759 1228 1600 
Q 959 1441 959 1056 
Q 959 750 1161 570 
Q 1363 391 1709 391 
Q 2188 391 2477 730 
Q 2766 1069 2766 1631 
L 2766 1759 
L 2194 1759 
z
M 3341 1997 
L 3341 0 
L 2766 0 
L 2766 531 
Q 2569 213 2275 61 
Q 1981 -91 1556 -91 
Q 1019 -91 701 211 
Q 384 513 384 1019 
Q 384 1609 779 1909 
Q 1175 2209 1959 2209 
L 2766 2209 
L 2766 2266 
Q 2766 2663 2505 2880 
Q 2244 3097 1772 3097 
Q 1472 3097 1187 3025 
Q 903 2953 641 2809 
L 641 3341 
Q 956 3463 1253 3523 
Q 1550 3584 1831 3584 
Q 2591 3584 2966 3190 
Q 3341 2797 3341 1997 
z
" transform="scale(0.015625)"/>
      <path id="DejaVuSans-6c" d="M 603 4863 
L 1178 4863 
L 1178 0 
L 603 0 
L 603 4863 
z
" transform="scale(0.015625)"/>
      <path id="DejaVuSans-79" d="M 2059 -325 
Q 1816 -950 1584 -1140 
Q 1353 -1331 966 -1331 
L 506 -1331 
L 506 -850 
L 844 -850 
Q 1081 -850 1212 -737 
Q 1344 -625 1503 -206 
L 1606 56 
L 191 3500 
L 800 3500 
L 1894 763 
L 2988 3500 
L 3597 3500 
L 2059 -325 
z
" transform="scale(0.015625)"/>
      <path id="DejaVuSans-73" d="M 2834 3397 
L 2834 2853 
Q 2591 2978 2328 3040 
Q 2066 3103 1784 3103 
Q 1356 3103 1142 2972 
Q 928 2841 928 2578 
Q 928 2378 1081 2264 
Q 1234 2150 1697 2047 
L 1894 2003 
Q 2506 1872 2764 1633 
Q 3022 1394 3022 966 
Q 3022 478 2636 193 
Q 2250 -91 1575 -91 
Q 1294 -91 989 -36 
Q 684 19 347 128 
L 347 722 
Q 666 556 975 473 
Q 1284 391 1588 391 
Q 1994 391 2212 530 
Q 2431 669 2431 922 
Q 2431 1156 2273 1281 
Q 2116 1406 1581 1522 
L 1381 1569 
Q 847 1681 609 1914 
Q 372 2147 372 2553 
Q 372 3047 722 3315 
Q 1072 3584 1716 3584 
Q 2034 3584 2315 3537 
Q 2597 3491 2834 3397 
z
" transform="scale(0.015625)"/>
      <path id="DejaVuSans-69" d="M 603 3500 
L 1178 3500 
L 1178 0 
L 603 0 
L 603 3500 
z
M 603 4863 
L 1178 4863 
L 1178 4134 
L 603 4134 
L 603 4863 
z
" transform="scale(0.015625)"/>
     </defs>
     <use xlink:href="#DejaVuSans-4d"/>
     <use xlink:href="#DejaVuSans-4d" transform="translate(86.279297 0)"/>
     <use xlink:href="#DejaVuSans-2f" transform="translate(172.558594 0)"/>
     <use xlink:href="#DejaVuSans-47" transform="translate(206.25 0)"/>
     <use xlink:href="#DejaVuSans-42" transform="translate(283.740234 0)"/>
     <use xlink:href="#DejaVuSans-53" transform="translate(350.59375 0)"/>
     <use xlink:href="#DejaVuSans-41" transform="translate(415.945312 0)"/>
     <use xlink:href="#DejaVuSans-20" transform="translate(484.353516 0)"/>
     <use xlink:href="#DejaVuSans-41" transform="translate(516.140625 0)"/>
     <use xlink:href="#DejaVuSans-6e" transform="translate(584.548828 0)"/>
     <use xlink:href="#DejaVuSans-61" transform="translate(647.927734 0)"/>
     <use xlink:href="#DejaVuSans-6c" transform="translate(709.207031 0)"/>
     <use xlink:href="#DejaVuSans-79" transform="translate(736.990234 0)"/>
     <use xlink:href="#DejaVuSans-73" transform="translate(796.169922 0)"/>
     <use xlink:href="#DejaVuSans-69" transform="translate(848.269531 0)"/>
     <use xlink:href="#DejaVuSans-73" transform="translate(876.052734 0)"/>
    </g>
   </g>
  </g>
 </g>
 <defs>
  <clipPath id="p85f7069bd6">
   <rect x="7.2" y="7.2" width="443.52" height="221.76"/>
  </clipPath>
 </defs>
</svg>
